<?xml version="1.0" standalone="no"?> <!DOCTYPE svg PUBLIC "-//W3C//DTD SVG 1.0//EN" "http://www.w3.org/TR/2001/REC-SVG-20010904/DTD/svg10.dtd" > <svg xmlns="http://www.w3.org/2000/svg" width="100%" height="100%">
<defs >
<font horiz-adv-x="355" ><font-face
    font-family="NATS"
    units-per-em="970"
    panose-1="0 0 0 0 0 0 0 0 0 0"
    ascent="1294"
    descent="-756"
    alphabetic="0" />
<missing-glyph horiz-adv-x="192" />
<glyph unicode=" " glyph-name="space" horiz-adv-x="192" />
<glyph unicode="!" glyph-name="exclam" horiz-adv-x="207" d="M55 501H153V411L132 158H76L55 411V501ZM52 47Q52 68 67 83T104 99T140 84T156 47Q156 25 141 10T104 -6T68 9T52 47Z" />
<glyph unicode="&quot;" glyph-name="quotedbl" horiz-adv-x="262" d="M54 317V489H109V317H54ZM153 317V489H208V317H153Z" />
<glyph unicode="#" glyph-name="numbersign" horiz-adv-x="515" d="M470 305H394L374 189H460L445 112H361L342 0H264L284 112H181L161 0H83L102 112H30L46 189H115L136 305H56L71 382H149L169 501H247L227 382H330L350 501H428L407 382H485L470 305ZM317 305H214L193
189H296L317 305Z" />
<glyph unicode="$" glyph-name="dollar" horiz-adv-x="433" d="M198 -50V1Q104 10 26 77L77 138Q137 86 198 77V213Q116 232 81 263T46 354Q46 414 88 452T198 495V530H243V494Q318 490 389 442L343 377Q296 411 243 418V286H245Q327 267 364 234T401 142Q401
81 358 43T243 0V-50H198ZM243 75Q277 79 296 94T316 135T301 174T243 201V75ZM198 420Q167 418 149 402T131 363Q131 339 145 326T198 299V420Z" />
<glyph unicode="%" glyph-name="percent" horiz-adv-x="550" d="M242 390Q242 343 212 311T137 278T62 310T31 389Q31 436 61 468T137 501Q183 501 212 469Q242 436 242 390ZM497 489L139 0H48L407 489H497ZM176 389Q176 410 165 424T136 438T108 424T96 389T108
354T137 339T165 354Q176 366 176 389ZM520 106Q520 60 490 27T414 -6T339 26T309 106Q309 152 339 185T415 218T490 186Q520 153 520 106ZM456 104Q456 125 444 139T415 153T387 139T375 104T387 69T417 54Q433 54 445 69Q456 83 456 104Z" />
<glyph unicode="&amp;" glyph-name="ampersand" horiz-adv-x="486" d="M34 137Q34 216 149 278Q118 314 108 334T97 385Q97 439 137 470T236 501Q294 501 332 472T370 392Q370 322 258 261Q305 204 349 156Q371 189 383 231L440 190Q423 144 399 106Q407 98 431
75T470 36L418 -13L354 51Q291 -6 200 -6Q129 -6 82 33T34 137ZM209 62Q253 62 303 103Q222 190 191 227Q112 184 112 134Q112 102 139 82T209 62ZM175 390Q175 371 183 356T217 311Q296 350 296 384Q296 410 279 424T236 439Q212 439 194 424T175 390Z" />
<glyph unicode="&apos;" glyph-name="quotesingle" horiz-adv-x="162" d="M54 317V489H109V317H54Z" />
<glyph unicode="(" glyph-name="parenleft" horiz-adv-x="232" d="M113 218Q113 139 140 52T209 -93H126Q90 -42 63 46T35 218T62 390T126 530H209Q169 474 141 386Q113 301 113 218Z" />
<glyph unicode=")" glyph-name="parenright" horiz-adv-x="232" d="M120 218Q120 297 93 384T23 530H106Q143 479 170 391T197 218Q197 135 170 47T106 -93H23Q64 -36 92 51Q120 136 120 218Z" />
<glyph unicode="*" glyph-name="asterisk" horiz-adv-x="302" d="M236 301L169 346L175 266H127L133 347L67 302L43 342L114 378L43 413L67 454L132 410L127 489H175L170 410L236 454L260 413L188 378L260 342L236 301Z" />
<glyph unicode="+" glyph-name="plus" horiz-adv-x="398" d="M167 105V238H34V304H167V435H230V304H364V238H230V105H167Z" />
<glyph unicode="," glyph-name="comma" horiz-adv-x="197" d="M98 98Q119 98 135 83T151 47Q151 28 132 -4L90 -74H49L75 -1Q46 13 46 46Q46 68 61 83T98 98Z" />
<glyph unicode="-" glyph-name="hyphen" horiz-adv-x="333" d="M50 172V246H283V172H50Z" />
<glyph unicode="." glyph-name="period" horiz-adv-x="196" d="M46 47Q46 69 61 84T98 99T135 84T151 47T136 10T98 -6Q75 -6 62 10Q46 25 46 47Z" />
<glyph unicode="/" glyph-name="slash" horiz-adv-x="411" d="M323 568H393L90 -82H20L323 568Z" />
<glyph unicode="0" glyph-name="zero" horiz-adv-x="482" d="M121 248Q121 163 151 114T241 65T330 113T359 248T330 382T241 431Q178 431 151 380Q121 330 121 248ZM41 248Q41 366 92 433T241 501T389 434T440 248T390 62T241 -6Q141 -6 91 64Q41 132 41 248Z" />
<glyph unicode="1" glyph-name="one" horiz-adv-x="267" d="M20 489H198V0H120V416H20V489Z" />
<glyph unicode="2" glyph-name="two" horiz-adv-x="412" d="M189 219Q242 273 261 300T281 356Q281 386 259 406T202 427Q140 427 102 365L35 404Q69 454 108 477T207 501Q270 501 315 461T360 356Q360 319 341 285T268 196L153 79H375V0H41V70L189 219Z" />
<glyph unicode="3" glyph-name="three" horiz-adv-x="405" d="M54 416V489H340V425L222 293Q288 291 326 252T365 154Q365 80 315 37T183 -6Q104 -6 27 45L62 111Q122 69 188 69Q232 69 259 89T286 147Q286 185 255 207T170 229Q144 229 118 221V284L231 416H54Z" />
<glyph unicode="4" glyph-name="four" horiz-adv-x="400" d="M236 198V288H314V198H373V123H314V0H236V123H26V196L206 489H296L119 198H236Z" />
<glyph unicode="5" glyph-name="five" horiz-adv-x="405" d="M340 490V415H134V295Q165 312 204 312Q275 312 323 270T372 158Q372 88 320 41T193 -6Q94 -6 35 60L79 120Q80 119 85 115T95 107Q107 97 136 86T197 74Q235 74 262 96T290 156Q290 195 260 217T183
240Q137 240 94 217L59 255V490H340Z" />
<glyph unicode="6" glyph-name="six" horiz-adv-x="434" d="M120 261Q170 315 244 315Q310 315 354 271T398 155Q398 84 351 39T230 -6Q174 -6 135 16T77 77T50 154T42 235Q42 378 102 441Q158 498 237 498T380 449L339 388Q322 403 296 413T248 424Q122 424 120
261ZM134 158Q134 120 161 94T230 67Q272 67 299 91T326 153T300 216T233 242Q190 242 162 219T134 158Z" />
<glyph unicode="7" glyph-name="seven" horiz-adv-x="396" d="M32 349V489H377V416L169 0H78L281 414H107V349H32Z" />
<glyph unicode="8" glyph-name="eight" horiz-adv-x="445" d="M223 499Q294 499 340 462T387 369Q387 312 335 269Q405 224 405 143Q405 79 355 37T223 -6T91 36T40 143Q40 224 111 269Q58 313 58 369Q58 426 105 462Q154 499 223 499ZM223 66Q262 66 292 88T323
146Q323 183 294 204T223 226Q181 226 152 205T122 146Q122 106 154 87Q187 66 223 66ZM223 288Q259 288 285 309T311 362Q311 392 285 413T223 435T161 414T134 362Q134 331 161 309Q188 288 223 288Z" />
<glyph unicode="9" glyph-name="nine" horiz-adv-x="433" d="M314 232Q295 210 262 194T190 178Q124 178 80 222T36 338T83 454T204 498Q260 498 299 476T357 415T384 339T392 258Q392 115 332 52Q277 -6 198 -6T54 44L95 105Q112 90 138 80T186 69Q312 69 314
232ZM300 335Q300 373 273 399T205 426T138 402T111 340Q111 301 135 276T202 251T272 274T300 335Z" />
<glyph unicode=":" glyph-name="colon" horiz-adv-x="205" d="M50 47Q50 69 65 84T102 99Q124 99 139 84T155 47T140 10T102 -6Q81 -6 66 10Q50 25 50 47ZM50 218Q50 240 65 255T102 270Q124 270 139 255T155 218Q155 197 140 182T102 166Q81 166 66 181Q50 197 50 218Z" />
<glyph unicode=";" glyph-name="semicolon" horiz-adv-x="207" d="M104 99Q125 99 140 84T156 48Q156 28 137 -4L95 -74H54L80 -1Q51 14 51 46Q51 68 66 83T104 99ZM51 218Q51 240 66 255T103 270T140 255T155 218Q155 197 140 182T103 166Q80 166 67 181Q51 197 51 218Z" />
<glyph unicode="&lt;" glyph-name="less" horiz-adv-x="414" d="M31 234V322L361 475V395L115 284V276L361 162V82L31 234Z" />
<glyph unicode="=" glyph-name="equal" horiz-adv-x="437" d="M42 370H395V304H42V370ZM42 238H395V172H42V238Z" />
<glyph unicode="&gt;" glyph-name="greater" horiz-adv-x="414" d="M383 322V234L53 82V162L300 276V284L53 395V475L383 322Z" />
<glyph unicode="?" glyph-name="question" horiz-adv-x="356" d="M211 152H132V195Q132 222 138 235T168 272L219 323Q235 340 235 367Q235 393 219 410T175 427T130 411T110 367H25Q32 429 73 464T178 500T280 466T319 371Q319 330 295 301Q280 281 257 260Q233
238 224 227Q211 209 211 183V152ZM119 48Q119 69 135 84T173 100T211 85T227 49Q227 27 212 12T174 -4T136 11T119 48Z" />
<glyph unicode="@" glyph-name="at" horiz-adv-x="633" d="M36 186Q36 304 119 387T321 471Q438 471 519 388T600 183Q600 108 572 62T495 15Q460 15 440 38T419 105Q380 15 293 15Q232 15 187 64T141 186Q141 261 185 311T300 361Q331 361 360 345T402 304V351H469V106Q469
57 507 57Q530 57 547 90T565 173Q565 286 497 363T323 440Q217 440 142 366T67 186Q67 82 137 13T312 -57Q396 -57 441 -15L456 -41Q432 -62 392 -75T312 -88Q194 -88 115 -10T36 186ZM307 293Q265 293 239 263T212 189Q212 143 238 112T307 80T376 111T403 189Q403
234 376 263T307 293Z" />
<glyph unicode="A" glyph-name="A" horiz-adv-x="519" d="M137 111L88 0H0L216 489H304L519 0H431L382 111H137ZM349 188L260 389L171 188H349Z" />
<glyph unicode="B" glyph-name="B" horiz-adv-x="494" d="M68 0V489H258Q361 489 398 445Q431 408 431 360Q431 302 395 274Q383 265 359 254Q405 244 431 213T458 136Q458 78 417 39T282 0H68ZM151 286H255Q345 286 345 347Q345 382 324 397T256 413H151V286ZM151
76H280Q328 76 351 91T374 145Q374 210 270 210H151V76Z" />
<glyph unicode="C" glyph-name="C" horiz-adv-x="515" d="M429 135L482 81Q406 -6 294 -6Q183 -6 110 65T36 246Q36 356 111 428T300 501Q412 501 489 417L437 360Q402 394 371 407T298 420Q223 420 173 372T122 250Q122 177 172 126T291 75Q333 75 363 89T429 135Z" />
<glyph unicode="D" glyph-name="D" horiz-adv-x="547" d="M236 489Q367 489 438 426T509 247Q509 130 439 65T230 0H68V489H236ZM233 413H151V78H242Q332 78 379 120T426 245Q426 413 233 413Z" />
<glyph unicode="E" glyph-name="E" horiz-adv-x="458" d="M412 489V412H151V282H385V209H151V78H420V0H68V489H412Z" />
<glyph unicode="F" glyph-name="F" horiz-adv-x="423" d="M151 412V278H368V202H151V0H68V489H394L393 412H151Z" />
<glyph unicode="G" glyph-name="G" horiz-adv-x="530" d="M407 238H489V71Q420 -6 291 -6Q182 -6 109 66T36 246T110 427T291 501T467 440L423 377Q372 420 298 420Q223 420 173 372T122 246T170 122T291 74Q361 74 407 104V238Z" />
<glyph unicode="H" glyph-name="H" horiz-adv-x="544" d="M68 0V489H151V277H393V489H476V0H393V200H151V0H68Z" />
<glyph unicode="I" glyph-name="I" horiz-adv-x="218" d="M68 489H151V0H68V489Z" />
<glyph unicode="J" glyph-name="J" horiz-adv-x="386" d="M84 415V489H322V167Q322 84 280 40T167 -4Q82 -4 22 56L69 121Q116 76 162 76Q195 76 217 98T239 162V415H84Z" />
<glyph unicode="K" glyph-name="K" horiz-adv-x="493" d="M68 489H151V251L375 489H479L283 275L482 0H384L222 214L151 137V0H68V489Z" />
<glyph unicode="L" glyph-name="L" horiz-adv-x="396" d="M68 0V489H151V78H374V0H68Z" />
<glyph unicode="M" glyph-name="M" horiz-adv-x="688" d="M151 0H68V489H197L344 182L492 489H620V0H538V382L367 43H321L151 382V0Z" />
<glyph unicode="N" glyph-name="N" horiz-adv-x="585" d="M435 489H517V0H428L151 357V0H68V489H151L435 124V489Z" />
<glyph unicode="O" glyph-name="O" horiz-adv-x="588" d="M294 426Q221 426 171 374T121 248T171 123T294 71T417 122T467 248T417 374T294 426ZM294 -5Q184 -5 110 67T36 248T110 428T294 501T478 429T552 248T477 68Q402 -5 294 -5Z" />
<glyph unicode="P" glyph-name="P" horiz-adv-x="479" d="M236 489Q346 489 397 447T449 315Q449 227 397 186T237 144H151V0H68V489H236ZM246 218Q312 218 338 243T365 322Q365 372 334 393T234 414H151V218H246Z" />
<glyph unicode="Q" glyph-name="Q" horiz-adv-x="588" d="M294 -5Q184 -5 110 67T36 248T110 428T294 501T478 429T552 248Q552 167 508 104T390 12Q414 -20 450 -20Q477 -20 502 -6T541 31L588 -34Q526 -99 449 -99Q403 -99 362 -73T305 -4L294 -5ZM294 426Q221
426 171 374T121 248T171 123T294 71T417 122T467 248T417 374T294 426Z" />
<glyph unicode="R" glyph-name="R" horiz-adv-x="510" d="M353 178L481 0H376L259 165H151V0H68V489H250Q361 489 409 452T458 330Q458 209 353 178ZM253 239Q322 239 348 260T374 331Q374 379 348 396T255 414H151V239H253Z" />
<glyph unicode="S" glyph-name="S" horiz-adv-x="441" d="M134 366Q134 335 157 321Q180 304 255 286Q334 267 370 234T407 139Q407 74 359 34T232 -6Q119 -6 28 74L80 136Q156 71 234 71Q273 71 297 88T321 134T300 178T223 207Q128 229 91 259Q48 292 48 360Q48
426 96 463T219 501Q320 501 392 442L348 380Q326 400 289 412T216 425Q179 425 157 410T134 366Z" />
<glyph unicode="T" glyph-name="T" horiz-adv-x="423" d="M253 414V0H170V414H22V489H401V414H253Z" />
<glyph unicode="U" glyph-name="U" horiz-adv-x="538" d="M269 73Q326 73 359 112T393 218V489H476V215Q476 111 419 53T269 -5T119 53T62 215V489H144V218Q144 150 178 112Q211 73 269 73Z" />
<glyph unicode="V" glyph-name="V" horiz-adv-x="490" d="M291 0H199L2 489H95L245 124L396 489H488L291 0Z" />
<glyph unicode="W" glyph-name="W" horiz-adv-x="734" d="M221 137L330 489H404L513 137L636 489H725L554 0H472L370 335H364L261 0H179L8 489H97L221 137Z" />
<glyph unicode="X" glyph-name="X" horiz-adv-x="471" d="M358 0L237 184H234L113 0H11L179 251L22 489H125L234 324H237L347 489H449L293 251L461 0H358Z" />
<glyph unicode="Y" glyph-name="Y" horiz-adv-x="437" d="M260 0H176V193L-6 489H85L218 267L352 489H442L260 193V0Z" />
<glyph unicode="Z" glyph-name="Z" horiz-adv-x="473" d="M318 414H42V489H433V425L148 78V76H437V0H33V64L318 412V414Z" />
<glyph unicode="[" glyph-name="bracketleft" horiz-adv-x="249" d="M220 530V471H123V-39H220V-98H62V530H220Z" />
<glyph unicode="\" glyph-name="backslash" horiz-adv-x="365" d="M20 530H90L344 0H274L20 530Z" />
<glyph unicode="]" glyph-name="bracketright" horiz-adv-x="249" d="M29 471V530H187V-98H29V-39H125V471H29Z" />
<glyph unicode="^" glyph-name="asciicircum" horiz-adv-x="276" d="M191 519L137 578L83 519H15L101 629H172L257 519H191Z" />
<glyph unicode="_" glyph-name="underscore" horiz-adv-x="505" d="M50 -97V-57H455V-97H50Z" />
<glyph unicode="`" glyph-name="graveaccent" horiz-adv-x="342" />
<glyph unicode="a" glyph-name="a" horiz-adv-x="411" d="M358 0H287V50Q240 -6 163 -6Q104 -6 67 27T29 115T69 197T179 225H281V239Q281 313 198 313Q146 313 90 275L55 324Q124 378 209 378Q278 378 318 344T358 240V0ZM280 170H192Q107 170 107 117Q107 90
128 76T187 61Q226 61 253 82T280 139V170Z" />
<glyph unicode="b" glyph-name="b" horiz-adv-x="470" d="M438 188Q438 104 386 49T262 -6Q191 -6 135 56V0H57V519H135V307Q182 378 256 378Q333 378 385 325T438 188ZM244 64Q292 64 325 98T359 186T326 274T245 309T166 274T134 186Q134 133 166 99T244 64Z" />
<glyph unicode="c" glyph-name="c" horiz-adv-x="403" d="M32 186Q32 270 90 324T233 378Q317 378 375 320L329 263Q281 305 232 305Q182 305 147 273T111 189Q111 137 146 102T234 66T333 113L379 63Q308 -6 222 -6Q142 -6 87 47T32 186Z" />
<glyph unicode="d" glyph-name="d" horiz-adv-x="470" d="M33 188Q33 272 86 325T216 378Q290 378 335 315V519H414V0H335V56Q293 -6 209 -6Q136 -6 85 48T33 188ZM226 64Q273 64 305 98T337 185Q337 237 305 273T225 309T145 274T111 185T145 98T226 64Z" />
<glyph unicode="e" glyph-name="e" horiz-adv-x="433" d="M403 152H111Q114 112 148 87T227 62Q298 62 333 106L378 57Q318 -6 221 -6Q141 -6 87 47T33 187Q33 272 88 325T221 378T351 331T403 206V152ZM325 214Q325 259 297 285T223 311T145 284T111 214H325Z" />
<glyph unicode="f" glyph-name="f" horiz-adv-x="270" d="M153 372H251V309H153V0H75V309H28V372H75V401Q75 458 110 493T196 529T287 492L255 437Q231 461 207 461Q182 461 168 446T153 403V372Z" />
<glyph unicode="g" glyph-name="g" horiz-adv-x="458" d="M401 372V48Q401 -48 349 -99T210 -150Q128 -150 58 -97L95 -38Q151 -79 206 -79Q326 -79 326 41V89Q309 56 276 37T203 17Q129 17 82 68T34 197Q34 275 81 326T203 378T323 317V372H401ZM216 88Q263 88
293 120T323 201Q323 250 293 282T215 315T140 282T111 201Q111 153 140 121T216 88Z" />
<glyph unicode="h" glyph-name="h" horiz-adv-x="452" d="M135 0H57V519H135V305Q152 339 186 358T259 378Q324 378 362 339T400 228V0H321V204Q321 307 236 307Q193 307 164 280T135 202V0Z" />
<glyph unicode="i" glyph-name="i" horiz-adv-x="192" d="M135 0H57V372H135V0ZM47 482Q47 502 61 516T97 531Q117 531 131 517T146 482Q146 461 132 447T97 432Q76 432 62 447Q47 461 47 482Z" />
<glyph unicode="j" glyph-name="j" horiz-adv-x="192" d="M57 372H135V-20Q135 -78 101 -113T15 -148Q-37 -148 -77 -111L-41 -53Q-16 -76 8 -76Q57 -76 57 -18V372ZM46 482Q46 502 60 516T95 531T130 517T145 482Q145 461 130 447T95 432T60 447Q46 460 46 482Z" />
<glyph unicode="k" glyph-name="k" horiz-adv-x="407" d="M135 0H57V519H135V214L286 372H387L246 225L398 0H302L192 163L135 106V0Z" />
<glyph unicode="l" glyph-name="l" horiz-adv-x="192" d="M135 0H57V519H135V0Z" />
<glyph unicode="m" glyph-name="m" horiz-adv-x="710" d="M135 0H57V372H135V305Q152 339 186 358T259 378Q348 378 379 305Q434 378 517 378Q581 378 619 339T657 228V0H579V204Q579 307 493 307Q451 307 423 281T393 207V0H314V204Q314 257 295 282T236 307Q193
307 164 280T135 202V0Z" />
<glyph unicode="n" glyph-name="n" horiz-adv-x="452" d="M135 0H57V372H135V305Q154 339 187 358T259 378Q324 378 362 339T400 228V0H321V204Q321 307 236 307Q193 307 164 280T135 202V0Z" />
<glyph unicode="o" glyph-name="o" horiz-adv-x="456" d="M228 64Q279 64 312 98T346 186T313 274T228 308T144 274T111 186T144 99Q177 64 228 64ZM228 -6Q144 -6 88 49T32 186T88 322T228 378T368 323T424 186Q424 108 368 50Q312 -6 228 -6Z" />
<glyph unicode="p" glyph-name="p" horiz-adv-x="470" d="M438 188Q438 104 386 49T262 -6Q191 -6 135 56V-136H57V372H135V307Q182 378 256 378Q333 378 385 325T438 188ZM244 64Q292 64 325 98T359 186T326 274T245 309T166 274T134 186Q134 133 166 99T244 64Z" />
<glyph unicode="q" glyph-name="q" horiz-adv-x="470" d="M33 188Q33 273 85 325T214 378Q290 378 335 307V372H414V-136H335V56Q279 -6 209 -6Q137 -6 85 49T33 188ZM226 64Q273 64 305 98T337 186Q337 238 305 273T225 309T145 274T111 186T145 99T226 64Z" />
<glyph unicode="r" glyph-name="r" horiz-adv-x="278" d="M135 160V0H57V372H135V298Q154 333 186 355T255 378L256 299H252Q195 299 165 262T135 160Z" />
<glyph unicode="s" glyph-name="s" horiz-adv-x="354" d="M185 -6Q95 -6 23 50L61 111Q125 62 187 62Q213 62 228 74T244 106Q244 134 170 156Q168 157 166 158T162 159Q46 190 46 264Q46 316 85 347T190 378Q254 378 312 340L283 282Q238 312 184 312Q121 312
121 272Q121 255 133 248T175 233Q219 221 249 209Q269 200 284 190Q322 164 322 111Q322 59 284 27T185 -6Z" />
<glyph unicode="t" glyph-name="t" horiz-adv-x="293" d="M153 309V120Q153 93 167 78T207 62Q230 62 255 87L287 31Q245 -6 196 -6Q145 -6 110 29T75 122V309H28V372H75V489H153V372H251V309H153Z" />
<glyph unicode="u" glyph-name="u" horiz-adv-x="452" d="M317 372H396V0H317V68Q298 34 265 14T193 -6Q129 -6 91 33T53 144V372H131V168Q131 65 216 65Q259 65 288 93T317 171V372Z" />
<glyph unicode="v" glyph-name="v" horiz-adv-x="400" d="M155 0L6 372H87L200 91L314 372H395L245 0H155Z" />
<glyph unicode="w" glyph-name="w" horiz-adv-x="638" d="M231 0H141L13 372H94L186 91L279 372H360L452 91L545 372H626L497 0H407L319 255L231 0Z" />
<glyph unicode="x" glyph-name="x" horiz-adv-x="391" d="M116 372L196 250L279 372H372L241 190L377 0H281L192 124L105 0H13L146 190L20 372H116Z" />
<glyph unicode="y" glyph-name="y" horiz-adv-x="402" d="M11 -111L47 -48Q72 -71 98 -71Q123 -71 140 -53T157 -11Q157 -2 6 372H90L202 98L313 372H397L216 -70Q200 -106 170 -127T104 -148Q52 -148 11 -111Z" />
<glyph unicode="z" glyph-name="z" horiz-adv-x="379" d="M45 304V371H336V300L127 68H347V0H31V76L234 304H45Z" />
<glyph unicode="{" glyph-name="leftcurly" horiz-adv-x="374" />
<glyph unicode="|" glyph-name="bar" horiz-adv-x="180" d="M61 -107V547H119V-107H61Z" />
<glyph unicode="}" glyph-name="rightcurly" horiz-adv-x="374" />
<glyph unicode="~" glyph-name="asciitilde" horiz-adv-x="396" d="M96 214L35 231Q39 279 64 304T130 330Q161 330 214 301Q249 283 266 283Q293 283 299 328L361 311Q357 263 332 237T265 211Q235 211 181 241Q146 259 129 259Q100 259 96 214Z" />
</font>
</defs>
</svg>
