<svg width="14" height="19" viewBox="0 0 14 19" fill="none" xmlns="http://www.w3.org/2000/svg">
<path d="M7.00006 12C6.16673 12 5.45839 11.7083 4.87506 11.125C4.29173 10.5417 4.00006 9.83333 4.00006 9V3C4.00006 2.16667 4.29173 1.45833 4.87506 0.875C5.45839 0.291667 6.16673 0 7.00006 0C7.83339 0 8.54173 0.291667 9.12506 0.875C9.70839 1.45833 10.0001 2.16667 10.0001 3V9C10.0001 9.83333 9.70839 10.5417 9.12506 11.125C8.54173 11.7083 7.83339 12 7.00006 12ZM7.00006 19C6.71673 19 6.47939 18.904 6.28806 18.712C6.09606 18.5207 6.00006 18.2833 6.00006 18V15.9C4.45006 15.7 3.13339 15.0583 2.05006 13.975C0.966726 12.8917 0.308392 11.5917 0.0750586 10.075C0.0250586 9.79167 0.100059 9.54167 0.300059 9.325C0.500059 9.10833 0.766725 9 1.10006 9C1.33339 9 1.54173 9.08733 1.72506 9.262C1.90839 9.43733 2.02506 9.65 2.07506 9.9C2.29173 11.0667 2.85839 12.0417 3.77506 12.825C4.69172 13.6083 5.76673 14 7.00006 14C8.23339 14 9.30839 13.6083 10.2251 12.825C11.1417 12.0417 11.7084 11.0667 11.9251 9.9C11.9751 9.65 12.0961 9.43733 12.2881 9.262C12.4794 9.08733 12.6917 9 12.9251 9C13.2417 9 13.5001 9.10833 13.7001 9.325C13.9001 9.54167 13.9751 9.79167 13.9251 10.075C13.6917 11.5917 13.0334 12.8917 11.9501 13.975C10.8667 15.0583 9.55006 15.7 8.00006 15.9V18C8.00006 18.2833 7.90439 18.5207 7.71306 18.712C7.52106 18.904 7.28339 19 7.00006 19Z" fill="white"/>
</svg>
