<svg width="16" height="11" viewBox="0 0 16 11" fill="none" xmlns="http://www.w3.org/2000/svg">
<path d="M8.22915 2.49275C8.5037 2.49709 8.77621 2.54125 9.03839 2.62388C8.91711 2.83982 8.85254 3.08363 8.85084 3.33203C8.85084 3.52491 8.88836 3.7159 8.96126 3.8941C9.03417 4.07229 9.14102 4.23421 9.27572 4.37059C9.41042 4.50698 9.57034 4.61517 9.74633 4.68898C9.92233 4.76279 10.111 4.80078 10.3015 4.80078C10.5468 4.79906 10.7876 4.73368 11.0009 4.61089C11.1691 5.20175 11.1495 5.83123 10.9448 6.41017C10.7401 6.98912 10.3607 7.48817 9.86027 7.83665C9.35987 8.18512 8.76387 8.36536 8.15668 8.35181C7.54949 8.33827 6.9619 8.13163 6.47715 7.76118C5.99239 7.39073 5.63504 6.87524 5.45571 6.28773C5.27639 5.70022 5.28418 5.07047 5.47798 4.48769C5.67178 3.90491 6.04177 3.39865 6.53553 3.0406C7.0293 2.68256 7.62182 2.49089 8.22915 2.49275ZM0.858977 5.04732C2.26374 2.27217 5.04479 0.394531 8.22915 0.394531C11.4135 0.394531 14.1953 2.27348 15.5993 5.04758C15.6586 5.16627 15.6895 5.29739 15.6895 5.43038C15.6895 5.56336 15.6586 5.69449 15.5993 5.81317C14.1946 8.58832 11.4135 10.466 8.22915 10.466C5.04479 10.466 2.26297 8.58701 0.858977 5.81291C0.79972 5.69423 0.768847 5.5631 0.768847 5.43011C0.768847 5.29713 0.79972 5.166 0.858977 5.04732ZM8.22915 9.20703C10.7846 9.20703 13.1273 7.76451 14.3925 5.43025C13.1273 3.09598 10.7848 1.65346 8.22915 1.65346C5.67347 1.65346 3.33099 3.09598 2.06584 5.43025C3.33073 7.76451 5.67347 9.20703 8.22915 9.20703Z" fill="white"/>
</svg>
