<svg width="20" height="16" viewBox="0 0 20 16" fill="none" xmlns="http://www.w3.org/2000/svg">
<path d="M4 12H12V11.45C12 10.4667 11.5293 9.81267 10.588 9.488C9.646 9.16267 8.78333 9 8 9C7.21667 9 6.35433 9.16267 5.413 9.488C4.471 9.81267 4 10.4667 4 11.45V12ZM8 8C8.55 8 9.021 7.804 9.413 7.412C9.80433 7.02067 10 6.55 10 6C10 5.45 9.80433 4.979 9.413 4.587C9.021 4.19567 8.55 4 8 4C7.45 4 6.97933 4.19567 6.588 4.587C6.196 4.979 6 5.45 6 6C6 6.55 6.196 7.02067 6.588 7.412C6.97933 7.804 7.45 8 8 8ZM2 16C1.45 16 0.979333 15.8043 0.588 15.413C0.196 15.021 0 14.55 0 14V2C0 1.45 0.196 0.979333 0.588 0.588C0.979333 0.196 1.45 0 2 0H14C14.55 0 15.021 0.196 15.413 0.588C15.8043 0.979333 16 1.45 16 2V6.5L19.15 3.35C19.3 3.2 19.4793 3.16233 19.688 3.237C19.896 3.31233 20 3.46667 20 3.7V12.3C20 12.5333 19.896 12.6873 19.688 12.762C19.4793 12.8373 19.3 12.8 19.15 12.65L16 9.5V14C16 14.55 15.8043 15.021 15.413 15.413C15.021 15.8043 14.55 16 14 16H2Z" fill="white"/>
</svg>
