<svg width="32" height="37" viewBox="0 0 32 37" fill="none" xmlns="http://www.w3.org/2000/svg">
<path d="M25.9729 35.5155C23.9587 37.4681 21.7596 37.1598 19.6426 36.2349C17.4024 35.2894 15.3471 35.2483 12.9835 36.2349C10.0238 37.5092 8.46181 37.1392 6.69426 35.5155C-3.33558 25.1774 -1.85577 9.43381 9.53057 8.85833C12.3052 9.0022 14.2372 10.3792 15.8609 10.5026C18.2861 10.0093 20.6086 8.59114 23.1983 8.77611C26.3018 9.02275 28.6448 10.2559 30.1863 12.4756C23.7738 16.3191 25.2947 24.7663 31.1728 27.1299C30.0013 30.2129 28.4804 33.2752 25.9524 35.5361L25.9729 35.5155ZM15.6553 8.73501C15.3471 4.1517 19.0671 0.369953 23.3422 0C23.9382 5.30266 18.5328 9.24883 15.6553 8.73501Z" fill="black"/>
</svg>
