<svg width="17" height="17" viewBox="0 0 17 17" fill="none" xmlns="http://www.w3.org/2000/svg">
<g clip-path="url(#clip0_1184_12840)">
<path d="M12.7493 16.2917H15.5827C15.7705 16.2917 15.9507 16.217 16.0835 16.0842C16.2164 15.9514 16.291 15.7712 16.291 15.5833V11.3333C16.291 11.1455 16.2164 10.9653 16.0835 10.8325C15.9507 10.6996 15.7705 10.625 15.5827 10.625H12.7493C12.5615 10.625 12.3813 10.6996 12.2485 10.8325C12.1156 10.9653 12.041 11.1455 12.041 11.3333V15.5833C12.041 15.7712 12.1156 15.9514 12.2485 16.0842C12.3813 16.217 12.5615 16.2917 12.7493 16.2917Z" fill="#8787DE"/>
<path d="M7.08333 16.2917H9.91667C10.1045 16.2917 10.2847 16.217 10.4175 16.0842C10.5504 15.9514 10.625 15.7712 10.625 15.5833V7.08333C10.625 6.89547 10.5504 6.7153 10.4175 6.58247C10.2847 6.44963 10.1045 6.375 9.91667 6.375H7.08333C6.89547 6.375 6.7153 6.44963 6.58247 6.58247C6.44963 6.7153 6.375 6.89547 6.375 7.08333V15.5833C6.375 15.7712 6.44963 15.9514 6.58247 16.0842C6.7153 16.217 6.89547 16.2917 7.08333 16.2917Z" fill="#8381FD"/>
<path d="M1.41732 16.2923H4.25065C4.43851 16.2923 4.61868 16.2177 4.75152 16.0849C4.88436 15.952 4.95898 15.7718 4.95898 15.584V1.41732C4.95898 1.22946 4.88436 1.04929 4.75152 0.91645C4.61868 0.783612 4.43851 0.708984 4.25065 0.708984H1.41732C1.22946 0.708984 1.04929 0.783612 0.91645 0.91645C0.783612 1.04929 0.708984 1.22946 0.708984 1.41732V15.584C0.708984 15.7718 0.783612 15.952 0.91645 16.0849C1.04929 16.2177 1.22946 16.2923 1.41732 16.2923Z" fill="#4C4AF1"/>
</g>
<defs>
<clipPath id="clip0_1184_12840">
<rect width="17" height="17" fill="white" transform="matrix(-1 0 0 1 17 0)"/>
</clipPath>
</defs>
</svg>
