<svg width="25" height="26" viewBox="0 0 25 26" fill="none" xmlns="http://www.w3.org/2000/svg">
<path d="M9.56088 0.231445C8.33497 0.231318 7.12103 0.478187 5.9884 0.957957C4.85576 1.43773 3.82661 2.141 2.95972 3.02762C2.09282 3.91424 1.40515 4.96683 0.935986 6.1253C0.46682 7.28377 0.225342 8.52542 0.225342 9.77935C0.225217 11.0334 0.466603 12.2751 0.935713 13.4337C1.40482 14.5923 2.09247 15.645 2.95938 16.5317C3.82629 17.4184 4.85548 18.1218 5.98818 18.6016C7.12088 19.0815 8.33489 19.3284 9.56088 19.3282C11.7395 19.3282 13.7401 18.5391 15.3289 17.2604L16.1613 18.1119C15.9904 18.4516 15.9299 18.8382 15.9885 19.2155C16.0472 19.5928 16.2221 19.9412 16.4876 20.2098L20.8581 24.7104C21.5364 25.4051 22.6466 25.4051 23.3259 24.7104L24.1583 23.8589C24.4842 23.5235 24.6671 23.0697 24.6671 22.5968C24.6671 22.1239 24.4842 21.6702 24.1583 21.3347L19.7583 16.8644C19.4938 16.5946 19.1512 16.4193 18.7815 16.3646C18.4118 16.3099 18.0347 16.3787 17.7063 16.5608L16.8739 15.7093C17.9635 14.3029 18.6436 12.6108 18.8361 10.8272C19.0286 9.04355 18.7258 7.2405 17.9625 5.6248C17.1991 4.00909 16.006 2.64614 14.52 1.69222C13.034 0.738297 11.3153 0.232023 9.56088 0.231445ZM9.56088 1.99467C11.5794 1.99467 13.5152 2.81484 14.9425 4.27475C16.3698 5.73466 17.1716 7.71473 17.1716 9.77935C17.1716 11.844 16.3698 13.824 14.9425 15.2839C13.5152 16.7439 11.5794 17.564 9.56088 17.564C7.54239 17.564 5.60656 16.7439 4.17927 15.2839C2.75197 13.824 1.95013 11.844 1.95013 9.77935C1.95013 7.71473 2.75197 5.73466 4.17927 4.27475C5.60656 2.81484 7.54239 1.99467 9.56088 1.99467ZM4.74423 7.31647C4.23681 8.15713 3.96925 9.12613 3.97174 10.1141C3.97061 10.8133 4.10442 11.5058 4.36549 12.152C4.62656 12.7982 5.00976 13.3853 5.49312 13.8797C5.97648 14.3741 6.55049 14.7661 7.18224 15.0331C7.81399 15.3002 8.49107 15.437 9.17464 15.4359C10.2493 15.4336 11.2973 15.094 12.1771 14.4628C11.9399 14.4853 11.7017 14.495 11.4636 14.492C10.5806 14.4943 9.70593 14.3181 8.88974 13.9736C8.07355 13.6291 7.33197 13.123 6.70758 12.4845C6.08319 11.8459 5.58832 11.0874 5.25138 10.2527C4.91445 9.41786 4.74209 8.5232 4.74423 7.62008C4.74423 7.51888 4.73947 7.41767 4.74423 7.31647Z" fill="#B8D3F2"/>
</svg>
