<svg width="25" height="25" viewBox="0 0 25 25" fill="none" xmlns="http://www.w3.org/2000/svg">
<path d="M19.6429 8.03613H5.35716C4.37093 8.03613 3.57144 8.83562 3.57144 9.82185V18.7504C3.57144 19.7366 4.37093 20.5361 5.35716 20.5361H19.6429C20.6291 20.5361 21.4286 19.7366 21.4286 18.7504V9.82185C21.4286 8.83562 20.6291 8.03613 19.6429 8.03613Z" stroke="black" stroke-width="2" stroke-linecap="round" stroke-linejoin="round"/>
<path d="M16.0714 20.5353V6.24958C16.0714 5.77598 15.8833 5.32178 15.5484 4.98689C15.2135 4.652 14.7593 4.46387 14.2857 4.46387H10.7143C10.2407 4.46387 9.7865 4.652 9.45161 4.98689C9.11673 5.32178 8.92859 5.77598 8.92859 6.24958V20.5353" stroke="black" stroke-width="2" stroke-linecap="round" stroke-linejoin="round"/>
</svg>
