<svg width="21" height="20" viewBox="0 0 21 20" fill="none" xmlns="http://www.w3.org/2000/svg">
<path fill-rule="evenodd" clip-rule="evenodd" d="M12.3523 1.66797H5.68561V3.3345C5.68561 3.48183 5.62707 3.62313 5.52288 3.72731C5.4187 3.83148 5.27739 3.89001 5.13004 3.89001C4.9827 3.89001 4.84139 3.83148 4.7372 3.72731C4.63301 3.62313 4.57448 3.48183 4.57448 3.3345V1.66797H1.79667C1.50198 1.66797 1.21936 1.78502 1.01099 1.99338C0.802611 2.20174 0.685547 2.48433 0.685547 2.77899V5.55654C0.685547 5.85121 0.802611 6.1338 1.01099 6.34215C1.21936 6.55051 1.50198 6.66757 1.79667 6.66757H15.1302C15.4248 6.66757 15.7075 6.55051 15.9158 6.34215C16.1242 6.1338 16.2413 5.85121 16.2413 5.55654V2.77899C16.2413 2.48433 16.1242 2.20174 15.9158 1.99338C15.7075 1.78502 15.4248 1.66797 15.1302 1.66797H13.4635V3.3345C13.4635 3.48183 13.4049 3.62313 13.3008 3.72731C13.1966 3.83148 13.0553 3.89001 12.9079 3.89001C12.7606 3.89001 12.6193 3.83148 12.5151 3.72731C12.4109 3.62313 12.3523 3.48183 12.3523 3.3345V1.66797Z" fill="black"/>
<path fill-rule="evenodd" clip-rule="evenodd" d="M16.796 6.66571H1.24023V5.55469H16.796V6.66571Z" fill="black"/>
<path d="M3.46094 0.555511C3.46094 0.40818 3.51947 0.266884 3.62366 0.162705C3.72785 0.058527 3.86916 0 4.0165 0C4.16384 0 4.30515 0.058527 4.40934 0.162705C4.51353 0.266884 4.57206 0.40818 4.57206 0.555511V2.77755C4.57206 2.92488 4.51353 3.06618 4.40934 3.17036C4.30515 3.27454 4.16384 3.33306 4.0165 3.33306C3.86916 3.33306 3.72785 3.27454 3.62366 3.17036C3.51947 3.06618 3.46094 2.92488 3.46094 2.77755V0.555511ZM11.2388 0.555511C11.2388 0.40818 11.2973 0.266884 11.4015 0.162705C11.5057 0.058527 11.647 0 11.7944 0C11.9417 0 12.083 0.058527 12.1872 0.162705C12.2914 0.266884 12.3499 0.40818 12.3499 0.555511V2.77755C12.3499 2.92488 12.2914 3.06618 12.1872 3.17036C12.083 3.27454 11.9417 3.33306 11.7944 3.33306C11.647 3.33306 11.5057 3.27454 11.4015 3.17036C11.2973 3.06618 11.2388 2.92488 11.2388 2.77755V0.555511Z" fill="black"/>
<path fill-rule="evenodd" clip-rule="evenodd" d="M16.24 18.8888C16.9767 18.8888 17.6833 18.5962 18.2042 18.0753C18.7252 17.5544 19.0178 16.8479 19.0178 16.1112C19.0178 15.3746 18.7252 14.6681 18.2042 14.1472C17.6833 13.6263 16.9767 13.3337 16.24 13.3337C15.5033 13.3337 14.7967 13.6263 14.2758 14.1472C13.7549 14.6681 13.4622 15.3746 13.4622 16.1112C13.4622 16.8479 13.7549 17.5544 14.2758 18.0753C14.7967 18.5962 15.5033 18.8888 16.24 18.8888ZM16.24 19.9998C17.2714 19.9998 18.2606 19.5901 18.9899 18.8609C19.7192 18.1316 20.1289 17.1425 20.1289 16.1112C20.1289 15.0799 19.7192 14.0908 18.9899 13.3616C18.2606 12.6323 17.2714 12.2227 16.24 12.2227C15.2086 12.2227 14.2194 12.6323 13.4901 13.3616C12.7608 14.0908 12.3511 15.0799 12.3511 16.1112C12.3511 17.1425 12.7608 18.1316 13.4901 18.8609C14.2194 19.5901 15.2086 19.9998 16.24 19.9998Z" fill="black"/>
<path fill-rule="evenodd" clip-rule="evenodd" d="M16.2411 14.1649C16.3884 14.1649 16.5298 14.2234 16.6339 14.3276C16.7381 14.4318 16.7967 14.5731 16.7967 14.7204V15.8792L17.1894 16.2719C17.2906 16.3767 17.3466 16.517 17.3454 16.6627C17.3441 16.8083 17.2857 16.9477 17.1827 17.0507C17.0797 17.1537 16.9403 17.2121 16.7947 17.2134C16.649 17.2146 16.5087 17.1586 16.4039 17.0574L15.6855 16.3392V14.7204C15.6855 14.5731 15.7441 14.4318 15.8483 14.3276C15.9524 14.2234 16.0938 14.1649 16.2411 14.1649ZM4.5743 9.44305H3.46317V10.5541H4.5743V9.44305ZM3.46317 8.33203C3.16849 8.33203 2.88587 8.44909 2.67749 8.65744C2.46912 8.8658 2.35205 9.14839 2.35205 9.44305V10.5541C2.35205 10.8487 2.46912 11.1313 2.67749 11.3397C2.88587 11.548 3.16849 11.6651 3.46317 11.6651H4.5743C4.86899 11.6651 5.15161 11.548 5.35998 11.3397C5.56836 11.1313 5.68542 10.8487 5.68542 10.5541V9.44305C5.68542 9.14839 5.56836 8.8658 5.35998 8.65744C5.15161 8.44909 4.86899 8.33203 4.5743 8.33203H3.46317ZM9.0188 9.44305H7.90767V10.5541H9.0188V9.44305ZM7.90767 8.33203C7.61298 8.33203 7.33036 8.44909 7.12199 8.65744C6.91361 8.8658 6.79655 9.14839 6.79655 9.44305V10.5541C6.79655 10.8487 6.91361 11.1313 7.12199 11.3397C7.33036 11.548 7.61298 11.6651 7.90767 11.6651H9.0188C9.31348 11.6651 9.5961 11.548 9.80448 11.3397C10.0129 11.1313 10.1299 10.8487 10.1299 10.5541V9.44305C10.1299 9.14839 10.0129 8.8658 9.80448 8.65744C9.5961 8.44909 9.31348 8.33203 9.0188 8.33203H7.90767ZM13.4633 9.44305H12.3522V10.5541H13.4633V9.44305ZM12.3522 8.33203C12.0575 8.33203 11.7749 8.44909 11.5665 8.65744C11.3581 8.8658 11.241 9.14839 11.241 9.44305V10.5541C11.241 10.8487 11.3581 11.1313 11.5665 11.3397C11.7749 11.548 12.0575 11.6651 12.3522 11.6651H13.4633C13.758 11.6651 14.0406 11.548 14.249 11.3397C14.4574 11.1313 14.5744 10.8487 14.5744 10.5541V9.44305C14.5744 9.14839 14.4574 8.8658 14.249 8.65744C14.0406 8.44909 13.758 8.33203 13.4633 8.33203H12.3522ZM4.5743 13.8871H3.46317V14.9982H4.5743V13.8871ZM3.46317 12.7761C3.16849 12.7761 2.88587 12.8932 2.67749 13.1015C2.46912 13.3099 2.35205 13.5925 2.35205 13.8871V14.9982C2.35205 15.2928 2.46912 15.5754 2.67749 15.7838C2.88587 15.9921 3.16849 16.1092 3.46317 16.1092H4.5743C4.86899 16.1092 5.15161 15.9921 5.35998 15.7838C5.56836 15.5754 5.68542 15.2928 5.68542 14.9982V13.8871C5.68542 13.5925 5.56836 13.3099 5.35998 13.1015C5.15161 12.8932 4.86899 12.7761 4.5743 12.7761H3.46317ZM9.0188 13.8871H7.90767V14.9982H9.0188V13.8871ZM7.90767 12.7761C7.61298 12.7761 7.33036 12.8932 7.12199 13.1015C6.91361 13.3099 6.79655 13.5925 6.79655 13.8871V14.9982C6.79655 15.2928 6.91361 15.5754 7.12199 15.7838C7.33036 15.9921 7.61298 16.1092 7.90767 16.1092H9.0188C9.31348 16.1092 9.5961 15.9921 9.80448 15.7838C10.0129 15.5754 10.1299 15.2928 10.1299 14.9982V13.8871C10.1299 13.5925 10.0129 13.3099 9.80448 13.1015C9.5961 12.8932 9.31348 12.7761 9.0188 12.7761H7.90767Z" fill="black"/>
<path fill-rule="evenodd" clip-rule="evenodd" d="M1.24003 3.3345C1.24003 3.18717 1.29856 3.04587 1.40275 2.9417C1.50694 2.83752 1.64825 2.77899 1.79559 2.77899H4.5734V1.66797H1.79559C1.35356 1.66797 0.929632 1.84355 0.617067 2.15608C0.304503 2.46862 0.128906 2.89251 0.128906 3.3345V16.6668C0.128906 17.1087 0.304503 17.5326 0.617067 17.8452C0.929632 18.1577 1.35356 18.3333 1.79559 18.3333H13.0485C12.8116 17.994 12.6306 17.6189 12.5124 17.2223H1.79559C1.64825 17.2223 1.50694 17.1637 1.40275 17.0596C1.29856 16.9554 1.24003 16.8141 1.24003 16.6668V3.3345ZM15.6846 12.2616C16.0531 12.2089 16.4273 12.2089 16.7958 12.2616V3.3345C16.7958 2.89251 16.6202 2.46862 16.3076 2.15608C15.995 1.84355 15.5711 1.66797 15.1291 1.66797H13.4624V2.77899H15.1291C15.2764 2.77899 15.4177 2.83752 15.5219 2.9417C15.6261 3.04587 15.6846 3.18717 15.6846 3.3345V12.2616ZM5.68453 2.77899H11.5529V1.66797H5.68453V2.77899Z" fill="black"/>
</svg>
