<svg width="42" height="43" viewBox="0 0 42 43" fill="none" xmlns="http://www.w3.org/2000/svg">
<g clip-path="url(#clip0_11502_1716)">
<path d="M36.4391 16.1971L36.4914 16.147L38.8462 13.9612C38.9779 13.839 39.0823 13.694 39.1535 13.5343C39.2247 13.3747 39.2614 13.2036 39.2614 13.0307C39.2614 12.8579 39.2247 12.6868 39.1535 12.5272C39.0823 12.3675 38.9779 12.2225 38.8462 12.1003L36.8377 10.2352C36.7061 10.113 36.5499 10.0161 36.3779 9.94995C36.206 9.88381 36.0217 9.84977 35.8356 9.84977C35.6495 9.84977 35.4652 9.88381 35.2933 9.94995C35.1213 10.0161 34.9651 10.113 34.8335 10.2352L32.6478 12.2647C30.1122 10.3296 27.0629 9.06314 23.8191 8.59799V5.76095H26.6531C27.0289 5.76095 27.3893 5.62233 27.6551 5.37558C27.9208 5.12884 28.0701 4.79418 28.0701 4.44523V1.81377C28.0701 1.46482 27.9208 1.13016 27.6551 0.883414C27.3893 0.636668 27.0289 0.498047 26.6531 0.498047L15.3172 0.498047C14.9418 0.499131 14.582 0.6381 14.3166 0.884612C14.0511 1.13112 13.9014 1.46515 13.9002 1.81377V4.44523C13.9014 4.79384 14.0511 5.12787 14.3166 5.37439C14.582 5.6209 14.9418 5.75987 15.3172 5.76095H18.1512V8.59799C13.9055 9.21031 10.0241 11.182 7.17902 14.1715C4.33394 17.1611 2.70432 20.9804 2.57235 24.9681C2.26681 34.3369 10.6022 42.4549 20.6947 42.6013C31.0041 42.7468 39.4059 35.0359 39.4059 25.4968C39.4143 22.1947 38.3831 18.9623 36.4391 16.1971ZM19.2467 31.5451C19.4392 31.5424 19.6249 31.6108 19.763 31.7353C19.9012 31.8597 19.9805 32.03 19.9835 32.2087V34.0433C19.9805 34.222 19.9012 34.3923 19.763 34.5167C19.6249 34.6411 19.4392 34.7096 19.2467 34.7069H11.9094C11.7079 34.7091 11.5081 34.6724 11.3226 34.5993C11.1371 34.5261 10.97 34.4181 10.8318 34.2819C10.6935 34.1458 10.5872 33.9845 10.5195 33.8082C10.4518 33.632 10.4242 33.4446 10.4384 33.258C10.6846 30.3617 11.7376 28.537 13.8436 25.7444C15.652 23.344 16.2436 22.6754 16.2436 20.618C16.2436 19.2266 16.0851 18.6222 15.1622 18.6222C14.3307 18.6222 14.0384 19.2307 14.0384 20.4872V20.9173C14.0369 21.0058 14.0166 21.0933 13.9787 21.1745C13.9409 21.2558 13.8861 21.3294 13.8176 21.391C13.7491 21.4526 13.6682 21.5011 13.5795 21.5337C13.4908 21.5663 13.3961 21.5823 13.3007 21.5809H11.0955C11.0001 21.5823 10.9054 21.5663 10.8167 21.5337C10.728 21.5011 10.6471 21.4526 10.5786 21.391C10.5101 21.3294 10.4553 21.2558 10.4174 21.1745C10.3796 21.0933 10.3593 21.0058 10.3578 20.9173V20.5826C10.3578 18.3376 11.1088 15.6289 15.3553 15.6289C19.1635 15.6289 20.2767 17.7546 20.2767 20.6451C20.2767 23.5709 19.175 24.8562 17.2346 27.3315C16.2108 28.565 15.0551 30.2565 14.8957 31.5418L19.2467 31.5451ZM31.6125 29.4703C31.6125 32.3616 30.5232 34.7069 26.5442 34.7069C22.6847 34.7069 21.6937 32.2794 21.6937 29.4892V20.8277C21.6937 17.4783 23.4277 15.6289 26.6708 15.6289C29.9299 15.6289 31.6125 17.4906 31.6125 20.6698V29.4703ZM26.6416 18.7315C25.8082 18.7315 25.4699 19.3483 25.4699 20.3762V29.9111C25.4699 30.9892 25.7879 31.6043 26.6416 31.6043C27.4953 31.6043 27.7929 30.9464 27.7929 29.8552V20.3211C27.7947 19.3943 27.5281 18.7315 26.6416 18.7315Z" fill="white"/>
</g>
<defs>
<clipPath id="clip0_11502_1716">
<rect width="40.7891" height="42.1053" fill="white" transform="translate(0.825684 0.630859)"/>
</clipPath>
</defs>
</svg>
