<svg width="28" height="32" viewBox="0 0 28 32" fill="none" xmlns="http://www.w3.org/2000/svg">
<path d="M25.5606 11.8297L25.6003 11.7916L27.39 10.1304C27.49 10.0376 27.5694 9.92734 27.6235 9.80601C27.6777 9.68467 27.7055 9.55463 27.7055 9.42329C27.7055 9.29196 27.6777 9.16191 27.6235 9.04057C27.5694 8.91924 27.49 8.80899 27.39 8.71614L25.8635 7.29871C25.7635 7.20583 25.6447 7.13215 25.5141 7.08188C25.3834 7.03162 25.2433 7.00575 25.1019 7.00575C24.9605 7.00575 24.8204 7.03162 24.6897 7.08188C24.559 7.13215 24.4403 7.20583 24.3403 7.29871L22.6792 8.84113C20.7521 7.37042 18.4346 6.40791 15.9693 6.05439V3.89824H18.1231C18.4088 3.89824 18.6827 3.79289 18.8846 3.60537C19.0866 3.41784 19.2001 3.1635 19.2001 2.89829V0.898389C19.2001 0.633186 19.0866 0.378844 18.8846 0.191317C18.6827 0.00378928 18.4088 -0.101562 18.1231 -0.101562L9.50781 -0.101562C9.22247 -0.100738 8.94906 0.00487801 8.74729 0.192227C8.54552 0.379576 8.43178 0.633439 8.43089 0.898389V2.89829C8.43178 3.16324 8.54552 3.41711 8.74729 3.60446C8.94906 3.7918 9.22247 3.89742 9.50781 3.89824H11.6616V6.05439C8.43489 6.51976 5.48499 8.01821 3.32271 10.2903C1.16043 12.5624 -0.078082 15.465 -0.178383 18.4957C-0.410593 25.6159 5.92437 31.7857 13.5947 31.8969C21.4299 32.0075 27.8154 26.1472 27.8154 18.8975C27.8218 16.3879 27.038 13.9312 25.5606 11.8297ZM12.4942 23.4942C12.6405 23.4922 12.7816 23.5442 12.8866 23.6387C12.9916 23.7333 13.0519 23.8627 13.0542 23.9985V25.3928C13.0519 25.5286 12.9916 25.6581 12.8866 25.7526C12.7816 25.8472 12.6405 25.8992 12.4942 25.8972H6.91782C6.76468 25.8988 6.61283 25.871 6.47186 25.8154C6.33089 25.7598 6.20387 25.6777 6.09882 25.5742C5.99376 25.4707 5.91295 25.3481 5.86149 25.2142C5.81004 25.0802 5.78905 24.9378 5.79985 24.796C5.98696 22.5948 6.78725 21.208 8.38782 19.0856C9.76223 17.2614 10.2118 16.7533 10.2118 15.1896C10.2118 14.1321 10.0914 13.6728 9.39002 13.6728C8.75801 13.6728 8.53589 14.1353 8.53589 15.0902V15.4171C8.53475 15.4844 8.51934 15.5508 8.49055 15.6126C8.46175 15.6743 8.42014 15.7302 8.36807 15.7771C8.31601 15.8239 8.25451 15.8608 8.18711 15.8855C8.1197 15.9103 8.0477 15.9225 7.97522 15.9214H6.29927C6.22679 15.9225 6.15479 15.9103 6.08738 15.8855C6.01998 15.8608 5.95849 15.8239 5.90642 15.7771C5.85436 15.7302 5.81274 15.6743 5.78394 15.6126C5.75515 15.5508 5.73974 15.4844 5.7386 15.4171V15.1627C5.7386 13.4565 6.30937 11.3979 9.53675 11.3979C12.431 11.3979 13.277 13.0134 13.277 15.2102C13.277 17.4338 12.4397 18.4107 10.965 20.2918C10.1869 21.2293 9.30858 22.5148 9.18743 23.4917L12.4942 23.4942ZM21.8923 21.9174C21.8923 24.1148 21.0645 25.8972 18.0404 25.8972C15.1071 25.8972 14.3539 24.0523 14.3539 21.9318V15.3489C14.3539 12.8034 15.6718 11.3979 18.1366 11.3979C20.6135 11.3979 21.8923 12.8128 21.8923 15.2289V21.9174ZM18.1144 13.7559C17.481 13.7559 17.2239 14.2246 17.2239 15.0058V22.2524C17.2239 23.0717 17.4655 23.5392 18.1144 23.5392C18.7632 23.5392 18.9894 23.0392 18.9894 22.2099V14.964C18.9907 14.2596 18.7881 13.7559 18.1144 13.7559Z" fill="white"/>
</svg>
