<svg width="28" height="28" viewBox="0 0 28 28" fill="none" xmlns="http://www.w3.org/2000/svg">
<path d="M14.0001 5.5875H14C12.3362 5.5875 10.7097 6.08088 9.32627 7.00526C7.94284 7.92964 6.86459 9.24349 6.22787 10.7807C5.59114 12.3179 5.42455 14.0093 5.74915 15.6412C6.07375 17.2731 6.87496 18.772 8.05147 19.9485C9.22798 21.125 10.7269 21.9263 12.3588 22.2509C13.9907 22.5755 15.6821 22.4089 17.2193 21.7721C18.7565 21.1354 20.0704 20.0572 20.9947 18.6737C21.9191 17.2903 22.4125 15.6638 22.4125 14V13.9999C22.41 11.7695 21.523 9.63125 19.9459 8.05415C18.3688 6.47705 16.2305 5.58996 14.0001 5.5875ZM13.9999 21.3375C12.5487 21.3375 11.1301 20.9071 9.92351 20.1009C8.71686 19.2947 7.7764 18.1487 7.22104 16.8079C6.66568 15.4672 6.52037 13.9919 6.80349 12.5685C7.08661 11.1452 7.78544 9.83777 8.81161 8.8116C9.83778 7.78544 11.1452 7.08661 12.5685 6.80349C13.9919 6.52037 15.4672 6.66568 16.8079 7.22103C18.1487 7.77639 19.2947 8.71686 20.1009 9.9235C20.9071 11.1301 21.3375 12.5487 21.3375 13.9999C21.3353 15.9453 20.5616 17.8104 19.186 19.186C17.8104 20.5616 15.9453 21.3353 13.9999 21.3375Z" fill="black" stroke="black" stroke-width="0.2"/>
<path d="M5.7875 4.8125V4.7125H5.6875H4.8125H4.7125V4.8125V8.65H4.475V4.8125V4.7125H4.375H3.5H3.4V4.8125V8.65H3.1625V4.8125V4.7125H3.0625H2.1875H2.0875V4.8125V8.65H1.85V4.8125V4.7125H1.75H0.875H0.775V4.8125L0.775 11.375L0.775 11.3751C0.775356 11.6671 0.866035 11.9519 1.0346 12.1903C1.18943 12.4093 1.403 12.5794 1.65 12.6814V22.75C1.65 23.1246 1.79882 23.4839 2.06371 23.7488C2.32861 24.0137 2.68788 24.1625 3.0625 24.1625H3.5C3.87462 24.1625 4.23389 24.0137 4.49879 23.7488C4.76368 23.4839 4.9125 23.1246 4.9125 22.75V12.6814C5.1595 12.5794 5.37307 12.4093 5.5279 12.1903C5.69647 11.9519 5.78714 11.6671 5.7875 11.3751V11.375V9.1875V4.8125ZM26.6875 4.275L26.6874 4.275C25.617 4.27619 24.5907 4.70194 23.8338 5.45884C23.0769 6.21574 22.6512 7.24197 22.65 8.31239V8.3125V14C22.65 14.3746 22.7988 14.7339 23.0637 14.9988C23.3049 15.24 23.6244 15.385 23.9625 15.409V23.625C23.9625 23.7676 24.0191 23.9043 24.1199 24.0051C24.2207 24.1059 24.3574 24.1625 24.5 24.1625H26.6875C26.8301 24.1625 26.9668 24.1059 27.0676 24.0051C27.1684 23.9043 27.225 23.7676 27.225 23.625V4.8125C27.225 4.66995 27.1684 4.53323 27.0676 4.43243L26.9971 4.50295L27.0676 4.43243C26.9668 4.33163 26.8301 4.275 26.6875 4.275ZM23.9045 5.52955C23.1664 6.26772 22.7512 7.26857 22.75 8.3125L26.6875 4.375C25.6436 4.37616 24.6427 4.79137 23.9045 5.52955ZM4.7125 11.375C4.7125 11.4645 4.67694 11.5504 4.61365 11.6136C4.55036 11.6769 4.46451 11.7125 4.375 11.7125C4.23245 11.7125 4.09573 11.7691 3.99493 11.8699C3.89413 11.9707 3.8375 12.1074 3.8375 12.25V22.75C3.8375 22.8395 3.80194 22.9254 3.73865 22.9887C3.67536 23.0519 3.58951 23.0875 3.5 23.0875H3.0625C2.97299 23.0875 2.88714 23.0519 2.82385 22.9886C2.76056 22.9254 2.725 22.8395 2.725 22.75V12.25C2.725 12.1074 2.66837 11.9707 2.56757 11.8699C2.46677 11.7691 2.33005 11.7125 2.1875 11.7125C2.09799 11.7125 2.01215 11.6769 1.94885 11.6136C1.88556 11.5504 1.85 11.4645 1.85 11.375V9.725H4.7125V11.375ZM26.15 23.0875H25.0375V14.875C25.0375 14.7324 24.9809 14.5957 24.8801 14.4949C24.7793 14.3941 24.6426 14.3375 24.5 14.3375H24.0625C23.973 14.3375 23.8871 14.3019 23.8239 14.2386C23.7606 14.1754 23.725 14.0895 23.725 14V8.31262C23.7259 7.60042 23.9829 6.91229 24.4491 6.37388C24.89 5.86476 25.4901 5.52163 26.15 5.39898V23.0875Z" fill="black" stroke="black" stroke-width="0.2"/>
<path d="M25.0375 7V6.9H24.9375H24.0625H23.9625V7V13.5625V13.6625H24.0625H24.9375H25.0375V13.5625V7Z" fill="black" stroke="black" stroke-width="0.2"/>
<path d="M14.0001 9.525H14C13.1149 9.525 12.2497 9.78745 11.5138 10.2792C10.7779 10.7709 10.2043 11.4698 9.86564 12.2875C9.52694 13.1052 9.43832 14.005 9.61099 14.873C9.78366 15.7411 10.2099 16.5385 10.8357 17.1643C11.4615 17.7901 12.2589 18.2163 13.127 18.389C13.995 18.5617 14.8948 18.4731 15.7125 18.1344C16.5302 17.7957 17.2291 17.2221 17.7208 16.4862C18.2126 15.7503 18.475 14.8851 18.475 14V13.9999C18.4737 12.8135 18.0018 11.676 17.1629 10.8371C16.324 9.99818 15.1865 9.5263 14.0001 9.525ZM13.9999 17.4C13.3275 17.4 12.6702 17.2006 12.1111 16.827C11.5519 16.4534 11.1161 15.9224 10.8588 15.3011C10.6015 14.6799 10.5341 13.9962 10.6653 13.3367C10.7965 12.6772 11.1203 12.0713 11.5958 11.5958C12.0713 11.1203 12.6772 10.7965 13.3367 10.6653C13.9962 10.5341 14.6799 10.6015 15.3011 10.8588C15.9224 11.1161 16.4534 11.5519 16.827 12.1111C17.2006 12.6702 17.4 13.3275 17.4 13.9999C17.399 14.9013 17.0404 15.7656 16.403 16.403C15.7656 17.0404 14.9013 17.399 13.9999 17.4Z" fill="black" stroke="black" stroke-width="0.2"/>
</svg>
