<svg width="18" height="21" viewBox="0 0 18 21" fill="none" xmlns="http://www.w3.org/2000/svg">
<path fill-rule="evenodd" clip-rule="evenodd" d="M13.5019 4.16198C15.0904 5.08207 16.3605 6.46692 17.1422 8.13101C17.9238 9.7951 18.1796 11.659 17.8753 13.4729C17.571 15.2868 16.7211 16.9642 15.4395 18.2803C14.1579 19.5964 12.5057 20.4883 10.7044 20.8367C8.90312 21.185 7.03865 20.9731 5.3608 20.2294C3.68296 19.4856 2.27186 18.2455 1.31656 16.6751C0.361261 15.1048 -0.0926248 13.2792 0.0157116 11.443C0.124048 9.60684 0.789431 7.84768 1.92272 6.40123C2.18244 6.06992 2.6813 6.1202 2.94229 6.45151C3.29972 6.90529 3.70601 7.31782 4.15472 7.68136C4.58158 8.02814 5.16529 7.61819 5.14858 7.06772C5.10753 5.84031 5.35967 4.62084 5.88401 3.51096C6.57024 2.06243 7.68674 0.862335 9.08029 0.0753795C9.39786 -0.105101 9.78743 0.0547532 9.95072 0.382197C10.7374 1.96523 11.9728 3.28013 13.5019 4.16198ZM14.1447 13.266C14.1447 14.6336 13.6029 15.9452 12.6384 16.9122C11.6739 17.8793 10.3658 18.4225 9.00186 18.4225C6.54229 18.4225 4.47615 16.6203 3.97472 14.3205C3.85515 13.7674 4.54044 13.4916 5.02129 13.7881C5.64839 14.1737 6.35 14.4216 7.07972 14.5151C7.46929 14.5641 7.76243 14.2057 7.73544 13.8138C7.59408 11.8625 8.19855 9.93044 9.42615 8.40973C9.49122 8.32825 9.57715 8.26602 9.67474 8.22969C9.77234 8.19336 9.87795 8.1843 9.98029 8.20346C11.1526 8.4315 12.2092 9.06135 12.969 9.98502C13.7288 10.9087 14.1445 12.0686 14.1447 13.266Z" fill="url(#paint0_linear_2487_23890)"/>
<defs>
<linearGradient id="paint0_linear_2487_23890" x1="9" y1="3.5" x2="9.30974" y2="15.75" gradientUnits="userSpaceOnUse">
<stop stop-color="#FAFF00"/>
<stop offset="1" stop-color="#FF0000"/>
</linearGradient>
</defs>
</svg>
