<svg width="25" height="24" viewBox="0 0 25 24" fill="none" xmlns="http://www.w3.org/2000/svg">
<path d="M22.5868 14.826L19.445 12.8526L20.6546 10.7236C20.9464 10.192 21.0993 9.60032 21.1 8.99945V5.62445C21.1025 4.67547 20.8162 3.74646 20.2763 2.95151C19.7364 2.15656 18.9665 1.53027 18.061 1.14954C17.1555 0.768814 16.1539 0.650227 15.1792 0.80834C14.2045 0.966454 13.2991 1.39439 12.5742 2.03959L13.6361 3.14007C14.1384 2.69423 14.7653 2.39878 15.44 2.28995C16.1146 2.18112 16.8076 2.26363 17.4341 2.52737C18.0606 2.79112 18.5934 3.22463 18.967 3.77476C19.3406 4.32489 19.5389 4.96772 19.5375 5.62445V8.99945C19.5374 9.34933 19.4501 9.69411 19.2829 10.005L17.3827 13.3494L21.7312 16.081C22.0183 16.2614 22.2539 16.5077 22.4165 16.7977C22.5791 17.0877 22.6637 17.4121 22.6625 17.7414V20.2494H19.1469V21.7494H24.225V17.7414C24.2266 17.1629 24.0776 16.5931 23.7915 16.084C23.5054 15.5749 23.0912 15.1424 22.5868 14.826Z" fill="#7282FB" stroke="#7282FB" stroke-width="0.5"/>
<path d="M15.5538 16.325L12.412 14.3516L13.6216 12.2226C13.9134 11.691 14.0662 11.0993 14.067 10.4985V7.12347C14.066 5.82983 13.5305 4.58939 12.5781 3.67429C11.6256 2.75919 10.3339 2.24416 8.98633 2.24219C6.18765 2.24219 3.91079 4.43195 3.91079 7.12347V10.4985C3.90781 11.0991 4.05899 11.6911 4.35098 12.2223L5.56719 14.3628L2.4437 16.325C1.9398 16.641 1.52605 17.0727 1.24 17.581C0.953952 18.0893 0.804657 18.6582 0.805664 19.236L0.78125 23.2485H17.192V19.2404C17.1936 18.6619 17.0446 18.0922 16.7585 17.583C16.4723 17.0739 16.0582 16.6415 15.5538 16.325ZM15.6295 21.7485H2.35283L2.36797 19.2404C2.36679 18.911 2.45136 18.5866 2.61401 18.2967C2.77665 18.0067 3.01221 17.7604 3.29927 17.58L7.62944 14.8599L5.72266 11.504C5.55736 11.1927 5.47187 10.8479 5.47329 10.4985V7.12347C5.47329 6.22836 5.84369 5.36992 6.50299 4.73698C7.1623 4.10405 8.05651 3.74847 8.98892 3.74847C9.92132 3.74847 10.8155 4.10405 11.4748 4.73698C12.1341 5.36992 12.5045 6.22836 12.5045 7.12347V10.4985C12.5044 10.8484 12.4171 11.1931 12.2499 11.504L10.3497 14.8485L14.6982 17.5801C14.9853 17.7604 15.2208 18.0068 15.3835 18.2967C15.5461 18.5867 15.6307 18.9111 15.6295 19.2404V21.7485Z" fill="#7282FB" stroke="#7282FB" stroke-width="0.5"/>
</svg>
