<svg width="21" height="18" viewBox="0 0 21 18" fill="none" xmlns="http://www.w3.org/2000/svg">
<path d="M20.7816 6.697H14.97C14.8701 6.697 14.7883 6.77988 14.7883 6.88116V7.98612C14.7883 8.08741 14.8701 8.17028 14.97 8.17028H20.7816C20.8815 8.17028 20.9632 8.08741 20.9632 7.98612V6.88116C20.9632 6.77988 20.8815 6.697 20.7816 6.697ZM17.7396 9.82772H14.97C14.8701 9.82772 14.7883 9.91059 14.7883 10.0119V11.1168C14.7883 11.2181 14.8701 11.301 14.97 11.301H17.7396C17.8395 11.301 17.9212 11.2181 17.9212 11.1168V10.0119C17.9212 9.91059 17.8395 9.82772 17.7396 9.82772ZM10.164 4.63672H9.18102C9.04027 4.63672 8.92676 4.75182 8.92676 4.89454V10.6035C8.92676 10.6864 8.96535 10.7623 9.03119 10.8107L12.4115 13.3106C12.525 13.3935 12.6839 13.3705 12.7656 13.2554L13.3491 12.4474V12.4451C13.4308 12.33 13.4058 12.1688 13.2923 12.086L10.416 9.97735V4.89454C10.4183 4.75182 10.3025 4.63672 10.164 4.63672Z" fill="black"/>
<path d="M17.5992 12.7261H16.2871C16.1599 12.7261 16.0396 12.7929 15.9715 12.9034C15.6832 13.3661 15.3472 13.7943 14.9613 14.1856C14.2961 14.8601 13.522 15.3895 12.6616 15.7579C11.7694 16.14 10.8228 16.3334 9.84658 16.3334C8.86813 16.3334 7.92147 16.14 7.03156 15.7579C6.17117 15.3895 5.39704 14.8601 4.73188 14.1856C4.06672 13.5111 3.54458 12.7261 3.18135 11.8537C2.8045 10.9513 2.61381 9.99136 2.61381 8.9992C2.61381 8.00704 2.8045 7.04941 3.18135 6.14473C3.54458 5.27227 4.06672 4.48729 4.73188 3.81281C5.39704 3.13832 6.17117 2.60886 7.03156 2.24054C7.92147 1.85841 8.8704 1.66504 9.84658 1.66504C10.825 1.66504 11.7717 1.85841 12.6616 2.24054C13.522 2.60886 14.2961 3.13832 14.9613 3.81281C15.3472 4.20415 15.6832 4.63232 15.9715 5.09502C16.0396 5.20551 16.1599 5.27227 16.2871 5.27227H17.5992C17.7559 5.27227 17.8557 5.10653 17.7854 4.9661C16.3052 1.98042 13.3041 0.0398361 9.95328 0.000702169C5.04743 -0.0614517 0.972475 4.01078 0.963394 8.98078C0.954314 13.96 4.93393 18 9.84431 18C13.2382 18 16.2893 16.0525 17.7854 13.0323C17.8557 12.8919 17.7536 12.7261 17.5992 12.7261Z" fill="black"/>
</svg>
