<svg width="8" height="9" viewBox="0 0 8 9" fill="none" xmlns="http://www.w3.org/2000/svg">
<path d="M1.19256 1.09674L3.99963 3.90381L6.79216 1.11128C6.85384 1.04563 6.92815 0.993107 7.01063 0.956868C7.0931 0.920629 7.18204 0.901419 7.27212 0.900391C7.465 0.900391 7.64997 0.977008 7.78635 1.11339C7.92273 1.24977 7.99935 1.43474 7.99935 1.62761C8.00104 1.71677 7.9845 1.80533 7.95073 1.88787C7.91697 1.97041 7.86669 2.04517 7.803 2.10758L4.97411 4.9001L7.803 7.72899C7.92285 7.84625 7.99314 8.00503 7.99935 8.1726C7.99935 8.36547 7.92273 8.55044 7.78635 8.68682C7.64997 8.8232 7.465 8.89982 7.27212 8.89982C7.17944 8.90366 7.08698 8.88819 7.00059 8.85439C6.91421 8.82059 6.8358 8.76919 6.77034 8.70347L3.99963 5.8964L1.19983 8.69619C1.13839 8.75966 1.06498 8.81033 0.983851 8.84528C0.90272 8.88023 0.815472 8.89876 0.72714 8.89982C0.53427 8.89982 0.349298 8.8232 0.212918 8.68682C0.0765376 8.55044 -8.00406e-05 8.36547 -8.00406e-05 8.1726C-0.00177555 8.08344 0.0147665 7.99487 0.048531 7.91234C0.0822955 7.8298 0.13257 7.75504 0.196269 7.69263L3.02516 4.9001L0.196269 2.07122C0.0764126 1.95396 0.00613014 1.79517 -8.00406e-05 1.62761C-8.00406e-05 1.43474 0.0765376 1.24977 0.212918 1.11339C0.349298 0.977008 0.53427 0.900391 0.72714 0.900391C0.901673 0.902572 1.06893 0.973113 1.19256 1.09674Z" fill="#90AEF4"/>
</svg>
