<svg width="30" height="30" viewBox="0 0 30 30" fill="none" xmlns="http://www.w3.org/2000/svg">
<path d="M13.7501 19.2678V25.0003H16.2501V19.2678C16.2501 18.6103 15.9826 17.9653 15.5176 17.5003L13.0176 15.0003L16.2501 11.7678L18.7501 14.2678C19.2151 14.7328 19.8601 15.0003 20.5176 15.0003H25.0001V12.5003H20.5176L15.8838 7.8665C15.7678 7.75032 15.6301 7.65815 15.4784 7.59526C15.3268 7.53237 15.1642 7.5 15.0001 7.5C14.8359 7.5 14.6734 7.53237 14.5217 7.59526C14.3701 7.65815 14.2323 7.75032 14.1163 7.8665L10.0001 11.9828C9.52758 12.4553 9.26758 13.0828 9.26758 13.7503C9.26758 14.4178 9.52758 15.0453 10.0001 15.5178L13.7501 19.2678Z" fill="black"/>
<path d="M20 8.75C21.3807 8.75 22.5 7.63071 22.5 6.25C22.5 4.86929 21.3807 3.75 20 3.75C18.6193 3.75 17.5 4.86929 17.5 6.25C17.5 7.63071 18.6193 8.75 20 8.75Z" fill="black"/>
<path d="M22.5 17.5C19.7425 17.5 17.5 19.7425 17.5 22.5C17.5 25.2575 19.7425 27.5 22.5 27.5C25.2575 27.5 27.5 25.2575 27.5 22.5C27.5 19.7425 25.2575 17.5 22.5 17.5ZM22.5 25C21.1213 25 20 23.8787 20 22.5C20 21.1212 21.1213 20 22.5 20C23.8787 20 25 21.1212 25 22.5C25 23.8787 23.8787 25 22.5 25ZM7.5 27.5C10.2575 27.5 12.5 25.2575 12.5 22.5C12.5 19.7425 10.2575 17.5 7.5 17.5C4.7425 17.5 2.5 19.7425 2.5 22.5C2.5 25.2575 4.7425 27.5 7.5 27.5ZM7.5 20C8.87875 20 10 21.1212 10 22.5C10 23.8787 8.87875 25 7.5 25C6.12125 25 5 23.8787 5 22.5C5 21.1212 6.12125 20 7.5 20Z" fill="black"/>
</svg>
