<svg width="22" height="22" viewBox="0 0 22 22" fill="none" xmlns="http://www.w3.org/2000/svg">
<path fill-rule="evenodd" clip-rule="evenodd" d="M2.91667 0C2.535 0 2.20667 1.49012e-08 1.91667 0.0683334C1.46773 0.175608 1.05725 0.405077 0.730718 0.731316C0.404185 1.05755 0.174346 1.46782 0.0666666 1.91667C-6.70552e-08 2.20667 0 2.53333 0 2.91667V7.08333C0 7.465 1.49012e-08 7.79333 0.0683334 8.08333C0.175608 8.53227 0.405077 8.94275 0.731316 9.26928C1.05755 9.59581 1.46782 9.82565 1.91667 9.93333C2.20667 10 2.53333 10 2.91667 10H7.08333C7.465 10 7.79333 10 8.08333 9.93167C8.53227 9.82439 8.94275 9.59492 9.26928 9.26868C9.59581 8.94245 9.82565 8.53218 9.93333 8.08333C10 7.79333 10 7.46667 10 7.08333V2.91667C10 2.535 10 2.20667 9.93167 1.91667C9.82439 1.46773 9.59492 1.05725 9.26868 0.730718C8.94245 0.404185 8.53218 0.174346 8.08333 0.0666666C7.79333 -6.70552e-08 7.46667 0 7.08333 0H2.91667ZM2.305 1.69C2.37667 1.67333 2.48833 1.66667 3 1.66667H7C7.51333 1.66667 7.62333 1.67167 7.695 1.69C7.84472 1.7258 7.98159 1.80238 8.09044 1.91123C8.19929 2.02008 8.27586 2.15695 8.31167 2.30667C8.32833 2.37667 8.33333 2.48667 8.33333 3V7C8.33333 7.51333 8.32833 7.62333 8.31 7.695C8.2742 7.84472 8.19763 7.98159 8.08877 8.09044C7.97992 8.19929 7.84305 8.27586 7.69333 8.31167C7.625 8.32667 7.515 8.33333 7 8.33333H3C2.48667 8.33333 2.37667 8.32833 2.305 8.31C2.15528 8.2742 2.01841 8.19763 1.90956 8.08877C1.80071 7.97992 1.72414 7.84305 1.68833 7.69333C1.67333 7.625 1.66667 7.515 1.66667 7V3C1.66667 2.48667 1.67167 2.37667 1.69 2.305C1.7258 2.15528 1.80238 2.01841 1.91123 1.90956C2.02008 1.80071 2.15695 1.72414 2.30667 1.68833L2.305 1.69ZM14.5833 0C14.2017 0 13.8733 1.49012e-08 13.5833 0.0683334C13.1344 0.175608 12.7239 0.405077 12.3974 0.731316C12.0709 1.05755 11.841 1.46782 11.7333 1.91667C11.6667 2.20667 11.6667 2.53333 11.6667 2.91667V7.08333C11.6667 7.465 11.6667 7.79333 11.735 8.08333C11.8423 8.53227 12.0717 8.94275 12.398 9.26928C12.7242 9.59581 13.1345 9.82565 13.5833 9.93333C13.8733 10 14.2 10 14.5833 10H18.75C19.1317 10 19.46 10 19.75 9.93167C20.1989 9.82439 20.6094 9.59492 20.9359 9.26868C21.2625 8.94245 21.4923 8.53218 21.6 8.08333C21.6667 7.79333 21.6667 7.46667 21.6667 7.08333V2.91667C21.6667 2.535 21.6667 2.20667 21.5983 1.91667C21.4911 1.46773 21.2616 1.05725 20.9354 0.730718C20.6091 0.404185 20.1988 0.174346 19.75 0.0666666C19.46 -6.70552e-08 19.1333 0 18.75 0H14.5833ZM13.9717 1.69C14.0433 1.67333 14.155 1.66667 14.6667 1.66667H18.6667C19.18 1.66667 19.29 1.67167 19.3617 1.69C19.5114 1.7258 19.6483 1.80238 19.7571 1.91123C19.866 2.02008 19.9425 2.15695 19.9783 2.30667C19.995 2.37667 20 2.48667 20 3V7C20 7.51333 19.9933 7.62333 19.9767 7.695C19.9409 7.84472 19.8643 7.98159 19.7554 8.09044C19.6466 8.19929 19.5097 8.27586 19.36 8.31167C19.29 8.32833 19.18 8.33333 18.6667 8.33333H14.6667C14.1533 8.33333 14.0433 8.32833 13.9717 8.31C13.822 8.2742 13.6851 8.19763 13.5762 8.08877C13.4674 7.97992 13.3908 7.84305 13.355 7.69333C13.34 7.625 13.3333 7.515 13.3333 7V3C13.3333 2.48667 13.3383 2.37667 13.3567 2.305C13.3925 2.15528 13.469 2.01841 13.5779 1.90956C13.6867 1.80071 13.8236 1.72414 13.9733 1.68833L13.9717 1.69ZM2.91667 11.6667H7.08333C7.465 11.6667 7.79333 11.6667 8.08333 11.735C8.53227 11.8423 8.94275 12.0717 9.26928 12.398C9.59581 12.7242 9.82565 13.1345 9.93333 13.5833C10 13.8733 10 14.2 10 14.5833V18.75C10 19.1317 10 19.46 9.93167 19.75C9.82439 20.1989 9.59492 20.6094 9.26868 20.9359C8.94245 21.2625 8.53218 21.4923 8.08333 21.6C7.79333 21.6667 7.46667 21.6667 7.08333 21.6667H2.91667C2.535 21.6667 2.20667 21.6667 1.91667 21.5983C1.46773 21.4911 1.05725 21.2616 0.730718 20.9354C0.404185 20.6091 0.174346 20.1988 0.0666666 19.75C-6.70552e-08 19.46 0 19.1333 0 18.75V14.5833C0 14.2017 1.49012e-08 13.8733 0.0683334 13.5833C0.175608 13.1344 0.405077 12.7239 0.731316 12.3974C1.05755 12.0709 1.46782 11.841 1.91667 11.7333C2.20667 11.6667 2.53333 11.6667 2.91667 11.6667ZM3 13.3333C2.48667 13.3333 2.37667 13.3383 2.305 13.3567C2.15528 13.3925 2.01841 13.469 1.90956 13.5779C1.80071 13.6867 1.72414 13.8236 1.68833 13.9733C1.67333 14.0417 1.66667 14.1517 1.66667 14.6667V18.6667C1.66667 19.18 1.67167 19.29 1.69 19.3617C1.7258 19.5114 1.80238 19.6483 1.91123 19.7571C2.02008 19.866 2.15695 19.9425 2.30667 19.9783C2.37667 19.995 2.48667 20 3 20H7C7.51333 20 7.62333 19.9933 7.695 19.9767C7.84472 19.9409 7.98159 19.8643 8.09044 19.7554C8.19929 19.6466 8.27586 19.5097 8.31167 19.36C8.32833 19.29 8.33333 19.18 8.33333 18.6667V14.6667C8.33333 14.1533 8.32833 14.0433 8.31 13.9717C8.2742 13.822 8.19763 13.6851 8.08877 13.5762C7.97992 13.4674 7.84305 13.3908 7.69333 13.355C7.625 13.34 7.515 13.3333 7 13.3333H3ZM14.5833 11.6667C14.2017 11.6667 13.8733 11.6667 13.5833 11.735C13.1344 11.8423 12.7239 12.0717 12.3974 12.398C12.0709 12.7242 11.841 13.1345 11.7333 13.5833C11.6667 13.8733 11.6667 14.2 11.6667 14.5833V18.75C11.6667 19.1317 11.6667 19.46 11.735 19.75C11.8423 20.1989 12.0717 20.6094 12.398 20.9359C12.7242 21.2625 13.1345 21.4923 13.5833 21.6C13.8733 21.6683 14.2017 21.6683 14.5833 21.6683H18.75C19.1317 21.6683 19.46 21.6683 19.75 21.6C20.1986 21.4925 20.6088 21.2629 20.935 20.9366C21.2612 20.6104 21.4908 20.2003 21.5983 19.7517C21.6667 19.4617 21.6667 19.1333 21.6667 18.7517V14.5833C21.6667 14.2017 21.6667 13.8733 21.5983 13.5833C21.4911 13.1344 21.2616 12.7239 20.9354 12.3974C20.6091 12.0709 20.1988 11.841 19.75 11.7333C19.46 11.6667 19.1333 11.6667 18.75 11.6667H14.5833ZM13.9717 13.3567C14.0433 13.34 14.155 13.3333 14.6667 13.3333H18.6667C19.18 13.3333 19.29 13.3383 19.3617 13.3567C19.5114 13.3925 19.6483 13.469 19.7571 13.5779C19.866 13.6867 19.9425 13.8236 19.9783 13.9733C19.995 14.0433 20 14.1533 20 14.6667V18.6667C20 19.18 19.9933 19.29 19.9767 19.3617C19.9409 19.5114 19.8643 19.6483 19.7554 19.7571C19.6466 19.866 19.5097 19.9425 19.36 19.9783C19.29 19.995 19.18 20 18.6667 20H14.6667C14.1533 20 14.0433 19.9933 13.9717 19.9767C13.822 19.9409 13.6851 19.8643 13.5762 19.7554C13.4674 19.6466 13.3908 19.5097 13.355 19.36C13.34 19.2917 13.3333 19.1817 13.3333 18.6667V14.6667C13.3333 14.1533 13.3383 14.0433 13.3567 13.9717C13.3925 13.822 13.469 13.6851 13.5779 13.5762C13.6867 13.4674 13.8236 13.3908 13.9733 13.355L13.9717 13.3567Z" fill="#7282FB"/>
<path d="M1.33333 1.33333H8.33333V8.33333H1.33333V1.33333Z" fill="#7282FB"/>
<path d="M13.3333 1.33333H20.3333V8.33333H13.3333V1.33333Z" fill="#7282FB"/>
<path d="M13.3333 13.3333H20.3333V20.3333H13.3333V13.3333Z" fill="#7282FB"/>
<path d="M1.33333 13.3333H8.33333V20.3333H1.33333V13.3333Z" fill="#7282FB"/>
</svg>
