<svg width="16" height="17" viewBox="0 0 16 17" fill="none" xmlns="http://www.w3.org/2000/svg">
<path d="M14.875 2.75H11.75V2.125C11.7479 1.62835 11.5497 1.15263 11.1986 0.801447C10.8474 0.450261 10.3716 0.252057 9.875 0.25H6.125C5.62835 0.252057 5.15263 0.450261 4.80145 0.801447C4.45026 1.15263 4.25206 1.62835 4.25 2.125V2.75H1.125C0.95924 2.75 0.800269 2.81585 0.683058 2.93306C0.565848 3.05027 0.5 3.20924 0.5 3.375C0.5 3.54076 0.565848 3.69973 0.683058 3.81694C0.800269 3.93415 0.95924 4 1.125 4H1.75V15.25C1.75 15.5815 1.8817 15.8995 2.11612 16.1339C2.35054 16.3683 2.66848 16.5 3 16.5H13C13.3315 16.5 13.6495 16.3683 13.8839 16.1339C14.1183 15.8995 14.25 15.5815 14.25 15.25V4H14.875C15.0408 4 15.1997 3.93415 15.3169 3.81694C15.4342 3.69973 15.5 3.54076 15.5 3.375C15.5 3.20924 15.4342 3.05027 15.3169 2.93306C15.1997 2.81585 15.0408 2.75 14.875 2.75ZM5.5 2.125C5.5 1.95924 5.56585 1.80027 5.68306 1.68306C5.80027 1.56585 5.95924 1.5 6.125 1.5H9.875C10.0408 1.5 10.1997 1.56585 10.3169 1.68306C10.4342 1.80027 10.5 1.95924 10.5 2.125V2.75H5.5V2.125ZM13 15.25H3V4H13V15.25ZM6.75 7.125V12.125C6.75 12.2908 6.68415 12.4497 6.56694 12.5669C6.44973 12.6842 6.29076 12.75 6.125 12.75C5.95924 12.75 5.80027 12.6842 5.68306 12.5669C5.56585 12.4497 5.5 12.2908 5.5 12.125V7.125C5.5 6.95924 5.56585 6.80027 5.68306 6.68306C5.80027 6.56585 5.95924 6.5 6.125 6.5C6.29076 6.5 6.44973 6.56585 6.56694 6.68306C6.68415 6.80027 6.75 6.95924 6.75 7.125V7.125ZM10.5 7.125V12.125C10.5 12.2908 10.4342 12.4497 10.3169 12.5669C10.1997 12.6842 10.0408 12.75 9.875 12.75C9.70924 12.75 9.55027 12.6842 9.43306 12.5669C9.31585 12.4497 9.25 12.2908 9.25 12.125V7.125C9.25 6.95924 9.31585 6.80027 9.43306 6.68306C9.55027 6.56585 9.70924 6.5 9.875 6.5C10.0408 6.5 10.1997 6.56585 10.3169 6.68306C10.4342 6.80027 10.5 6.95924 10.5 7.125V7.125Z" fill="black" stroke="black" stroke-width="0.3"/>
</svg>
