<svg width="17" height="17" viewBox="0 0 17 17" fill="none" xmlns="http://www.w3.org/2000/svg">
<path d="M3.2949 12.1298C3.92889 12.1298 4.44284 11.6159 4.44284 10.9819C4.44284 10.3479 3.92889 9.83398 3.2949 9.83398C2.66092 9.83398 2.14697 10.3479 2.14697 10.9819C2.14697 11.6159 2.66092 12.1298 3.2949 12.1298Z" fill="black"/>
<path d="M3.10288 15.2745C3.12767 15.3004 3.15745 15.321 3.19043 15.3351C3.2234 15.3492 3.25889 15.3564 3.29474 15.3564C3.33059 15.3564 3.36608 15.3492 3.39905 15.3351C3.43203 15.321 3.46181 15.3004 3.4866 15.2745L5.39578 13.2805C6.54192 12.0881 6.54235 10.1388 5.39668 8.93528C5.12718 8.64813 4.80169 8.41925 4.44031 8.26275C4.07892 8.10626 3.6893 8.02548 3.29549 8.02539C2.90168 8.0253 2.51202 8.10591 2.15057 8.26225C1.78911 8.41858 1.46353 8.64732 1.1939 8.93436C0.0476241 10.1269 0.0472256 12.0761 1.19343 13.2801L3.10288 15.2745ZM3.29472 9.30271C3.62684 9.3027 3.95149 9.40118 4.22764 9.58569C4.50378 9.77019 4.71901 10.0324 4.84611 10.3393C4.97321 10.6461 5.00647 10.9837 4.94168 11.3095C4.87689 11.6352 4.71697 11.9344 4.48213 12.1692C4.24729 12.4041 3.94809 12.564 3.62236 12.6288C3.29663 12.6936 2.959 12.6603 2.65217 12.5333C2.34534 12.4062 2.08308 12.1909 1.89857 11.9148C1.71406 11.6387 1.61558 11.314 1.61558 10.9819C1.61608 10.5367 1.79315 10.1099 2.10794 9.7951C2.42273 9.4803 2.84954 9.30322 3.29472 9.30271Z" fill="black"/>
<path d="M13.7051 4.45309C14.339 4.45309 14.853 3.93914 14.853 3.30516C14.853 2.67117 14.339 2.15723 13.7051 2.15723C13.0711 2.15723 12.5571 2.67117 12.5571 3.30516C12.5571 3.93914 13.0711 4.45309 13.7051 4.45309Z" fill="black"/>
<path d="M13.7054 0.348633C13.3117 0.348458 12.9221 0.429031 12.5607 0.585374C12.1994 0.741716 11.8739 0.970505 11.6045 1.2576C10.4583 2.45009 10.4579 4.39935 11.6041 5.60343L13.5135 7.59774C13.5383 7.62364 13.5681 7.64425 13.6011 7.65833C13.6341 7.67241 13.6695 7.67967 13.7054 7.67967C13.7413 7.67967 13.7767 7.67241 13.8097 7.65833C13.8427 7.64425 13.8725 7.62364 13.8973 7.59774L15.8064 5.60379C16.9526 4.41133 16.953 2.46208 15.8073 1.25856C15.5378 0.971204 15.2123 0.742187 14.8507 0.585676C14.4892 0.429165 14.0994 0.348487 13.7054 0.348633ZM13.7054 4.98432C13.3733 4.98433 13.0486 4.88585 12.7725 4.70134C12.4964 4.51684 12.2811 4.25459 12.154 3.94776C12.0269 3.64093 11.9937 3.3033 12.0585 2.97757C12.1232 2.65184 12.2832 2.35263 12.518 2.11779C12.7528 1.88295 13.052 1.72302 13.3778 1.65822C13.7035 1.59343 14.0411 1.62668 14.348 1.75377C14.6548 1.88087 14.9171 2.09609 15.1016 2.37223C15.2861 2.64837 15.3846 2.97303 15.3846 3.30514C15.3841 3.75033 15.207 4.17714 14.8922 4.49193C14.5774 4.80673 14.1506 4.98381 13.7054 4.98432Z" fill="black"/>
<path d="M3.25391 16.0703C3.25409 16.2288 3.31712 16.3807 3.42916 16.4927C3.5412 16.6048 3.69311 16.6678 3.85156 16.668H6.375C8.16923 16.668 9.62891 15.1917 9.62891 13.3975V10.9736C9.62891 9.83852 10.5524 8.93164 11.6875 8.93164H13.0488C13.2073 8.93164 13.3594 8.86867 13.4714 8.75659C13.5835 8.64451 13.6465 8.49249 13.6465 8.33398C13.6465 8.17548 13.5835 8.02346 13.4714 7.91138C13.3594 7.7993 13.2073 7.73633 13.0488 7.73633H11.6875C9.89327 7.73633 8.43359 9.1794 8.43359 10.9736V13.3975C8.43359 14.5326 7.51012 15.4727 6.375 15.4727H3.85156C3.69311 15.4728 3.5412 15.5359 3.42916 15.6479C3.31712 15.76 3.25409 15.9119 3.25391 16.0703Z" fill="black"/>
</svg>
