<svg width="23" height="24" viewBox="0 0 23 24" fill="none" xmlns="http://www.w3.org/2000/svg">
<path d="M16.0858 21.6H6.48584C5.53106 21.6 4.61539 21.2207 3.94026 20.5456C3.26512 19.8705 2.88584 18.9548 2.88584 18V6C2.88584 5.68174 2.75941 5.37652 2.53437 5.15147C2.30932 4.92643 2.0041 4.8 1.68584 4.8C1.36758 4.8 1.06236 4.92643 0.837312 5.15147C0.612268 5.37652 0.48584 5.68174 0.48584 6V18C0.48584 19.5913 1.11798 21.1174 2.2432 22.2426C3.36842 23.3679 4.89454 24 6.48584 24H16.0858C16.4041 24 16.7093 23.8736 16.9344 23.6485C17.1594 23.4235 17.2858 23.1183 17.2858 22.8C17.2858 22.4817 17.1594 22.1765 16.9344 21.9515C16.7093 21.7264 16.4041 21.6 16.0858 21.6ZM22.0858 8.328C22.0733 8.21776 22.0492 8.10916 22.0138 8.004V7.896C21.9561 7.77262 21.8792 7.6592 21.7858 7.56L14.5858 0.36C14.4866 0.266659 14.3732 0.189697 14.2498 0.132H14.1418L13.7578 0H8.88584C7.93106 0 7.01539 0.379285 6.34026 1.05442C5.66512 1.72955 5.28584 2.64522 5.28584 3.6V15.6C5.28584 16.5548 5.66512 17.4705 6.34026 18.1456C7.01539 18.8207 7.93106 19.2 8.88584 19.2H18.4858C19.4406 19.2 20.3563 18.8207 21.0314 18.1456C21.7066 17.4705 22.0858 16.5548 22.0858 15.6V8.4C22.0858 8.4 22.0858 8.4 22.0858 8.328ZM14.8858 4.092L17.9938 7.2H16.0858C15.7676 7.2 15.4624 7.07357 15.2373 6.84853C15.0123 6.62348 14.8858 6.31826 14.8858 6V4.092ZM19.6858 15.6C19.6858 15.9183 19.5594 16.2235 19.3344 16.4485C19.1093 16.6736 18.8041 16.8 18.4858 16.8H8.88584C8.56758 16.8 8.26236 16.6736 8.03731 16.4485C7.81227 16.2235 7.68584 15.9183 7.68584 15.6V3.6C7.68584 3.28174 7.81227 2.97652 8.03731 2.75147C8.26236 2.52643 8.56758 2.4 8.88584 2.4H12.4858V6C12.4858 6.95478 12.8651 7.87045 13.5403 8.54559C14.2154 9.22072 15.1311 9.6 16.0858 9.6H19.6858V15.6Z" fill="black"/>
</svg>
