<svg width="30" height="30" viewBox="0 0 30 30" fill="none" xmlns="http://www.w3.org/2000/svg">
<path d="M3.75 3.7501C3.41848 3.7501 3.10054 3.8818 2.86612 4.11622C2.6317 4.35064 2.5 4.66858 2.5 5.0001V11.8751C2.5 13.9876 3.7875 15.7876 5.625 16.5251V24.3751C5.625 24.8724 5.82254 25.3493 6.17417 25.7009C6.52581 26.0526 7.00272 26.2501 7.5 26.2501C7.99728 26.2501 8.47419 26.0526 8.82583 25.7009C9.17746 25.3493 9.375 24.8724 9.375 24.3751V16.5251C11.2125 15.7876 12.5 13.9876 12.5 11.8751V5.0001C12.5 4.66858 12.3683 4.35064 12.1339 4.11622C11.8995 3.8818 11.5815 3.7501 11.25 3.7501C10.9185 3.7501 10.6005 3.8818 10.3661 4.11622C10.1317 4.35064 10 4.66858 10 5.0001V10.0001C10 10.1659 9.93415 10.3248 9.81694 10.442C9.69973 10.5593 9.54076 10.6251 9.375 10.6251C9.20924 10.6251 9.05027 10.5593 8.93306 10.442C8.81585 10.3248 8.75 10.1659 8.75 10.0001V5.0001C8.75 4.66858 8.6183 4.35064 8.38388 4.11622C8.14946 3.8818 7.83152 3.7501 7.5 3.7501C7.16848 3.7501 6.85054 3.8818 6.61612 4.11622C6.3817 4.35064 6.25 4.66858 6.25 5.0001V10.0001C6.25 10.1659 6.18415 10.3248 6.06694 10.442C5.94973 10.5593 5.79076 10.6251 5.625 10.6251C5.45924 10.6251 5.30027 10.5593 5.18306 10.442C5.06585 10.3248 5 10.1659 5 10.0001V5.0001C5 4.66858 4.8683 4.35064 4.63388 4.11622C4.39946 3.8818 4.08152 3.7501 3.75 3.7501ZM24.85 3.7501C24.6875 3.7501 24.525 3.8626 24.375 3.9501L20 6.5626V11.2501H15V13.7501H16.25L17.5 26.2501H25L26.25 13.7501H27.5V11.2501H22.5V7.9251L25.625 6.0501C26.25 5.7001 26.4125 5.0001 26.05 4.3751C25.7875 3.9251 25.325 3.6876 24.85 3.7501Z" fill="#E493A5"/>
</svg>
