<svg width="35" height="35" viewBox="0 0 35 35" fill="none" xmlns="http://www.w3.org/2000/svg">
<path d="M4.37508 4.37479C3.98831 4.37479 3.61737 4.52844 3.34388 4.80193C3.07039 5.07542 2.91675 5.44635 2.91675 5.83313V13.854C2.91675 16.3185 4.41883 18.4185 6.56258 19.279V28.4373C6.56258 29.0175 6.79305 29.5738 7.20328 29.9841C7.61352 30.3943 8.16992 30.6248 8.75008 30.6248C9.33024 30.6248 9.88664 30.3943 10.2969 29.9841C10.7071 29.5738 10.9376 29.0175 10.9376 28.4373V19.279C13.0813 18.4185 14.5834 16.3185 14.5834 13.854V5.83313C14.5834 5.44635 14.4298 5.07542 14.1563 4.80193C13.8828 4.52844 13.5119 4.37479 13.1251 4.37479C12.7383 4.37479 12.3674 4.52844 12.0939 4.80193C11.8204 5.07542 11.6667 5.44635 11.6667 5.83313V11.6665C11.6667 11.8598 11.5899 12.0453 11.4532 12.1821C11.3164 12.3188 11.131 12.3956 10.9376 12.3956C10.7442 12.3956 10.5587 12.3188 10.422 12.1821C10.2852 12.0453 10.2084 11.8598 10.2084 11.6665V5.83313C10.2084 5.44635 10.0548 5.07542 9.78128 4.80193C9.50779 4.52844 9.13686 4.37479 8.75008 4.37479C8.36331 4.37479 7.99237 4.52844 7.71888 4.80193C7.44539 5.07542 7.29175 5.44635 7.29175 5.83313V11.6665C7.29175 11.8598 7.21492 12.0453 7.07818 12.1821C6.94143 12.3188 6.75597 12.3956 6.56258 12.3956C6.36919 12.3956 6.18373 12.3188 6.04698 12.1821C5.91024 12.0453 5.83341 11.8598 5.83341 11.6665V5.83313C5.83341 5.44635 5.67977 5.07542 5.40628 4.80193C5.13279 4.52844 4.76186 4.37479 4.37508 4.37479ZM28.9917 4.37479C28.8022 4.37479 28.6126 4.50604 28.4376 4.60813L23.3334 7.65604V13.1248H17.5001V16.0415H18.9584L20.4167 30.6248H29.1667L30.6251 16.0415H32.0834V13.1248H26.2501V9.24563L29.8959 7.05813C30.6251 6.64979 30.8147 5.83313 30.3917 5.10396C30.0855 4.57896 29.5459 4.30188 28.9917 4.37479Z" fill="white"/>
</svg>
