<svg width="124" height="144" viewBox="0 0 124 144" fill="none" xmlns="http://www.w3.org/2000/svg">
<path d="M78.4083 6.46053C78.7209 3.48637 76.562 0.800326 73.5727 0.713623C63.1052 0.410017 52.6751 2.40926 43.0288 6.5967C31.7231 11.5045 21.878 19.2514 14.4489 29.0858C7.01981 38.9201 2.25899 50.5078 0.628458 62.7245C-1.00208 74.9412 0.553036 87.3719 5.14289 98.8103C9.73274 110.249 17.2015 120.307 26.8243 128.008C36.4471 135.709 47.8972 140.792 60.0636 142.763C72.2299 144.734 84.6992 143.527 96.2615 139.259C106.127 135.617 115.046 129.852 122.4 122.397C124.5 120.268 124.204 116.835 121.922 114.902C119.64 112.969 116.239 113.271 114.111 115.372C107.984 121.417 100.624 126.104 92.511 129.1C82.7 132.721 72.1193 133.746 61.7958 132.073C51.4722 130.4 41.7564 126.087 33.5911 119.552C25.4258 113.018 19.0883 104.483 15.1937 94.7773C11.299 85.0714 9.97943 74.5235 11.363 64.1572C12.7466 53.7909 16.7863 43.9583 23.0901 35.6136C29.394 27.2688 37.7479 20.6952 47.3412 16.5308C55.2745 13.087 63.8326 11.3874 72.4388 11.5206C75.429 11.5668 78.0957 9.4347 78.4083 6.46053Z" fill="white"/>
</svg>
