<svg width="28" height="28" viewBox="0 0 28 28" fill="none" xmlns="http://www.w3.org/2000/svg">
<path d="M13.9999 19.832C14.3305 19.832 14.6078 19.72 14.8318 19.496C15.055 19.2728 15.1666 18.9959 15.1666 18.6654V13.9695C15.1666 13.639 15.055 13.3668 14.8318 13.1529C14.6078 12.939 14.3305 12.832 13.9999 12.832C13.6694 12.832 13.3925 12.9436 13.1693 13.1669C12.9453 13.3909 12.8333 13.6681 12.8333 13.9987V18.6945C12.8333 19.0251 12.9453 19.2973 13.1693 19.5112C13.3925 19.7251 13.6694 19.832 13.9999 19.832ZM13.9999 10.4987C14.3305 10.4987 14.6078 10.3867 14.8318 10.1627C15.055 9.93948 15.1666 9.66259 15.1666 9.33203C15.1666 9.00148 15.055 8.7242 14.8318 8.5002C14.6078 8.27698 14.3305 8.16537 13.9999 8.16537C13.6694 8.16537 13.3925 8.27698 13.1693 8.5002C12.9453 8.7242 12.8333 9.00148 12.8333 9.33203C12.8333 9.66259 12.9453 9.93948 13.1693 10.1627C13.3925 10.3867 13.6694 10.4987 13.9999 10.4987ZM13.9999 25.6654C12.386 25.6654 10.8694 25.3589 9.44992 24.746C8.03048 24.1339 6.79575 23.3029 5.74575 22.2529C4.69575 21.2029 3.8647 19.9681 3.25259 18.5487C2.6397 17.1293 2.33325 15.6126 2.33325 13.9987C2.33325 12.3848 2.6397 10.8681 3.25259 9.4487C3.8647 8.02925 4.69575 6.79453 5.74575 5.74453C6.79575 4.69453 8.03048 3.86309 9.44992 3.2502C10.8694 2.63809 12.386 2.33203 13.9999 2.33203C15.6138 2.33203 17.1305 2.63809 18.5499 3.2502C19.9694 3.86309 21.2041 4.69453 22.2541 5.74453C23.3041 6.79453 24.1351 8.02925 24.7473 9.4487C25.3601 10.8681 25.6666 12.3848 25.6666 13.9987C25.6666 15.6126 25.3601 17.1293 24.7473 18.5487C24.1351 19.9681 23.3041 21.2029 22.2541 22.2529C21.2041 23.3029 19.9694 24.1339 18.5499 24.746C17.1305 25.3589 15.6138 25.6654 13.9999 25.6654ZM13.9999 23.332C16.586 23.332 18.7883 22.4232 20.6068 20.6055C22.4244 18.7871 23.3333 16.5848 23.3333 13.9987C23.3333 11.4126 22.4244 9.21031 20.6068 7.39186C18.7883 5.5742 16.586 4.66536 13.9999 4.66536C11.4138 4.66536 9.21192 5.5742 7.39425 7.39186C5.57581 9.21031 4.66659 11.4126 4.66659 13.9987C4.66659 16.5848 5.57581 18.7871 7.39425 20.6055C9.21192 22.4232 11.4138 23.332 13.9999 23.332Z" fill="#9C74F5"/>
</svg>
