<svg width="65" height="66" viewBox="0 0 65 66" fill="none" xmlns="http://www.w3.org/2000/svg">
<path d="M20.523 54.4246H51.3368L59.3752 62.463V34.3287C59.3752 31.3812 56.9637 28.9697 54.0163 28.9697H20.523C17.5756 28.9697 15.1641 31.3812 15.1641 34.3287V49.0657C15.1641 52.0131 17.5756 54.4246 20.523 54.4246Z" fill="#558B2F"/>
<path d="M39.011 44.7782H34.188L33.2501 47.5917H30.3027L35.2597 34.1943H37.8052L42.7622 47.5917H39.8148L39.011 44.7782ZM34.8578 42.6346H38.2071L36.5995 37.5437L34.8578 42.6346Z" fill="#1B5E20"/>
<path d="M44.6383 34.3287H13.8245L5.78613 42.3671V11.5533C5.78613 8.60585 8.19765 6.19434 11.1451 6.19434H44.6383C47.5858 6.19434 49.9973 8.60585 49.9973 11.5533V28.9698C49.9973 31.9172 47.5858 34.3287 44.6383 34.3287Z" fill="#8BC34A"/>
<path d="M34.4557 19.8594C34.4557 21.1991 34.1877 22.2709 33.7858 23.2087C33.3839 24.1465 32.848 24.9503 32.0441 25.4862L34.3217 27.2279L32.58 28.8356L29.6326 26.558C29.3647 26.558 28.9628 26.692 28.5608 26.692C27.757 26.692 26.9532 26.558 26.1493 26.2901C25.4795 26.0221 24.8096 25.4862 24.2737 24.9503C23.7378 24.4145 23.3359 23.6106 23.0679 22.8068C22.8 22.0029 22.666 21.0651 22.666 19.9933V19.4574C22.666 18.3857 22.8 17.4479 23.0679 16.644C23.3359 15.8402 23.7378 15.0363 24.2737 14.5004C24.8096 13.9645 25.3455 13.4287 26.1493 13.1607C26.8192 12.8928 27.623 12.7588 28.5608 12.7588C29.3647 12.7588 30.1685 12.8928 30.9724 13.1607C31.6422 13.4287 32.3121 13.9645 32.848 14.5004C33.3839 15.0363 33.7858 15.8402 34.0537 16.644C34.3217 17.4479 34.4557 18.3857 34.4557 19.4574V19.8594ZM31.5082 19.1895C31.5082 17.7158 31.2403 16.644 30.7044 15.9741C30.1685 15.1703 29.4986 14.9024 28.5608 14.9024C27.623 14.9024 26.8192 15.3043 26.4173 15.9741C25.8814 16.778 25.6134 17.8498 25.6134 19.1895V19.8594C25.6134 20.5292 25.7474 21.1991 25.8814 21.735C26.0153 22.2709 26.1493 22.8068 26.4173 23.0747C26.6852 23.4766 26.9532 23.7446 27.3551 23.8786C27.757 24.0125 28.1589 24.1465 28.5608 24.1465C29.4986 24.1465 30.3025 23.7446 30.7044 23.0747C31.2403 22.2709 31.5082 21.1991 31.5082 19.7254V19.1895Z" fill="white"/>
</svg>
