<svg width="14" height="17" viewBox="0 0 14 17" fill="none" xmlns="http://www.w3.org/2000/svg">
<path d="M5.72616 0.120147C5.39392 -0.0662935 4.97271 -0.0333893 4.68201 0.202424C4.38537 0.432742 4.29042 0.816635 4.44468 1.14566C5.48293 3.39962 5.21001 4.47447 4.9549 4.91319C4.68201 5.37386 4.24295 5.49449 4.06497 5.52194C3.58441 5.60417 3.22251 4.72675 3.21657 4.72126C3.10385 4.41415 2.80127 4.20027 2.45125 4.17285C2.09525 4.15093 1.76896 4.30995 1.59692 4.59513C0.0246972 7.2439 -0.390615 9.72818 0.368809 11.9876C1.47825 15.2999 4.72351 16.8464 4.85999 16.9122C4.98455 16.9726 5.12697 17 5.25748 17C5.47699 17 5.68466 16.9287 5.85076 16.7916C6.12369 16.5667 6.22453 16.2103 6.09993 15.8922C5.82704 15.2067 5.34648 13.2215 6.3432 12.2508C6.95426 11.6586 7.38145 11.1156 7.67215 10.6495C10.0572 14.1154 8.7816 15.2012 8.75788 15.2286C8.75194 15.2286 8.75194 15.2341 8.746 15.2341C8.34257 15.4919 8.24762 16.0019 8.52055 16.3748C8.79941 16.7477 9.34522 16.8464 9.7546 16.5942C9.7546 16.5887 9.76053 16.5887 9.76644 16.5832C12.6558 14.7131 14.0796 12.547 13.9966 10.134C13.8186 4.75415 6.0584 0.30662 5.72616 0.120147Z" fill="black"/>
</svg>
