<svg width="17" height="17" viewBox="0 0 17 17" fill="none" xmlns="http://www.w3.org/2000/svg">
<path d="M4.71841 0.542969C2.90494 0.542969 1.48438 2.70484 1.48438 5.46479C1.48438 6.57946 1.71929 7.62878 2.16384 8.49939C2.22738 8.62381 2.35531 8.70212 2.49502 8.70212H6.94191C7.08162 8.70212 7.20955 8.62381 7.27309 8.49939C7.71764 7.62889 7.95266 6.57956 7.95266 5.46479C7.95256 2.70484 6.53199 0.542969 4.71841 0.542969ZM6.70784 7.95826H2.72899C2.40493 7.23799 2.22812 6.36207 2.22812 5.46468C2.22812 3.19996 3.36851 1.28661 4.71841 1.28661C6.06832 1.28661 7.20881 3.19996 7.20881 5.46468C7.20881 6.36217 7.0319 7.23799 6.70784 7.95826ZM6.55909 9.69949H2.78636C2.58098 9.69949 2.41449 9.86598 2.41449 10.0714V11.9577C2.41449 13.203 3.42747 14.216 4.67272 14.216C5.91797 14.216 6.93096 13.203 6.93096 11.9577V10.0714C6.93096 9.86598 6.76447 9.69949 6.55909 9.69949ZM6.18721 11.9577C6.18721 12.7927 5.50774 13.4722 4.67272 13.4722C3.83771 13.4722 3.15824 12.7927 3.15824 11.9577V10.4432H6.18721V11.9577Z" fill="black"/>
<path d="M6.30391 6.24113H3.05351C2.90678 6.24113 2.78788 6.36002 2.78788 6.50675C2.78788 6.65349 2.90678 6.77238 3.05351 6.77238H6.30391C6.45064 6.77238 6.56953 6.65349 6.56953 6.50675C6.56953 6.36002 6.45053 6.24113 6.30391 6.24113ZM2.69141 4.87316C2.69141 5.01989 2.8103 5.13879 2.95703 5.13879H6.48018C6.62691 5.13879 6.7458 5.01989 6.7458 4.87316C6.7458 4.72643 6.62691 4.60754 6.48018 4.60754H2.95703C2.8103 4.60754 2.69141 4.72643 2.69141 4.87316ZM3.45035 2.97394C3.30362 2.97394 3.18473 3.09284 3.18473 3.23957C3.18473 3.3863 3.30362 3.50519 3.45035 3.50519H5.98675C6.13348 3.50519 6.25237 3.3863 6.25237 3.23957C6.25237 3.09284 6.13348 2.97394 5.98675 2.97394H3.45035ZM12.2813 2.78418C10.4678 2.78418 9.04728 4.94605 9.04728 7.70589C9.04728 8.82045 9.2822 9.86978 9.72675 10.7405C9.79029 10.8649 9.91821 10.9432 10.0579 10.9432H14.5049C14.6446 10.9432 14.7726 10.8649 14.8361 10.7405C15.2806 9.86999 15.5157 8.82067 15.5157 7.70589C15.5156 4.94594 14.095 2.78418 12.2813 2.78418ZM14.2708 10.1995H10.2919C9.96783 9.4791 9.79103 8.60328 9.79103 7.70589C9.79103 5.44128 10.9314 3.52793 12.2813 3.52793C13.6312 3.52793 14.7717 5.44128 14.7717 7.70589C14.7718 8.60328 14.5949 9.4792 14.2708 10.1995ZM14.1221 11.9406H10.3494C10.144 11.9406 9.9775 12.1071 9.9775 12.3125V14.1989C9.9775 15.4442 10.9905 16.4572 12.2357 16.4572C13.481 16.4572 14.494 15.4442 14.494 14.1989V12.3125C14.494 12.1072 14.3274 11.9406 14.1221 11.9406ZM13.7502 14.1989C13.7502 15.034 13.0708 15.7134 12.2357 15.7134C11.4007 15.7134 10.7212 15.034 10.7212 14.1989V12.6843H13.7502V14.1989Z" fill="black"/>
<path d="M13.8669 8.48301H10.6165C10.4698 8.48301 10.3509 8.6019 10.3509 8.74863C10.3509 8.89536 10.4698 9.01426 10.6165 9.01426H13.8669C14.0136 9.01426 14.1325 8.89536 14.1325 8.74863C14.1325 8.6019 14.0136 8.48301 13.8669 8.48301ZM10.2544 7.11504C10.2544 7.26177 10.3733 7.38066 10.52 7.38066H14.0432C14.1899 7.38066 14.3088 7.26177 14.3088 7.11504C14.3088 6.96831 14.1899 6.84941 14.0432 6.84941H10.52C10.3733 6.84941 10.2544 6.96841 10.2544 7.11504ZM11.0134 5.21582C10.8667 5.21582 10.7478 5.33471 10.7478 5.48145C10.7478 5.62818 10.8667 5.74707 11.0134 5.74707H13.5498C13.6966 5.74707 13.8155 5.62818 13.8155 5.48145C13.8155 5.33471 13.6966 5.21582 13.5498 5.21582H11.0134Z" fill="black"/>
</svg>
