<svg width="22" height="22" viewBox="0 0 22 22" fill="none" xmlns="http://www.w3.org/2000/svg">
<path d="M11 5.5C10.7083 5.5 10.4285 5.61589 10.2222 5.82218C10.0159 6.02847 9.9 6.30826 9.9 6.6V11C9.9 11.2917 10.0159 11.5715 10.2222 11.7778C10.4285 11.9841 10.7083 12.1 11 12.1C11.2917 12.1 11.5715 11.9841 11.7778 11.7778C11.9841 11.5715 12.1 11.2917 12.1 11V6.6C12.1 6.30826 11.9841 6.02847 11.7778 5.82218C11.5715 5.61589 11.2917 5.5 11 5.5ZM12.012 14.982C11.9879 14.9119 11.9546 14.8453 11.913 14.784L11.781 14.619C11.6263 14.4664 11.4299 14.363 11.2165 14.3219C11.0031 14.2807 10.7823 14.3038 10.582 14.388C10.4487 14.4437 10.3259 14.5218 10.219 14.619C10.1171 14.7218 10.0364 14.8437 9.98166 14.9777C9.92691 15.1117 9.89917 15.2552 9.9 15.4C9.90174 15.5437 9.93164 15.6858 9.988 15.818C10.0374 15.9545 10.1162 16.0785 10.2189 16.1811C10.3215 16.2838 10.4455 16.3626 10.582 16.412C10.7137 16.4702 10.856 16.5003 11 16.5003C11.144 16.5003 11.2863 16.4702 11.418 16.412C11.5545 16.3626 11.6785 16.2838 11.7811 16.1811C11.8838 16.0785 11.9626 15.9545 12.012 15.818C12.0684 15.6858 12.0983 15.5437 12.1 15.4C12.1054 15.3268 12.1054 15.2532 12.1 15.18C12.0811 15.1098 12.0514 15.0431 12.012 14.982ZM11 0C8.82441 0 6.69767 0.645139 4.88873 1.85383C3.07979 3.06253 1.66989 4.78049 0.83733 6.79048C0.00476612 8.80047 -0.213071 11.0122 0.211367 13.146C0.635804 15.2798 1.68345 17.2398 3.22183 18.7782C4.76021 20.3165 6.72022 21.3642 8.85401 21.7886C10.9878 22.2131 13.1995 21.9952 15.2095 21.1627C17.2195 20.3301 18.9375 18.9202 20.1462 17.1113C21.3549 15.3023 22 13.1756 22 11C22 9.55546 21.7155 8.12506 21.1627 6.79048C20.6099 5.4559 19.7996 4.24327 18.7782 3.22182C17.7567 2.20038 16.5441 1.39013 15.2095 0.837325C13.8749 0.284523 12.4445 0 11 0ZM11 19.8C9.25953 19.8 7.55814 19.2839 6.11099 18.3169C4.66383 17.35 3.53592 15.9756 2.86986 14.3676C2.20381 12.7596 2.02954 10.9902 2.36909 9.2832C2.70864 7.57617 3.54676 6.00816 4.77746 4.77746C6.00817 3.54676 7.57618 2.70864 9.28321 2.36909C10.9902 2.02954 12.7596 2.20381 14.3676 2.86986C15.9756 3.53591 17.35 4.66383 18.3169 6.11098C19.2839 7.55813 19.8 9.25952 19.8 11C19.8 13.3339 18.8729 15.5722 17.2225 17.2225C15.5722 18.8729 13.3339 19.8 11 19.8Z" fill="black"/>
</svg>
