<svg width="24" height="24" viewBox="0 0 24 24" fill="none" xmlns="http://www.w3.org/2000/svg">
<path d="M13 7.5C12.7083 7.5 12.4285 7.61589 12.2222 7.82218C12.0159 8.02847 11.9 8.30826 11.9 8.6V13C11.9 13.2917 12.0159 13.5715 12.2222 13.7778C12.4285 13.9841 12.7083 14.1 13 14.1C13.2917 14.1 13.5715 13.9841 13.7778 13.7778C13.9841 13.5715 14.1 13.2917 14.1 13V8.6C14.1 8.30826 13.9841 8.02847 13.7778 7.82218C13.5715 7.61589 13.2917 7.5 13 7.5ZM14.012 16.982C13.9879 16.9119 13.9546 16.8453 13.913 16.784L13.781 16.619C13.6263 16.4664 13.4299 16.363 13.2165 16.3219C13.0031 16.2807 12.7823 16.3038 12.582 16.388C12.4487 16.4437 12.3259 16.5218 12.219 16.619C12.1171 16.7218 12.0364 16.8437 11.9817 16.9777C11.9269 17.1117 11.8992 17.2552 11.9 17.4C11.9017 17.5437 11.9316 17.6858 11.988 17.818C12.0374 17.9545 12.1162 18.0785 12.2189 18.1811C12.3215 18.2838 12.4455 18.3626 12.582 18.412C12.7137 18.4702 12.856 18.5003 13 18.5003C13.144 18.5003 13.2863 18.4702 13.418 18.412C13.5545 18.3626 13.6785 18.2838 13.7811 18.1811C13.8838 18.0785 13.9626 17.9545 14.012 17.818C14.0684 17.6858 14.0983 17.5437 14.1 17.4C14.1054 17.3268 14.1054 17.2532 14.1 17.18C14.0811 17.1098 14.0514 17.0431 14.012 16.982ZM13 2C10.8244 2 8.69767 2.64514 6.88873 3.85383C5.07979 5.06253 3.66989 6.78049 2.83733 8.79048C2.00477 10.8005 1.78693 13.0122 2.21137 15.146C2.6358 17.2798 3.68345 19.2398 5.22183 20.7782C6.76021 22.3165 8.72022 23.3642 10.854 23.7886C12.9878 24.2131 15.1995 23.9952 17.2095 23.1627C19.2195 22.3301 20.9375 20.9202 22.1462 19.1113C23.3549 17.3023 24 15.1756 24 13C24 11.5555 23.7155 10.1251 23.1627 8.79048C22.6099 7.4559 21.7996 6.24327 20.7782 5.22182C19.7567 4.20038 18.5441 3.39013 17.2095 2.83732C15.8749 2.28452 14.4445 2 13 2ZM13 21.8C11.2595 21.8 9.55814 21.2839 8.11099 20.3169C6.66383 19.35 5.53592 17.9756 4.86986 16.3676C4.20381 14.7596 4.02954 12.9902 4.36909 11.2832C4.70864 9.57617 5.54676 8.00816 6.77746 6.77746C8.00817 5.54676 9.57618 4.70864 11.2832 4.36909C12.9902 4.02954 14.7596 4.20381 16.3676 4.86986C17.9756 5.53591 19.35 6.66383 20.3169 8.11098C21.2839 9.55813 21.8 11.2595 21.8 13C21.8 15.3339 20.8729 17.5722 19.2225 19.2225C17.5722 20.8729 15.3339 21.8 13 21.8Z" fill="#7282FB"/>
</svg>
