<svg width="75" height="75" viewBox="0 0 75 75" fill="none" xmlns="http://www.w3.org/2000/svg">
<g filter="url(#filter0_d_10323_23152)">
<rect x="12" y="12" width="51" height="51" rx="25.5" fill="white"/>
</g>
<path d="M48.1818 24H27.8182C26.8055 24 25.8344 24.4215 25.1183 25.1717C24.4023 25.9219 24 26.9395 24 28.0005V41.3353C24 42.3963 24.4023 43.4138 25.1183 44.1641C25.8344 44.9143 26.8055 45.3358 27.8182 45.3358H29.0909V50.6697C29.0915 50.9185 29.1585 51.1622 29.2843 51.3732C29.4101 51.5842 29.5898 51.754 29.803 51.8636C30.0162 51.9732 30.2544 52.0182 30.4906 51.9933C30.7269 51.9685 30.9518 51.8749 31.14 51.7232L38.98 45.3358H48.1818C49.1945 45.3358 50.1656 44.9143 50.8817 44.1641C51.5977 43.4138 52 42.3963 52 41.3353V28.0005C52 26.9395 51.5977 25.9219 50.8817 25.1717C50.1656 24.4215 49.1945 24 48.1818 24ZM49.4545 41.3353C49.4545 41.689 49.3205 42.0282 49.0818 42.2782C48.8431 42.5283 48.5194 42.6688 48.1818 42.6688H38.5473C38.2661 42.6697 37.9931 42.7682 37.7709 42.9488L31.6364 48.0027V44.0023C31.6364 43.6486 31.5023 43.3094 31.2636 43.0594C31.0249 42.8093 30.7012 42.6688 30.3636 42.6688H27.8182C27.4806 42.6688 27.1569 42.5283 26.9182 42.2782C26.6795 42.0282 26.5455 41.689 26.5455 41.3353V28.0005C26.5455 27.6468 26.6795 27.3076 26.9182 27.0575C27.1569 26.8075 27.4806 26.667 27.8182 26.667H48.1818C48.5194 26.667 48.8431 26.8075 49.0818 27.0575C49.3205 27.3076 49.4545 27.6468 49.4545 28.0005V41.3353Z" fill="#7282FB"/>
<path d="M31.6355 33.334H39.2719C39.6094 33.334 39.9332 33.1935 40.1718 32.9434C40.4105 32.6933 40.5446 32.3541 40.5446 32.0005C40.5446 31.6468 40.4105 31.3076 40.1718 31.0576C39.9332 30.8075 39.6094 30.667 39.2719 30.667H31.6355C31.298 30.667 30.9742 30.8075 30.7356 31.0576C30.4969 31.3076 30.3628 31.6468 30.3628 32.0005C30.3628 32.3541 30.4969 32.6933 30.7356 32.9434C30.9742 33.1935 31.298 33.334 31.6355 33.334ZM44.3628 36.0009H31.6355C31.298 36.0009 30.9742 36.1414 30.7356 36.3915C30.4969 36.6416 30.3628 36.9808 30.3628 37.3344C30.3628 37.6881 30.4969 38.0273 30.7356 38.2773C30.9742 38.5274 31.298 38.6679 31.6355 38.6679H44.3628C44.7003 38.6679 45.0241 38.5274 45.2627 38.2773C45.5014 38.0273 45.6355 37.6881 45.6355 37.3344C45.6355 36.9808 45.5014 36.6416 45.2627 36.3915C45.0241 36.1414 44.7003 36.0009 44.3628 36.0009Z" fill="#7282FB"/>
<defs>
<filter id="filter0_d_10323_23152" x="0" y="0" width="75" height="75" filterUnits="userSpaceOnUse" color-interpolation-filters="sRGB">
<feFlood flood-opacity="0" result="BackgroundImageFix"/>
<feColorMatrix in="SourceAlpha" type="matrix" values="0 0 0 0 0 0 0 0 0 0 0 0 0 0 0 0 0 0 127 0" result="hardAlpha"/>
<feOffset/>
<feGaussianBlur stdDeviation="6"/>
<feComposite in2="hardAlpha" operator="out"/>
<feColorMatrix type="matrix" values="0 0 0 0 0 0 0 0 0 0 0 0 0 0 0 0 0 0 0.1 0"/>
<feBlend mode="normal" in2="BackgroundImageFix" result="effect1_dropShadow_10323_23152"/>
<feBlend mode="normal" in="SourceGraphic" in2="effect1_dropShadow_10323_23152" result="shape"/>
</filter>
</defs>
</svg>
