<svg width="25" height="24" viewBox="0 0 25 24" fill="none" xmlns="http://www.w3.org/2000/svg">
<path d="M6.58564 19.2H8.38564V16.5H11.0856V14.7H8.38564V12H6.58564V14.7H3.88564V16.5H6.58564V19.2ZM13.4856 14.7H20.6856V13.5H13.4856V14.7ZM13.4856 18.3H18.2856V17.1H13.4856V18.3ZM2.08564 24C1.60564 24 1.18564 23.82 0.825644 23.46C0.465645 23.1 0.285645 22.68 0.285645 22.2V7.8C0.285645 7.32 0.465645 6.9 0.825644 6.54C1.18564 6.18 1.60564 6 2.08564 6H9.19564V1.8C9.19564 1.32 9.37564 0.9 9.73564 0.54C10.0956 0.18 10.5156 0 10.9956 0H13.6056C14.0856 0 14.5056 0.18 14.8656 0.54C15.2256 0.9 15.4056 1.32 15.4056 1.8V6H22.4856C22.9656 6 23.3856 6.18 23.7456 6.54C24.1056 6.9 24.2856 7.32 24.2856 7.8V22.2C24.2856 22.68 24.1056 23.1 23.7456 23.46C23.3856 23.82 22.9656 24 22.4856 24H2.08564ZM2.08564 22.2H22.4856V7.8H15.4056C15.4056 8.36 15.2206 8.8 14.8506 9.12C14.4806 9.44 14.0156 9.6 13.4556 9.6H11.1156C10.5756 9.6 10.1206 9.44 9.75064 9.12C9.38064 8.8 9.19564 8.36 9.19564 7.8H2.08564V22.2ZM10.9956 7.8H13.6056V1.8H10.9956V7.8Z" fill="black"/>
</svg>
