<svg width="30" height="27" viewBox="0 0 30 27" fill="none" xmlns="http://www.w3.org/2000/svg">
<path d="M18.3676 13.1252L15.5168 18.884C15.1726 19.585 14.1746 19.5618 13.8591 18.8492L10.5953 11.532L8.87448 15.6859H3.47688L13.9451 26.4909C14.3524 26.9138 15.012 26.9138 15.4193 26.4909L25.8933 15.6859H19.6353L18.3676 13.1252ZM27.1724 3.28195L27.0347 3.13711C24.0807 0.0897121 19.2452 0.0897121 16.2854 3.13711L14.6851 4.79407L13.0847 3.14291C10.1307 0.0897118 5.28946 0.0897118 2.33541 3.14291L2.19775 3.28195C-0.595694 6.16713 -0.71615 10.7614 1.77902 13.832H7.65271L9.71194 8.83796C10.0217 8.09059 11.0656 8.07321 11.3983 8.81478L14.7367 16.3058L17.5473 10.634C17.8858 9.95032 18.8494 9.95032 19.1878 10.634L20.771 13.832H27.5911C30.0863 10.7614 29.9658 6.16713 27.1724 3.28195Z" fill="white"/>
</svg>
