<svg width="27" height="24" viewBox="0 0 27 24" fill="none" xmlns="http://www.w3.org/2000/svg">
<path d="M16.7414 11.6922L14.2555 16.8437C13.9554 17.4708 13.085 17.45 12.8099 16.8126L9.96384 10.267L8.46328 13.9829H3.7565L12.8849 23.6484C13.2401 24.0267 13.8153 24.0267 14.1704 23.6484L23.3039 13.9829H17.8468L16.7414 11.6922ZM24.4193 2.88698L24.2993 2.75742C21.7233 0.0313808 17.5067 0.0313808 14.9257 2.75742L13.5302 4.23964L12.1347 2.7626C9.55869 0.0313806 5.3371 0.0313806 2.76112 2.7626L2.64108 2.88698C0.205156 5.46791 0.100116 9.5777 2.27594 12.3245H7.39787L9.19355 7.85708C9.46366 7.18853 10.374 7.17298 10.6641 7.83635L13.5752 14.5374L16.0261 9.46368C16.3212 8.85214 17.1616 8.85214 17.4567 9.46368L18.8372 12.3245H24.7844C26.9603 9.5777 26.8552 5.46791 24.4193 2.88698Z" fill="white"/>
</svg>
