<svg width="18" height="16" viewBox="0 0 18 16" fill="none" xmlns="http://www.w3.org/2000/svg">
<path d="M11.1458 7.57285L9.41587 11.0674C9.20703 11.4928 8.60138 11.4787 8.40994 11.0463L6.42941 6.60605L5.3852 9.12676H2.10984L8.46215 15.6834C8.70929 15.94 9.10957 15.94 9.3567 15.6834L15.7125 9.12676H11.915L11.1458 7.57285ZM16.4887 1.5998L16.4052 1.51191C14.6126 -0.337305 11.6783 -0.337305 9.88229 1.51191L8.91117 2.51738L7.94005 1.51543C6.14747 -0.337305 3.20974 -0.337305 1.41717 1.51543L1.33363 1.5998C-0.361478 3.35059 -0.434573 6.13848 1.07954 8.00176H4.6438L5.89338 4.97129C6.08134 4.51777 6.71483 4.50723 6.91671 4.95723L8.94249 9.50293L10.648 6.06113C10.8534 5.64629 11.4382 5.64629 11.6435 6.06113L12.6042 8.00176H16.7428C18.2569 6.13848 18.1838 3.35059 16.4887 1.5998Z" fill="#F67FAD"/>
</svg>
