<svg width="41" height="40" viewBox="0 0 41 40" fill="none" xmlns="http://www.w3.org/2000/svg">
<g clip-path="url(#clip0_11502_9390)">
<path d="M25.6736 19.3947L21.7613 26.9157C21.2889 27.8312 19.9192 27.8009 19.4862 26.8703L15.0071 17.3139L12.6455 22.739H5.23791L19.6043 36.8503C20.1632 37.4027 21.0685 37.4027 21.6274 36.8503L36.0017 22.739H27.4133L25.6736 19.3947ZM37.7572 6.53934L37.5682 6.35018C33.5142 2.37025 26.8781 2.37025 22.8161 6.35018L20.6198 8.51417L18.4235 6.35775C14.3694 2.37025 7.72547 2.37025 3.67138 6.35775L3.48246 6.53934C-0.35121 10.3074 -0.516522 16.3076 2.9078 20.3178H10.9687L13.7948 13.7955C14.2199 12.8195 15.6526 12.7968 16.1092 13.7653L20.6907 23.5486L24.5479 16.1411C25.0124 15.2483 26.3349 15.2483 26.7993 16.1411L28.972 20.3178H38.3318C41.7561 16.3076 41.5908 10.3074 37.7572 6.53934Z" fill="white"/>
</g>
<defs>
<clipPath id="clip0_11502_9390">
<rect width="40.3046" height="38.74" fill="white" transform="translate(0.46582 0.947266)"/>
</clipPath>
</defs>
</svg>
