<svg width="58" height="59" viewBox="0 0 58 59" fill="none" xmlns="http://www.w3.org/2000/svg">
<g clip-path="url(#clip0_1635_19523)">
<path d="M57.5716 48.5608C57.7896 47.9718 32.7638 29.0753 32.7638 29.0753C29.6307 26.7633 27.9829 26.7269 24.8847 29.0753C24.8847 29.0753 -0.10469 47.9565 0.105639 48.5374L0.100586 48.5417C0.103169 48.5467 0.107324 48.5502 0.110805 48.5548C0.322699 49.1325 0.630975 49.67 1.02253 50.1446C1.18794 50.3452 1.38727 50.5131 1.57896 50.6878L1.56964 50.695C1.58491 50.7085 1.60523 50.7148 1.62051 50.7284C2.43296 51.4532 3.45755 51.9226 4.59578 52.0565C4.61363 52.0587 4.628 52.068 4.64586 52.0701H4.71458C4.88763 52.0866 5.05214 52.1282 5.22935 52.1282H52.4744C54.8009 52.1282 56.7719 50.6652 57.5548 48.6143C57.5641 48.5991 57.5785 48.5881 57.587 48.5723L57.5716 48.5608Z" fill="#96A9B2"/>
<path d="M28.8585 26.9067L0.232422 48.3763V17.9611C0.232422 14.9965 2.63521 12.5938 5.59981 12.5938H52.1171C55.0817 12.5938 57.4845 14.9965 57.4845 17.9611V48.3763L28.8585 26.9067Z" fill="#B9C5C6"/>
<path d="M0.566406 16.0956L25.007 35.2925C28.0917 37.5688 29.7142 37.6047 32.7647 35.2925L57.1668 16.1261C56.7435 15.3586 56.1097 14.7523 55.3848 14.2689L55.7205 14.0059C54.9013 13.2602 53.8541 12.7767 52.6917 12.6519L5.02735 12.6535C3.86823 12.7767 2.81939 13.2618 2.00188 14.0059L2.33506 14.2657C1.61862 14.7424 0.990659 15.3382 0.566406 16.0956Z" fill="#EDECE6"/>
<path d="M0.558993 16.1351C0.344396 16.7151 24.9846 35.3202 24.9846 35.3202C28.0694 37.5965 29.6918 37.6325 32.7423 35.3202C32.7423 35.3202 57.3466 16.7301 57.1394 16.1581L57.1445 16.1539C57.142 16.1489 57.1379 16.1456 57.1345 16.141C56.9259 15.5723 56.6224 15.043 56.2368 14.5757C56.074 14.3782 55.8777 14.2129 55.689 14.0409L55.6982 14.0338C55.6832 14.0204 55.6632 14.0141 55.6482 14.0008C54.8482 13.2872 53.8394 12.825 52.7188 12.6931C52.7013 12.6909 52.687 12.6819 52.6695 12.6797H52.6019C52.4316 12.6634 52.2695 12.6226 52.095 12.6226H5.57771C3.2871 12.6226 1.34641 14.0631 0.575725 16.0823C0.566517 16.0973 0.552367 16.1082 0.543945 16.1236L0.558993 16.1351Z" fill="#DCE2E2"/>
<path d="M32.8192 18.2004H28.481C28.2976 18.2004 28.1218 18.2733 27.9922 18.4029C27.8626 18.5325 27.7898 18.7083 27.7898 18.8916V21.3309C27.7898 21.5142 27.8626 21.69 27.9922 21.8197C28.1218 21.9493 28.2976 22.0221 28.481 22.0221H32.0087C32.192 22.0221 32.3678 22.0949 32.4975 22.2245C32.6271 22.3542 32.6999 22.53 32.6999 22.7133V24.0177C32.6999 24.201 32.6271 24.3768 32.4975 24.5064C32.3678 24.6361 32.192 24.7089 32.0087 24.7089H28.481C28.2976 24.7089 28.1218 24.7817 27.9922 24.9113C27.8626 25.0409 27.7898 25.2167 27.7898 25.4001V28.0478C27.7898 28.2311 27.8626 28.4069 27.9922 28.5365C28.1218 28.6661 28.2976 28.7389 28.481 28.7389H33.1206C33.3039 28.7389 33.4797 28.8118 33.6093 28.9414C33.7389 29.071 33.8117 29.2468 33.8117 29.4301V30.8272C33.8117 31.0105 33.7389 31.1863 33.6093 31.3159C33.4797 31.4456 33.3039 31.5184 33.1206 31.5184H24.6131C24.4297 31.5184 24.2539 31.4456 24.1243 31.3159C23.9947 31.1863 23.9219 31.0105 23.9219 30.8272V16.1585C23.9219 15.9752 23.9947 15.7993 24.1243 15.6697C24.2539 15.5401 24.4297 15.4673 24.6131 15.4673H33.0139C33.4349 15.4673 33.7581 15.8403 33.698 16.2571L33.5034 17.6078C33.4797 17.7723 33.3974 17.9228 33.2718 18.0317C33.1461 18.1405 32.9854 18.2004 32.8192 18.2004Z" fill="#597B91"/>
</g>
<defs>
<clipPath id="clip0_1635_19523">
<rect width="57.4953" height="57.4954" fill="white" transform="translate(0.0957031 0.834473)"/>
</clipPath>
</defs>
</svg>
