<svg width="24" height="24" viewBox="0 0 24 24" fill="none" xmlns="http://www.w3.org/2000/svg">
<path d="M12.0026 17.832C12.3332 17.832 12.6104 17.72 12.8344 17.496C13.0577 17.2728 13.1693 16.9959 13.1693 16.6654V11.9695C13.1693 11.639 13.0577 11.3668 12.8344 11.1529C12.6104 10.939 12.3332 10.832 12.0026 10.832C11.672 10.832 11.3952 10.9436 11.1719 11.1669C10.9479 11.3909 10.8359 11.6681 10.8359 11.9987V16.6945C10.8359 17.0251 10.9479 17.2973 11.1719 17.5112C11.3952 17.7251 11.672 17.832 12.0026 17.832ZM12.0026 8.4987C12.3332 8.4987 12.6104 8.3867 12.8344 8.1627C13.0577 7.93948 13.1693 7.66259 13.1693 7.33203C13.1693 7.00148 13.0577 6.7242 12.8344 6.5002C12.6104 6.27698 12.3332 6.16537 12.0026 6.16537C11.672 6.16537 11.3952 6.27698 11.1719 6.5002C10.9479 6.7242 10.8359 7.00148 10.8359 7.33203C10.8359 7.66259 10.9479 7.93948 11.1719 8.1627C11.3952 8.3867 11.672 8.4987 12.0026 8.4987ZM12.0026 23.6654C10.3887 23.6654 8.87205 23.3589 7.45261 22.746C6.03316 22.1339 4.79844 21.3029 3.74844 20.2529C2.69844 19.2029 1.86738 17.9681 1.25527 16.5487C0.642382 15.1293 0.335938 13.6126 0.335938 11.9987C0.335938 10.3848 0.642382 8.86814 1.25527 7.4487C1.86738 6.02925 2.69844 4.79453 3.74844 3.74453C4.79844 2.69453 6.03316 1.86309 7.45261 1.2502C8.87205 0.638087 10.3887 0.332031 12.0026 0.332031C13.6165 0.332031 15.1332 0.638087 16.5526 1.2502C17.972 1.86309 19.2068 2.69453 20.2568 3.74453C21.3068 4.79453 22.1378 6.02925 22.7499 7.4487C23.3628 8.86814 23.6693 10.3848 23.6693 11.9987C23.6693 13.6126 23.3628 15.1293 22.7499 16.5487C22.1378 17.9681 21.3068 19.2029 20.2568 20.2529C19.2068 21.3029 17.972 22.1339 16.5526 22.746C15.1332 23.3589 13.6165 23.6654 12.0026 23.6654ZM12.0026 21.332C14.5887 21.332 16.791 20.4232 18.6094 18.6055C20.4271 16.7871 21.3359 14.5848 21.3359 11.9987C21.3359 9.41259 20.4271 7.21031 18.6094 5.39186C16.791 3.5742 14.5887 2.66536 12.0026 2.66536C9.41649 2.66536 7.2146 3.5742 5.39694 5.39186C3.57849 7.21031 2.66927 9.41259 2.66927 11.9987C2.66927 14.5848 3.57849 16.7871 5.39694 18.6055C7.2146 20.4232 9.41649 21.332 12.0026 21.332Z" fill="#9C74F5"/>
</svg>
