<svg width="25" height="24" viewBox="0 0 25 24" fill="none" xmlns="http://www.w3.org/2000/svg">
<path d="M18.0361 11.577C18.5159 11.5829 18.9921 11.4927 19.4365 11.3116C19.8809 11.1306 20.2845 10.8624 20.6236 10.5228L24.0138 7.13262C24.2369 6.90817 24.3621 6.60456 24.3621 6.28808C24.3621 5.9716 24.2369 5.66798 24.0138 5.44353C23.9024 5.33125 23.7699 5.24213 23.6239 5.18131C23.4779 5.1205 23.3214 5.08918 23.1632 5.08918C23.0051 5.08918 22.8485 5.1205 22.7025 5.18131C22.5566 5.24213 22.4241 5.33125 22.3127 5.44353L18.8866 8.82171C18.7752 8.93399 18.6427 9.02311 18.4968 9.08393C18.3508 9.14475 18.1942 9.17606 18.0361 9.17606C17.8779 9.17606 17.7213 9.14475 17.5754 9.08393C17.4294 9.02311 17.2969 8.93399 17.1855 8.82171L21.4262 4.593C21.5379 4.4813 21.6265 4.3487 21.687 4.20277C21.7474 4.05683 21.7785 3.90042 21.7785 3.74246C21.7785 3.5845 21.7474 3.42809 21.687 3.28216C21.6265 3.13622 21.5379 3.00362 21.4262 2.89193C21.3145 2.78023 21.1819 2.69163 21.036 2.63119C20.8901 2.57074 20.7336 2.53962 20.5757 2.53962C20.4177 2.53962 20.2613 2.57074 20.1154 2.63119C19.9694 2.69163 19.8368 2.78023 19.7252 2.89193L15.4964 7.13262C15.2733 6.90817 15.1481 6.60456 15.1481 6.28808C15.1481 5.9716 15.2733 5.66798 15.4964 5.44353L18.8866 2.05337C18.9983 1.94168 19.0869 1.80908 19.1473 1.66314C19.2078 1.51721 19.2389 1.3608 19.2389 1.20284C19.2389 1.04488 19.2078 0.888467 19.1473 0.742532C19.0869 0.596597 18.9983 0.463997 18.8866 0.352303C18.7749 0.240609 18.6423 0.152009 18.4964 0.0915606C18.3504 0.0311124 18.194 -3.11375e-09 18.0361 0C17.8781 3.11375e-09 17.7217 0.0311124 17.5758 0.0915606C17.4298 0.152009 17.2972 0.240609 17.1855 0.352303L13.7954 3.74246C13.1224 4.4163 12.7443 5.32973 12.7443 6.28209C12.7443 7.23445 13.1224 8.14787 13.7954 8.82171L12.2381 10.367L2.33112 0.424179L2.21132 0.352303C2.15009 0.298875 2.08151 0.254499 2.00768 0.22053L1.79205 0.136674L1.64829 0.0408397H1.56444H1.32485C1.25343 0.0294192 1.18065 0.0294192 1.10922 0.0408397C1.0367 0.0672353 0.968172 0.103516 0.905574 0.148654L0.713904 0.268448H0.630049L0.558172 0.388241C0.507471 0.451491 0.46332 0.519724 0.4264 0.59189C0.391316 0.664938 0.363238 0.741149 0.342544 0.819498C0.342544 0.819498 0.342544 0.903354 0.342544 0.951271C0.0518471 2.97747 0.237185 5.04354 0.883864 6.98565C1.53054 8.92777 2.62078 10.6925 4.06813 12.14L7.23068 15.2906L0.749842 21.7594C0.637562 21.8708 0.548442 22.0033 0.487624 22.1493C0.426807 22.2952 0.395495 22.4518 0.395495 22.61C0.395495 22.7681 0.426807 22.9247 0.487624 23.0707C0.548442 23.2166 0.637562 23.3491 0.749842 23.4605C0.861778 23.5715 0.994528 23.6594 1.14048 23.719C1.28644 23.7786 1.44272 23.8088 1.60038 23.8079C1.75803 23.8088 1.91432 23.7786 2.06027 23.719C2.20623 23.6594 2.33898 23.5715 2.45091 23.4605L9.72238 16.2968L13.1125 12.9067L15.5084 10.5108C16.1768 11.1864 17.0857 11.5698 18.0361 11.577ZM8.87185 13.7572L5.72128 10.5947C3.9944 8.84415 2.91313 6.55913 2.65456 4.11382L10.5729 12.0202L8.87185 13.7572ZM16.347 14.44C16.1214 14.2129 15.8148 14.0846 15.4947 14.0835C15.1745 14.0824 14.8671 14.2085 14.6399 14.434C14.4127 14.6596 14.2845 14.9662 14.2834 15.2863C14.2823 15.6065 14.4083 15.9139 14.6339 16.1411L22.1809 23.6881C22.4097 23.8963 22.7102 24.0079 23.0195 23.9996C23.1771 24.0005 23.3334 23.9703 23.4794 23.9106C23.6253 23.851 23.7581 23.7632 23.87 23.6522C23.9823 23.5408 24.0714 23.4083 24.1322 23.2623C24.193 23.1163 24.2244 22.9598 24.2244 22.8016C24.2244 22.6435 24.193 22.4869 24.1322 22.3409C24.0714 22.195 23.9823 22.0625 23.87 21.9511L16.347 14.44Z" fill="black"/>
</svg>
