<svg width="47" height="34" viewBox="0 0 47 34" fill="none" xmlns="http://www.w3.org/2000/svg">
<path d="M42.8274 2.93091C45.5424 5.65051 47 8.70074 47 13.6452C47 22.346 40.5237 30.1443 31.1058 34L28.7519 30.5744C37.5425 26.0898 39.2611 20.2702 39.9464 16.601C38.531 17.2921 36.678 17.5332 34.8619 17.3741C30.1068 16.959 26.3586 13.2773 26.3586 8.70074C26.3586 6.39316 27.3306 4.18009 29.0607 2.54839C30.7908 0.916683 33.1373 0 35.5841 0C38.4124 0 41.1168 1.21811 42.8274 2.93091ZM16.4688 2.93091C19.1838 5.65051 20.6414 8.70074 20.6414 13.6452C20.6414 22.346 14.1651 30.1443 4.74718 34L2.39336 30.5744C11.1839 26.0898 12.9025 20.2702 13.5879 16.601C12.1724 17.2921 10.3194 17.5332 8.50328 17.3741C3.74819 16.959 0 13.2773 0 8.70074C0 6.39316 0.97197 4.18009 2.70209 2.54839C4.43221 0.916683 6.77875 0 9.22551 0C12.0538 0 14.7582 1.21811 16.4688 2.93091Z" fill="black"/>
</svg>
