<svg width="47" height="34" viewBox="0 0 47 34" fill="none" xmlns="http://www.w3.org/2000/svg">
<path d="M4.17257 31.0691C1.45763 28.3495 0 25.2993 0 20.3548C0 11.654 6.47631 3.85567 15.8942 0L18.2481 3.42561C9.45746 7.91021 7.73888 13.7298 7.05356 17.399C8.46902 16.7079 10.322 16.4668 12.1381 16.6259C16.8932 17.041 20.6414 20.7227 20.6414 25.2993C20.6414 27.6068 19.6694 29.8199 17.9393 31.4516C16.2092 33.0833 13.8627 34 11.4159 34C8.58763 34 5.88324 32.7819 4.17257 31.0691ZM30.5312 31.0691C27.8162 28.3495 26.3586 25.2993 26.3586 20.3548C26.3586 11.654 32.8349 3.85567 42.2528 0L44.6066 3.42561C35.8161 7.91021 34.0975 13.7298 33.4121 17.399C34.8276 16.7079 36.6806 16.4668 38.4967 16.6259C43.2518 17.041 47 20.7227 47 25.2993C47 27.6068 46.028 29.8199 44.2979 31.4516C42.5678 33.0833 40.2212 34 37.7745 34C34.9462 34 32.2418 32.7819 30.5312 31.0691Z" fill="black"/>
</svg>
