<svg width="27" height="20" viewBox="0 0 27 20" fill="none" xmlns="http://www.w3.org/2000/svg">
<path d="M5.63368 0.355395C5.52475 0.244259 5.395 0.155675 5.25183 0.094704C5.10865 0.0337333 4.95487 0.0015713 4.79927 5.61521e-05C4.64366 -0.001459 4.48928 0.027702 4.34495 0.0858732C4.20062 0.144044 4.06916 0.230086 3.9581 0.33908C2.70174 1.58814 1.70514 3.07362 1.0258 4.7098C0.346462 6.34598 -0.00217314 8.10049 1.01917e-05 9.8721C-0.00202751 11.7117 0.374045 13.532 1.10489 15.2202C1.83573 16.9084 2.90574 18.4283 4.24851 19.6857C4.47451 19.8946 4.77303 20.0073 5.08071 19.9996C5.38838 19.992 5.68097 19.8648 5.89635 19.645C6.41191 19.1294 6.34828 18.3087 5.8523 17.834C4.77467 16.807 3.91713 15.5716 3.33178 14.2029C2.74644 12.8342 2.44551 11.3607 2.4473 9.8721C2.4473 6.8603 3.65626 4.12912 5.61736 2.14192C6.0905 1.66062 6.13945 0.861169 5.63368 0.355395ZM8.5068 3.23178C8.29192 3.01069 7.99817 2.88379 7.6899 2.8789C7.38163 2.874 7.084 2.99151 6.86222 3.20567C5.97948 4.07684 5.2788 5.11485 4.80096 6.25933C4.32311 7.4038 4.07764 8.63188 4.07883 9.8721C4.07691 11.1834 4.3509 12.4805 4.883 13.6791C5.41509 14.8776 6.19338 15.9508 7.16731 16.8289C7.39123 17.0268 7.6827 17.1309 7.98129 17.1196C8.27987 17.1084 8.56269 16.9827 8.7711 16.7686C9.30624 16.2334 9.20672 15.3916 8.70421 14.9184C8.01539 14.2709 7.46671 13.489 7.09207 12.621C6.71744 11.7531 6.52482 10.8175 6.52612 9.8721C6.52612 7.99584 7.27173 6.29253 8.48395 5.04277C8.95057 4.56311 9.02726 3.74897 8.5068 3.23015V3.23178ZM17.5977 3.23178C17.8125 3.01069 18.1063 2.88379 18.4146 2.8789C18.7228 2.874 19.0205 2.99151 19.2423 3.20567C20.125 4.07684 20.8257 5.11485 21.3035 6.25933C21.7814 7.4038 22.0268 8.63188 22.0256 9.8721C22.0276 11.1834 21.7536 12.4805 21.2215 13.6791C20.6894 14.8776 19.9111 15.9508 18.9372 16.8289C18.7132 17.0268 18.4218 17.1309 18.1232 17.1196C17.8246 17.1084 17.5418 16.9827 17.3334 16.7686C16.7982 16.2334 16.8977 15.3916 17.4003 14.9184C18.0891 14.2709 18.6378 13.489 19.0124 12.621C19.387 11.7531 19.5796 10.8175 19.5783 9.8721C19.5783 7.99584 18.8327 6.29253 17.6205 5.04277C17.1539 4.56311 17.0772 3.74897 17.5977 3.23015V3.23178ZM20.4708 0.357027C20.5797 0.245891 20.7095 0.157306 20.8526 0.0963354C20.9958 0.0353647 21.1496 0.0032031 21.3052 0.00168795C21.4608 0.0001728 21.6152 0.0293334 21.7595 0.0875046C21.9039 0.145676 22.0353 0.231717 22.1464 0.340712C23.4025 1.58958 24.399 3.07479 25.0784 4.71068C25.7577 6.34657 26.1064 8.10076 26.1045 9.8721C26.1065 11.7117 25.7304 13.532 24.9996 15.2202C24.2687 16.9084 23.1987 18.4283 21.856 19.6857C21.63 19.8946 21.3314 20.0073 21.0238 19.9996C20.7161 19.992 20.4235 19.8648 20.2081 19.645C19.6926 19.1294 19.7562 18.3087 20.2538 17.834C21.3311 16.8068 22.1884 15.5714 22.7734 14.2027C23.3585 12.834 23.6592 11.3606 23.6572 9.8721C23.6572 6.8603 22.4482 4.12912 20.4871 2.14192C20.014 1.66062 19.965 0.861169 20.4708 0.355395V0.357027ZM13.0522 7.42481C12.4032 7.42481 11.7807 7.68264 11.3217 8.1416C10.8628 8.60056 10.6049 9.22303 10.6049 9.8721C10.6049 10.5212 10.8628 11.1436 11.3217 11.6026C11.7807 12.0616 12.4032 12.3194 13.0522 12.3194C13.7013 12.3194 14.3238 12.0616 14.7827 11.6026C15.2417 11.1436 15.4995 10.5212 15.4995 9.8721C15.4995 9.22303 15.2417 8.60056 14.7827 8.1416C14.3238 7.68264 13.7013 7.42481 13.0522 7.42481Z" fill="#7282FB"/>
</svg>
