<svg width="18" height="18" viewBox="0 0 18 18" fill="none" xmlns="http://www.w3.org/2000/svg">
<path d="M12.8642 11.961L14.9347 9.9L6.30157 9.9C6.06282 9.9 5.83384 9.80518 5.66502 9.6364C5.49619 9.46761 5.40135 9.2387 5.40135 9C5.40135 8.76131 5.49619 8.53239 5.66502 8.3636C5.83384 8.19482 6.06282 8.1 6.30157 8.1L14.9347 8.1L12.8642 6.039C12.7798 5.95533 12.7129 5.85579 12.6672 5.74612C12.6215 5.63645 12.5979 5.51881 12.5979 5.4C12.5979 5.28119 12.6215 5.16355 12.6672 5.05388C12.7129 4.94421 12.7798 4.84467 12.8642 4.761C12.9479 4.67665 13.0475 4.60969 13.1572 4.564C13.2669 4.51831 13.3845 4.49478 13.5034 4.49478C13.6222 4.49478 13.7399 4.51831 13.8496 4.564C13.9593 4.60969 14.0588 4.67665 14.1425 4.761L17.7434 8.361C17.8254 8.44659 17.8896 8.54752 17.9325 8.658C18.0225 8.87712 18.0225 9.12288 17.9325 9.342C17.8896 9.45248 17.8254 9.55341 17.7434 9.639L14.1425 13.239C14.0586 13.3229 13.9589 13.3895 13.8493 13.4349C13.7396 13.4803 13.6221 13.5037 13.5034 13.5037C13.3847 13.5037 13.2671 13.4803 13.1575 13.4349C13.0478 13.3895 12.9481 13.3229 12.8642 13.239C12.7803 13.1551 12.7137 13.0555 12.6683 12.9458C12.6228 12.8362 12.5995 12.7187 12.5995 12.6C12.5995 12.4813 12.6228 12.3638 12.6683 12.2542C12.7137 12.1445 12.7803 12.0449 12.8642 11.961ZM9.00224 0.9C9.00224 1.13869 8.9074 1.36761 8.73858 1.5364C8.56975 1.70518 8.34078 1.8 8.10202 1.8H2.70067C2.46192 1.8 2.23294 1.89482 2.06412 2.0636C1.89529 2.23239 1.80045 2.46131 1.80045 2.7L1.80045 15.3C1.80045 15.5387 1.89529 15.7676 2.06412 15.9364C2.23294 16.1052 2.46192 16.2 2.70067 16.2L8.10202 16.2C8.34078 16.2 8.56975 16.2948 8.73858 16.4636C8.9074 16.6324 9.00224 16.8613 9.00224 17.1C9.00224 17.3387 8.9074 17.5676 8.73858 17.7364C8.56975 17.9052 8.34078 18 8.10202 18H2.70067C1.98441 18 1.29748 17.7155 0.79101 17.2092C0.284534 16.7028 0 16.0161 0 15.3L0 2.7C0 1.98392 0.284534 1.29716 0.79101 0.790812C1.29748 0.284464 1.98441 0 2.70067 0H8.10202C8.34078 0 8.56975 0.09482 8.73858 0.263603C8.9074 0.432386 9.00224 0.661306 9.00224 0.9Z" fill="black"/>
</svg>
