<svg width="25" height="24" viewBox="0 0 25 24" fill="none" xmlns="http://www.w3.org/2000/svg">
<path d="M3.88584 22.8C3.22584 22.8 2.66064 22.5648 2.19024 22.0944C1.71984 21.624 1.48504 21.0592 1.48584 20.4V3.60001C1.48584 2.94001 1.72104 2.37481 2.19144 1.90441C2.66184 1.43401 3.22664 1.19921 3.88584 1.20001H20.6858C21.3458 1.20001 21.911 1.43521 22.3814 1.90561C22.8518 2.37601 23.0866 2.94081 23.0858 3.60001V20.4C23.0858 21.06 22.8506 21.6252 22.3802 22.0956C21.9098 22.566 21.345 22.8008 20.6858 22.8H3.88584ZM3.88584 20.4H20.6858V3.60001H3.88584V20.4ZM7.48584 18C7.82584 18 8.11104 17.8848 8.34144 17.6544C8.57184 17.424 8.68664 17.1392 8.68584 16.8C8.68584 16.46 8.57064 16.1748 8.34024 15.9444C8.10984 15.714 7.82504 15.5992 7.48584 15.6C7.14584 15.6 6.86064 15.7152 6.63024 15.9456C6.39984 16.176 6.28504 16.4608 6.28584 16.8C6.28584 17.14 6.40104 17.4252 6.63144 17.6556C6.86184 17.886 7.14664 18.0008 7.48584 18ZM7.48584 13.2C7.82584 13.2 8.11104 13.0848 8.34144 12.8544C8.57184 12.624 8.68664 12.3392 8.68584 12C8.68584 11.66 8.57064 11.3748 8.34024 11.1444C8.10984 10.914 7.82504 10.7992 7.48584 10.8C7.14584 10.8 6.86064 10.9152 6.63024 11.1456C6.39984 11.376 6.28504 11.6608 6.28584 12C6.28584 12.34 6.40104 12.6252 6.63144 12.8556C6.86184 13.086 7.14664 13.2008 7.48584 13.2ZM7.48584 8.40001C7.82584 8.40001 8.11104 8.28481 8.34144 8.05441C8.57184 7.82401 8.68664 7.53921 8.68584 7.20001C8.68584 6.86001 8.57064 6.57481 8.34024 6.34441C8.10984 6.11401 7.82504 5.99921 7.48584 6.00001C7.14584 6.00001 6.86064 6.11521 6.63024 6.34561C6.39984 6.57601 6.28504 6.86081 6.28584 7.20001C6.28584 7.54001 6.40104 7.82521 6.63144 8.05561C6.86184 8.28601 7.14664 8.40081 7.48584 8.40001ZM12.2858 18H17.0858C17.4258 18 17.711 17.8848 17.9414 17.6544C18.1718 17.424 18.2866 17.1392 18.2858 16.8C18.2858 16.46 18.1706 16.1748 17.9402 15.9444C17.7098 15.714 17.425 15.5992 17.0858 15.6H12.2858C11.9458 15.6 11.6606 15.7152 11.4302 15.9456C11.1998 16.176 11.085 16.4608 11.0858 16.8C11.0858 17.14 11.201 17.4252 11.4314 17.6556C11.6618 17.886 11.9466 18.0008 12.2858 18ZM12.2858 13.2H17.0858C17.4258 13.2 17.711 13.0848 17.9414 12.8544C18.1718 12.624 18.2866 12.3392 18.2858 12C18.2858 11.66 18.1706 11.3748 17.9402 11.1444C17.7098 10.914 17.425 10.7992 17.0858 10.8H12.2858C11.9458 10.8 11.6606 10.9152 11.4302 11.1456C11.1998 11.376 11.085 11.6608 11.0858 12C11.0858 12.34 11.201 12.6252 11.4314 12.8556C11.6618 13.086 11.9466 13.2008 12.2858 13.2ZM12.2858 8.40001H17.0858C17.4258 8.40001 17.711 8.28481 17.9414 8.05441C18.1718 7.82401 18.2866 7.53921 18.2858 7.20001C18.2858 6.86001 18.1706 6.57481 17.9402 6.34441C17.7098 6.11401 17.425 5.99921 17.0858 6.00001H12.2858C11.9458 6.00001 11.6606 6.11521 11.4302 6.34561C11.1998 6.57601 11.085 6.86081 11.0858 7.20001C11.0858 7.54001 11.201 7.82521 11.4314 8.05561C11.6618 8.28601 11.9466 8.40081 12.2858 8.40001Z" fill="black"/>
</svg>
