<svg width="128" height="143" viewBox="0 0 128 143" fill="none" xmlns="http://www.w3.org/2000/svg">
<path d="M117.043 53.318L117.223 53.1476L125.36 45.7243C125.814 45.3093 126.175 44.8167 126.421 44.2745C126.667 43.7322 126.794 43.1511 126.794 42.5642C126.794 41.9773 126.667 41.3961 126.421 40.8539C126.175 40.3117 125.814 39.8191 125.36 39.4041L118.42 33.07C117.965 32.6549 117.425 32.3257 116.831 32.101C116.237 31.8764 115.6 31.7608 114.957 31.7608C114.314 31.7608 113.678 31.8764 113.084 32.101C112.489 32.3257 111.95 32.6549 111.495 33.07L103.943 39.9627C95.1823 33.3904 84.6463 29.0892 73.4388 27.5094V17.8741H83.2305C84.529 17.8741 85.7743 17.4033 86.6924 16.5653C87.6106 15.7273 88.1264 14.5907 88.1264 13.4056V4.46853C88.1264 3.28341 87.6106 2.14682 86.6924 1.3088C85.7743 0.470791 84.529 0 83.2305 0L44.0635 0C42.7663 0.00368275 41.5233 0.475656 40.606 1.31287C39.6888 2.15009 39.1717 3.28454 39.1676 4.46853V13.4056C39.1717 14.5896 39.6888 15.7241 40.606 16.5613C41.5233 17.3985 42.7663 17.8705 44.0635 17.8741H53.8553V27.5094C39.1858 29.589 25.775 36.2852 15.9448 46.4386C6.11466 56.592 0.484117 69.5632 0.0281287 83.1064C-1.02755 114.925 27.7725 142.496 62.6434 142.993C98.2639 143.487 127.293 117.299 127.293 84.9022C127.322 73.6872 123.759 62.7091 117.043 53.318ZM57.6404 105.443C58.3054 105.435 58.947 105.667 59.4244 106.089C59.9017 106.512 60.1758 107.09 60.1862 107.697V113.928C60.1758 114.535 59.9017 115.113 59.4244 115.536C58.947 115.959 58.3054 116.191 57.6404 116.182H32.2889C31.5927 116.189 30.9023 116.065 30.2615 115.816C29.6206 115.568 29.0431 115.201 28.5655 114.739C28.0879 114.276 27.7206 113.728 27.4866 113.13C27.2527 112.531 27.1573 111.895 27.2064 111.261C28.057 101.425 31.6953 95.2273 38.9718 85.7428C45.2202 77.5905 47.2642 75.3199 47.2642 68.3323C47.2642 63.6068 46.7165 61.5541 43.528 61.5541C40.6547 61.5541 39.645 63.6208 39.645 67.8882V69.3489C39.6398 69.6496 39.5697 69.9465 39.4388 70.2225C39.3079 70.4986 39.1187 70.7484 38.882 70.9577C38.6453 71.167 38.3658 71.3317 38.0593 71.4423C37.7529 71.553 37.4256 71.6075 37.0961 71.6027H29.4768C29.1473 71.6075 28.82 71.553 28.5136 71.4423C28.2071 71.3317 27.9276 71.167 27.6909 70.9577C27.4542 70.7484 27.265 70.4986 27.1341 70.2225C27.0031 69.9465 26.9331 69.6496 26.9279 69.3489V68.2122C26.9279 60.5877 29.5227 51.3881 44.1951 51.3881C57.3527 51.3881 61.1991 58.6076 61.1991 68.4244C61.1991 78.3613 57.3925 82.7265 50.6882 91.133C47.151 95.3222 43.1578 101.067 42.607 105.432L57.6404 105.443ZM100.366 98.3971C100.366 108.217 96.6024 116.182 82.8542 116.182C69.519 116.182 66.095 107.937 66.095 98.4614V69.0444C66.095 57.6692 72.0863 51.3881 83.2917 51.3881C94.5523 51.3881 100.366 57.7111 100.366 68.5082V98.3971ZM83.1908 61.9255C80.3114 61.9255 79.1425 64.0201 79.1425 67.5112V99.8941C79.1425 103.555 80.241 105.645 83.1908 105.645C86.1405 105.645 87.1687 103.41 87.1687 99.7042V67.3241C87.1748 64.1765 86.2537 61.9255 83.1908 61.9255Z" fill="white" fill-opacity="0.2"/>
</svg>
