<svg width="147" height="148" viewBox="0 0 147 148" fill="none" xmlns="http://www.w3.org/2000/svg">
<path d="M73.5 0.980469C81.2974 0.980469 88.7754 4.42212 94.2889 10.5483C99.8025 16.6745 102.9 24.9834 102.9 33.6471C102.9 39.6088 101.503 45.1621 98.931 49.9805H117.6C124.582 49.9805 130.463 55.4521 131.933 62.7205C146.706 128.135 147 129.85 147 131.647C147 135.979 145.451 140.133 142.694 143.197C139.938 146.26 136.199 147.98 132.3 147.98H14.7C10.8013 147.98 7.06231 146.26 4.30553 143.197C1.54874 140.133 0 135.979 0 131.647C0 129.85 0.294002 128.135 15.0675 62.7205C16.5375 55.4521 22.4175 49.9805 29.4 49.9805H48.069C45.4416 45.0347 44.0699 39.3901 44.1 33.6471C44.1 24.9834 47.1975 16.6745 52.7111 10.5483C58.2246 4.42212 65.7026 0.980469 73.5 0.980469ZM73.5 17.3138C69.6013 17.3138 65.8623 19.0346 63.1055 22.0977C60.3487 25.1608 58.8 29.3153 58.8 33.6471C58.8 37.979 60.3487 42.1335 63.1055 45.1965C65.8623 48.2596 69.6013 49.9805 73.5 49.9805C77.3987 49.9805 81.1377 48.2596 83.8945 45.1965C86.6512 42.1335 88.2 37.979 88.2 33.6471C88.2 29.3153 86.6512 25.1608 83.8945 22.0977C81.1377 19.0346 77.3987 17.3138 73.5 17.3138ZM29.4 66.3138V131.647H44.1V111.23L51.45 119.397V131.647H66.15V115.314L51.45 98.9805L66.15 82.6471V66.3138H51.45V78.5638L44.1 86.7305V66.3138H29.4ZM95.55 66.3138C87.3915 66.3138 80.85 73.5821 80.85 82.6471V115.314C80.85 124.379 87.3915 131.647 95.55 131.647H117.6V90.8138H102.9V115.314H95.55V82.6471H117.6V66.3138H95.55Z" fill="white" fill-opacity="0.2"/>
</svg>
