<svg width="28" height="25" viewBox="0 0 28 25" fill="none" xmlns="http://www.w3.org/2000/svg">
<path d="M13.7096 0C15.164 0 16.5588 0.585316 17.5872 1.62718C18.6156 2.66905 19.1934 4.08213 19.1934 5.55556C19.1934 6.56944 18.9329 7.51389 18.4531 8.33333H21.9353C23.2377 8.33333 24.3345 9.26389 24.6087 10.5C27.3643 21.625 27.4191 21.9167 27.4191 22.2222C27.4191 22.9589 27.1303 23.6655 26.6161 24.1864C26.1018 24.7073 25.4044 25 24.6772 25H2.74191C2.01471 25 1.3173 24.7073 0.803088 24.1864C0.288879 23.6655 0 22.9589 0 22.2222C0 21.9167 0.0548386 21.625 2.81046 10.5C3.08465 9.26389 4.18142 8.33333 5.48383 8.33333H8.96606C8.47598 7.49222 8.22014 6.53225 8.22574 5.55556C8.22574 4.08213 8.8035 2.66905 9.83192 1.62718C10.8603 0.585316 12.2552 0 13.7096 0ZM13.7096 2.77778C12.9824 2.77778 12.285 3.07044 11.7707 3.59137C11.2565 4.1123 10.9677 4.81884 10.9677 5.55556C10.9677 6.29227 11.2565 6.99881 11.7707 7.51974C12.285 8.04067 12.9824 8.33333 13.7096 8.33333C14.4368 8.33333 15.1342 8.04067 15.6484 7.51974C16.1626 6.99881 16.4515 6.29227 16.4515 5.55556C16.4515 4.81884 16.1626 4.1123 15.6484 3.59137C15.1342 3.07044 14.4368 2.77778 13.7096 2.77778ZM5.48383 11.1111V22.2222H8.22574V18.75L9.5967 20.1389V22.2222H12.3386V19.4444L9.5967 16.6667L12.3386 13.8889V11.1111H9.5967V13.1944L8.22574 14.5833V11.1111H5.48383ZM17.8224 11.1111C16.3007 11.1111 15.0805 12.3472 15.0805 13.8889V19.4444C15.0805 20.9861 16.3007 22.2222 17.8224 22.2222H21.9353V15.2778H19.1934V19.4444H17.8224V13.8889H21.9353V11.1111H17.8224Z" fill="white"/>
</svg>
