<svg width="29" height="30" viewBox="0 0 29 30" fill="none" xmlns="http://www.w3.org/2000/svg">
<path d="M10.2947 3.05182C9.28152 5.33054 8.96675 7.87624 9.39277 10.346C9.81878 12.8157 10.9651 15.0909 12.6773 16.8649C14.3896 18.639 16.5854 19.8267 18.9691 20.2681C21.3528 20.7095 23.8098 20.3834 26.0091 19.3336C24.7009 25.4373 19.4456 30 13.1612 30C5.89226 30 0 23.895 0 16.3636C0 9.85227 4.40373 4.40727 10.2947 3.05182ZM21.2737 3.12409L22.374 3.40909V4.77273L21.2737 5.05773C20.811 5.17764 20.3884 5.42557 20.0511 5.77504C19.7138 6.12451 19.4745 6.56237 19.3588 7.04182L19.0837 8.18182H17.7676L17.4925 7.04182C17.3768 6.56237 17.1375 6.12451 16.8002 5.77504C16.4629 5.42557 16.0403 5.17764 15.5776 5.05773L14.4773 4.77273V3.40909L15.5776 3.12409C16.0401 3.00397 16.4624 2.75593 16.7994 2.40648C17.1365 2.05703 17.3756 1.61928 17.4912 1.14L17.7676 0H19.0837L19.3588 1.14C19.4745 1.61945 19.7138 2.05731 20.0511 2.40678C20.3884 2.75625 20.811 3.00418 21.2737 3.12409ZM27.8543 9.94227L28.9546 10.2273V11.5909L27.8543 11.8759C27.3916 11.9958 26.969 12.2438 26.6317 12.5932C26.2944 12.9427 26.0551 13.3805 25.9394 13.86L25.6643 15H24.3482L24.0731 13.86C23.9574 13.3805 23.7181 12.9427 23.3808 12.5932C23.0435 12.2438 22.6209 11.9958 22.1582 11.8759L21.0579 11.5909V10.2273L22.1582 9.94227C22.6209 9.82236 23.0435 9.57443 23.3808 9.22496C23.7181 8.87549 23.9574 8.43764 24.0731 7.95818L24.3482 6.81818H25.6643L25.9394 7.95818C26.0551 8.43764 26.2944 8.87549 26.6317 9.22496C26.969 9.57443 27.3916 9.82236 27.8543 9.94227Z" fill="white"/>
</svg>
