<svg width="27" height="30" viewBox="0 0 27 30" fill="none" xmlns="http://www.w3.org/2000/svg">
<path d="M24.7202 11.1856L24.7583 11.1499L26.4768 9.59251C26.5728 9.50545 26.649 9.4021 26.701 9.28835C26.753 9.1746 26.7797 9.05268 26.7797 8.92955C26.7797 8.80642 26.753 8.6845 26.701 8.57075C26.649 8.457 26.5728 8.35365 26.4768 8.26659L25.011 6.93775C24.915 6.85068 24.801 6.78161 24.6755 6.73448C24.5501 6.68736 24.4156 6.6631 24.2798 6.6631C24.144 6.6631 24.0095 6.68736 23.884 6.73448C23.7585 6.78161 23.6445 6.85068 23.5485 6.93775L21.9535 8.38378C20.1031 7.00498 17.8779 6.10263 15.5108 5.77121V3.74982H17.5789C17.8531 3.74982 18.1161 3.65105 18.31 3.47525C18.504 3.29944 18.6129 3.06099 18.6129 2.81236V0.937455C18.6129 0.688826 18.504 0.450381 18.31 0.274574C18.1161 0.0987673 17.8531 0 17.5789 0L9.30651 0C9.03253 0.000772605 8.77001 0.099788 8.57627 0.275428C8.38254 0.451067 8.27332 0.689064 8.27247 0.937455V2.81236C8.27332 3.06076 8.38254 3.29875 8.57627 3.47439C8.77001 3.65003 9.03253 3.74905 9.30651 3.74982H11.3746V5.77121C8.27631 6.20749 5.44385 7.61229 3.36765 9.74237C1.29146 11.8724 0.102249 14.5937 0.00594097 17.4349C-0.217025 24.1102 5.86573 29.8943 13.2307 29.9986C20.754 30.1023 26.8852 24.6082 26.8852 17.8116C26.8914 15.4589 26.1388 13.1558 24.7202 11.1856ZM12.174 22.121C12.3145 22.1191 12.45 22.1679 12.5508 22.2565C12.6517 22.3452 12.7095 22.4665 12.7117 22.5938V23.901C12.7095 24.0283 12.6517 24.1496 12.5508 24.2383C12.45 24.327 12.3145 24.3757 12.174 24.3738H6.81964C6.67259 24.3754 6.52678 24.3493 6.39143 24.2971C6.25607 24.245 6.13411 24.168 6.03324 24.071C5.93236 23.974 5.85477 23.8591 5.80536 23.7335C5.75595 23.6079 5.7358 23.4744 5.74617 23.3415C5.92584 21.2779 6.69426 19.9778 8.23111 17.988C9.55081 16.2777 9.98252 15.8014 9.98252 14.3354C9.98252 13.3441 9.86683 12.9134 9.19341 12.9134C8.58656 12.9134 8.37329 13.347 8.37329 14.2423V14.5487C8.37219 14.6118 8.3574 14.6741 8.32975 14.732C8.3021 14.7899 8.26214 14.8423 8.21215 14.8862C8.16216 14.9301 8.10311 14.9647 8.03839 14.9879C7.97367 15.0111 7.90454 15.0226 7.83494 15.0215H6.22571C6.15611 15.0226 6.08698 15.0111 6.02226 14.9879C5.95754 14.9647 5.89849 14.9301 5.8485 14.8862C5.79851 14.8423 5.75855 14.7899 5.7309 14.732C5.70325 14.6741 5.68846 14.6118 5.68736 14.5487V14.3102C5.68736 12.7107 6.2354 10.7807 9.3343 10.7807C12.1133 10.7807 12.9257 12.2953 12.9257 14.3548C12.9257 16.4394 12.1217 17.3552 10.7057 19.1188C9.9586 19.9977 9.11521 21.2029 8.99888 22.1187L12.174 22.121ZM21.198 20.6428C21.198 22.7028 20.4031 24.3738 17.4994 24.3738C14.6829 24.3738 13.9597 22.6442 13.9597 20.6562V14.4848C13.9597 12.0984 15.2251 10.7807 17.5918 10.7807C19.9701 10.7807 21.198 12.1072 21.198 14.3724V20.6428ZM17.5705 12.9914C16.9623 12.9914 16.7154 13.4308 16.7154 14.1632V20.9568C16.7154 21.7249 16.9474 22.1632 17.5705 22.1632C18.1935 22.1632 18.4106 21.6945 18.4106 20.917V14.1239C18.4119 13.4636 18.2174 12.9914 17.5705 12.9914Z" fill="white"/>
</svg>
