<svg width="21" height="30" viewBox="0 0 21 30" fill="none" xmlns="http://www.w3.org/2000/svg">
<path d="M0 12.1034C0 11.3962 0.335229 10.4986 0.9799 9.3563C1.62457 8.21396 2.26924 7.26201 2.86234 6.52765C3.01706 6.33726 3.22335 6.06528 3.45544 5.76609C3.68752 5.46691 3.84224 5.30372 3.86802 5.27652L4.82214 6.44606C5.54417 7.28921 6.18884 8.24116 6.78194 9.3563C7.37503 10.4714 7.68447 11.369 7.68447 12.1034C7.68447 13.2185 7.32346 14.1976 6.57564 14.9864C5.85361 15.7752 4.95107 16.1831 3.86802 16.1831C2.81076 16.1831 1.88244 15.7752 1.13462 14.9864C0.386801 14.1704 0 13.2185 0 12.1034ZM8.04549 23.3908C8.04549 22.602 8.25179 21.7044 8.66437 20.6437C9.07696 19.6102 9.5927 18.631 10.2116 17.7607C11.3978 16.1015 12.5066 14.7144 13.5897 13.5993C13.6928 13.5177 13.9249 13.3001 14.2601 12.9465L14.9048 13.5993C15.9105 14.6056 17.0451 15.9928 18.3087 17.7335C18.9791 18.6582 19.4948 19.6374 19.9074 20.6709C20.32 21.7044 20.5263 22.602 20.5263 23.3908C20.5263 25.2675 19.9332 26.8178 18.7212 28.0961C17.5093 29.3744 16.0136 30 14.2601 30C12.5066 30 11.0368 29.3472 9.82478 28.0689C8.6128 26.7906 8.04549 25.2131 8.04549 23.3908ZM11.9651 4.62375C11.9651 3.45421 12.8161 1.9039 14.5438 0L15.1884 0.76156C15.6784 1.35993 16.1168 2.01269 16.5036 2.77425C16.8904 3.50861 17.0967 4.13418 17.0967 4.62375C17.0967 5.38531 16.8388 5.98368 16.3489 6.50045C15.8589 6.99003 15.2658 7.26201 14.5438 7.26201C13.796 7.26201 13.1771 7.01723 12.6871 6.50045C12.223 5.98368 11.9651 5.35811 11.9651 4.62375Z" fill="white"/>
</svg>
