<svg width="25" height="28" viewBox="0 0 25 28" fill="none" xmlns="http://www.w3.org/2000/svg">
<path d="M4.98686 19.9566C3.6734 19.9566 2.60509 19.4845 1.804 18.5471C1.00291 17.6097 0.477176 16.2186 0.171031 14.1947C-0.279763 11.2121 0.167545 8.6981 1.43047 7.11633C2.17404 6.18471 3.14999 5.64609 4.25258 5.5594C5.19657 5.48427 6.60763 5.86512 7.97047 8.10226C8.82384 9.50315 9.47273 11.3641 9.75099 13.2076C10.0873 15.4332 9.83696 17.0716 8.98534 18.2153C8.30914 19.1238 7.2693 19.6867 5.89426 19.8913C5.59381 19.9352 5.29053 19.957 4.98686 19.9566Z" fill="white"/>
<path d="M7.2593 27.7416C6.4919 27.7416 5.71405 27.4971 5.01346 27.0273C4.0025 26.3458 3.30274 25.2949 3.06622 24.103C2.90066 23.2558 2.99999 22.5825 3.36946 22.0433C3.96955 21.1677 5.04657 20.9707 6.18634 20.7615C6.30659 20.7395 6.42858 20.7175 6.55232 20.6938C6.81489 20.6441 7.08328 20.5783 7.34353 20.5141C8.31831 20.2748 9.32679 20.0269 10.1592 20.6152C10.7163 21.0082 11.0306 21.6763 11.1247 22.6565C11.2316 23.7875 10.9876 24.9161 10.4375 25.835C9.84555 26.8239 8.95791 27.4775 7.93955 27.6763C7.71545 27.7198 7.48763 27.7417 7.2593 27.7416Z" fill="white"/>
<path d="M19.1818 14.4078C18.8785 14.4068 18.5756 14.3836 18.2756 14.3385C16.9011 14.1362 15.8613 13.5727 15.1851 12.6625C14.3335 11.5188 14.0814 9.88097 14.4195 7.65481C14.6977 5.80951 15.3449 3.95033 16.1942 2.55465C17.55 0.325601 18.9628 -0.0610287 19.9121 0.00716612C21.0112 0.0869194 21.9854 0.61803 22.7301 1.54444C24.0017 3.12621 24.4525 5.64769 24 8.64364C23.6938 10.6664 23.1751 12.0505 22.367 12.996C21.559 13.9415 20.4953 14.4078 19.1818 14.4078Z" fill="white"/>
<path d="M16.9078 22.195C16.6801 22.195 16.4528 22.1731 16.2293 22.1297C15.2092 21.9309 14.3216 21.2773 13.7313 20.2884C13.1812 19.3696 12.9372 18.2409 13.0441 17.1099C13.1371 16.1274 13.4508 15.4616 14.0096 15.0681C14.8421 14.4803 15.8505 14.7277 16.8253 14.9675C17.0856 15.0311 17.354 15.097 17.6165 15.1472L17.9819 15.2149C19.1223 15.4235 20.1993 15.6194 20.7994 16.4961C21.1689 17.0353 21.2682 17.7098 21.1026 18.5558C20.8663 19.748 20.1665 20.7991 19.1554 21.4807C18.4507 21.9511 17.6729 22.195 16.9078 22.195Z" fill="white"/>
</svg>
