<svg width="153" height="154" viewBox="0 0 153 154" fill="none" xmlns="http://www.w3.org/2000/svg">
<path d="M54.2628 15.666C48.9225 27.3634 47.2634 40.4314 49.5089 53.1094C51.7544 65.7875 57.7967 77.4666 66.8218 86.5734C75.8469 95.6802 87.4212 101.777 99.9855 104.043C112.55 106.309 125.501 104.635 137.093 99.246C130.197 130.578 102.497 154 69.3721 154C31.0579 154 0 122.661 0 84C0 50.575 23.2119 22.624 54.2628 15.666ZM112.133 16.037L117.933 17.5V24.5L112.133 25.963C109.694 26.5785 107.466 27.8513 105.689 29.6452C103.911 31.4391 102.649 33.6868 102.039 36.148L100.589 42H93.6523L92.2024 36.148C91.5924 33.6868 90.3311 31.4391 88.5532 29.6452C86.7754 27.8513 84.5479 26.5785 82.1088 25.963L76.3093 24.5V17.5L82.1088 16.037C84.5466 15.4204 86.7727 14.1471 88.5492 12.3533C90.3258 10.5594 91.586 8.31233 92.1955 5.852L93.6523 0H100.589L102.039 5.852C102.649 8.31319 103.911 10.5609 105.689 12.3548C107.466 14.1487 109.694 15.4215 112.133 16.037ZM146.819 51.037L152.619 52.5V59.5L146.819 60.963C144.38 61.5785 142.152 62.8513 140.375 64.6452C138.597 66.4391 137.335 68.6868 136.725 71.148L135.276 77H128.338L126.888 71.148C126.278 68.6868 125.017 66.4391 123.239 64.6452C121.461 62.8513 119.234 61.5785 116.795 60.963L110.995 59.5V52.5L116.795 51.037C119.234 50.4215 121.461 49.1487 123.239 47.3548C125.017 45.5609 126.278 43.3132 126.888 40.852L128.338 35H135.276L136.725 40.852C137.335 43.3132 138.597 45.5609 140.375 47.3548C142.152 49.1487 144.38 50.4215 146.819 51.037Z" fill="white" fill-opacity="0.2"/>
</svg>
