<svg width="168" height="140" viewBox="0 0 168 140" fill="none" xmlns="http://www.w3.org/2000/svg">
<path d="M104.956 66.1994L88.6656 97.2602C86.6991 101.041 80.9959 100.916 79.1932 97.0727L60.5433 57.6062L50.7103 80.0112H19.8675L79.6849 138.289C82.012 140.57 85.7813 140.57 88.1084 138.289L147.959 80.0112H112.199L104.956 66.1994ZM155.268 13.1086L154.481 12.3274C137.601 -4.10915 109.97 -4.10915 93.0577 12.3274L83.913 21.2644L74.7684 12.3587C57.8884 -4.10915 30.2249 -4.10915 13.345 12.3587L12.5583 13.1086C-3.4039 28.6703 -4.09221 53.4501 10.1656 70.0117H43.7289L55.4957 43.0757C57.2656 39.0447 63.231 38.951 65.132 42.9507L84.208 83.3547L100.269 52.7627C102.202 49.0754 107.709 49.0754 109.643 52.7627L118.689 70.0117H157.66C171.918 53.4501 171.23 28.6703 155.268 13.1086Z" fill="white" fill-opacity="0.2"/>
</svg>
