<svg width="30" height="27" viewBox="0 0 30 27" fill="none" xmlns="http://www.w3.org/2000/svg">
<path d="M18.3308 12.767L15.4857 18.7573C15.1422 19.4865 14.1461 19.4624 13.8313 18.7212L10.574 11.1098L8.85668 15.4307H3.46991L13.9172 26.6701C14.3236 27.11 14.9819 27.11 15.3884 26.6701L25.8413 15.4307H19.5959L18.3308 12.767ZM27.1179 2.5281L26.9805 2.37743C24.0324 -0.792478 19.2066 -0.792478 16.2528 2.37743L14.6556 4.101L13.0585 2.38346C10.1104 -0.792478 5.27886 -0.792478 2.33073 2.38346L2.19334 2.5281C-0.594499 5.52927 -0.714714 10.3082 1.77545 13.5023H7.63736L9.69246 8.30746C10.0016 7.53005 11.0435 7.51197 11.3755 8.28335L14.7071 16.0756L17.5122 10.1757C17.8499 9.46454 18.8116 9.46454 19.1494 10.1757L20.7293 13.5023H27.5358C30.026 10.3082 29.9057 5.52927 27.1179 2.5281Z" fill="white"/>
</svg>
