<svg width="113" height="166" viewBox="0 0 113 166" fill="none" xmlns="http://www.w3.org/2000/svg">
<path d="M0 66.9719C0 63.0589 1.83373 58.0925 5.36012 51.7715C8.88651 45.4506 12.4129 40.1831 15.6572 36.1197C16.5035 35.0662 17.632 33.5612 18.9015 31.9057C20.171 30.2502 21.0173 29.3472 21.1583 29.1967L26.3774 35.6682C30.327 40.3336 33.8534 45.6011 37.0976 51.7715C40.3419 57.942 42.0346 62.9084 42.0346 66.9719C42.0346 73.1423 40.0598 78.5603 35.9692 82.9248C32.0196 87.2892 27.0827 89.5467 21.1583 89.5467C15.3751 89.5467 10.2971 87.2892 6.20644 82.9248C2.11583 78.4098 0 73.1423 0 66.9719ZM44.0094 129.429C44.0094 125.064 45.1378 120.098 47.3947 114.228C49.6516 108.51 52.4727 103.092 55.858 98.2756C62.3466 89.0952 68.412 81.4198 74.3363 75.2493C74.9006 74.7978 76.1701 73.5938 78.0038 71.6374L81.5302 75.2493C87.0313 80.8178 93.2378 88.4932 100.15 98.1251C103.817 103.242 106.638 108.66 108.895 114.379C111.152 120.098 112.28 125.064 112.28 129.429C112.28 139.813 109.036 148.392 102.406 155.465C95.7768 162.539 87.5956 166 78.0038 166C68.412 166 60.3718 162.388 53.7422 155.315C47.1126 148.241 44.0094 139.512 44.0094 129.429ZM65.4498 25.5848C65.4498 19.1133 70.1046 10.5349 79.5554 0L83.0818 4.21397C85.7618 7.52494 88.1598 11.1369 90.2756 15.3509C92.3914 19.4143 93.5199 22.8758 93.5199 25.5848C93.5199 29.7987 92.1093 33.1097 89.4293 35.9692C86.7492 38.6782 83.5049 40.1831 79.5554 40.1831C75.4648 40.1831 72.0794 38.8287 69.3994 35.9692C66.8604 33.1097 65.4498 29.6482 65.4498 25.5848Z" fill="white" fill-opacity="0.2"/>
</svg>
