<svg width="49" height="49" viewBox="0 0 49 49" fill="none" xmlns="http://www.w3.org/2000/svg">
<path d="M24.5 0C10.9695 0 0 10.9695 0 24.5C0 38.0305 10.9695 49 24.5 49C38.0305 49 49 38.0305 49 24.5C49 10.9695 38.0305 0 24.5 0ZM24.5 45.7333C12.7923 45.7333 3.26667 36.2077 3.26667 24.5C3.26667 12.7923 12.7923 3.26667 24.5 3.26667C36.2077 3.26667 45.7333 12.7923 45.7333 24.5C45.7333 36.2077 36.2077 45.7333 24.5 45.7333ZM37.5667 22.8667H26.1333V11.4333C26.1333 11.0001 25.9613 10.5847 25.6549 10.2784C25.3486 9.97208 24.9332 9.8 24.5 9.8C24.0668 9.8 23.6514 9.97208 23.3451 10.2784C23.0387 10.5847 22.8667 11.0001 22.8667 11.4333V22.8667H11.4333C11.0001 22.8667 10.5847 23.0387 10.2784 23.3451C9.97208 23.6514 9.8 24.0668 9.8 24.5C9.8 24.9332 9.97208 25.3486 10.2784 25.6549C10.5847 25.9613 11.0001 26.1333 11.4333 26.1333H22.8667V37.5667C22.8667 37.9999 23.0387 38.4153 23.3451 38.7216C23.6514 39.0279 24.0668 39.2 24.5 39.2C24.9332 39.2 25.3486 39.0279 25.6549 38.7216C25.9613 38.4153 26.1333 37.9999 26.1333 37.5667V26.1333H37.5667C37.9999 26.1333 38.4153 25.9613 38.7216 25.6549C39.0279 25.3486 39.2 24.9332 39.2 24.5C39.2 24.0668 39.0279 23.6514 38.7216 23.3451C38.4153 23.0387 37.9999 22.8667 37.5667 22.8667Z" fill="#4B9AFB"/>
</svg>
