<svg width="24" height="24" viewBox="0 0 24 24" fill="none" xmlns="http://www.w3.org/2000/svg">
<path d="M22 12C21.6667 12 21.37 11.88 21.11 11.64C20.8492 11.4008 20.6979 11.1042 20.6562 10.75C20.3854 8.8125 19.5679 7.16125 18.2037 5.79625C16.8387 4.43208 15.1875 3.61458 13.25 3.34375C12.8958 3.30208 12.5992 3.15625 12.36 2.90625C12.12 2.65625 12 2.35417 12 2C12 1.64583 12.125 1.34875 12.375 1.10875C12.625 0.869583 12.9167 0.770833 13.25 0.8125C15.875 1.10417 18.1146 2.17708 19.9688 4.03125C21.8229 5.88542 22.8958 8.125 23.1875 10.75C23.2292 11.0833 23.13 11.375 22.89 11.625C22.6508 11.875 22.3542 12 22 12ZM16.7812 12C16.5104 12 16.2708 11.9062 16.0625 11.7188C15.8542 11.5312 15.6979 11.2812 15.5938 10.9688C15.4271 10.3646 15.1096 9.82792 14.6412 9.35875C14.1721 8.89042 13.6354 8.57292 13.0312 8.40625C12.7188 8.30208 12.4688 8.14583 12.2812 7.9375C12.0938 7.72917 12 7.47917 12 7.1875C12 6.77083 12.1458 6.43208 12.4375 6.17125C12.7292 5.91125 13.0521 5.82292 13.4062 5.90625C14.5729 6.17708 15.5783 6.73417 16.4225 7.5775C17.2658 8.42167 17.8229 9.42708 18.0938 10.5938C18.1771 10.9479 18.0833 11.2708 17.8125 11.5625C17.5417 11.8542 17.1979 12 16.7812 12ZM21.9375 23.25C19.25 23.25 16.6304 22.6508 14.0788 21.4525C11.5262 20.255 9.26583 18.6717 7.2975 16.7025C5.32833 14.7342 3.745 12.4738 2.5475 9.92125C1.34917 7.36958 0.75 4.75 0.75 2.0625C0.75 1.6875 0.875 1.375 1.125 1.125C1.375 0.875 1.6875 0.75 2.0625 0.75H7.125C7.41667 0.75 7.67708 0.84375 7.90625 1.03125C8.13542 1.21875 8.27083 1.45833 8.3125 1.75L9.125 6.125C9.16667 6.41667 9.16167 6.68208 9.11 6.92125C9.0575 7.16125 8.9375 7.375 8.75 7.5625L5.75 10.625C6.625 12.125 7.71875 13.5312 9.03125 14.8438C10.3438 16.1562 11.7917 17.2917 13.375 18.25L16.3125 15.3125C16.5 15.125 16.745 14.9842 17.0475 14.89C17.3492 14.7967 17.6458 14.7708 17.9375 14.8125L22.25 15.6875C22.5417 15.75 22.7812 15.8904 22.9688 16.1087C23.1562 16.3279 23.25 16.5833 23.25 16.875V21.9375C23.25 22.3125 23.125 22.625 22.875 22.875C22.625 23.125 22.3125 23.25 21.9375 23.25Z" fill="#138DE5"/>
</svg>
