<svg width="21" height="21" viewBox="0 0 21 21" fill="none" xmlns="http://www.w3.org/2000/svg">
<path d="M6.78437 1.89062C6.48464 2.82127 6.33245 3.79311 6.33333 4.77083C6.33333 9.94844 10.5307 14.1458 15.7083 14.1458C16.9862 14.1474 18.2508 13.8868 19.424 13.3802C18.2089 17.1495 14.6729 19.875 10.5 19.875C5.3224 19.875 1.125 15.6776 1.125 10.5C1.125 6.64219 3.45469 3.32917 6.78437 1.89062Z" stroke="black" stroke-width="2" stroke-linejoin="round"/>
<path d="M6.78437 1.89062C6.48464 2.82127 6.33245 3.79311 6.33333 4.77083C6.33333 9.94844 10.5307 14.1458 15.7083 14.1458C16.9862 14.1474 18.2508 13.8868 19.424 13.3802C18.2089 17.1495 14.6729 19.875 10.5 19.875C5.3224 19.875 1.125 15.6776 1.125 10.5C1.125 6.64219 3.45469 3.32917 6.78437 1.89062Z" stroke="black" stroke-width="2" stroke-linejoin="round"/>
<path d="M14.4902 3.20703H19.3548L14.1465 7.3737H19.3548" stroke="black" stroke-width="2" stroke-linecap="round" stroke-linejoin="round"/>
</svg>
