<svg width="27" height="27" viewBox="0 0 27 27" fill="none" xmlns="http://www.w3.org/2000/svg">
<path d="M9.59173 2.75596C8.69561 4.77147 8.41721 7.02313 8.79401 9.20761C9.17081 11.3921 10.1847 13.4044 11.6991 14.9736C13.2136 16.5427 15.1558 17.5933 17.2641 17.9837C19.3724 18.3741 21.5455 18.0856 23.4908 17.1571C22.3337 22.5558 17.6855 26.5915 12.1271 26.5915C5.6979 26.5915 0.486328 21.1916 0.486328 14.5302C0.486328 8.77092 4.38133 3.95485 9.59173 2.75596ZM19.3024 2.81988L20.2756 3.07196V4.27809L19.3024 4.53017C18.8932 4.63623 18.5194 4.85553 18.2211 5.16463C17.9227 5.47373 17.7111 5.86102 17.6087 6.28509L17.3654 7.29341H16.2014L15.9581 6.28509C15.8557 5.86102 15.644 5.47373 15.3457 5.16463C15.0474 4.85553 14.6736 4.63623 14.2643 4.53017L13.2912 4.27809V3.07196L14.2643 2.81988C14.6734 2.71363 15.0469 2.49425 15.345 2.18516C15.6432 1.87607 15.8546 1.48889 15.9569 1.06496L16.2014 0.0566406H17.3654L17.6087 1.06496C17.7111 1.48904 17.9227 1.87632 18.2211 2.18542C18.5194 2.49452 18.8932 2.71382 19.3024 2.81988ZM25.1228 8.85052L26.096 9.10261V10.3087L25.1228 10.5608C24.7135 10.6669 24.3398 10.8862 24.0414 11.1953C23.7431 11.5044 23.5315 11.8917 23.4291 12.3157L23.1858 13.3241H22.0217L21.7784 12.3157C21.6761 11.8917 21.4644 11.5044 21.1661 11.1953C20.8678 10.8862 20.494 10.6669 20.0847 10.5608L19.1115 10.3087V9.10261L20.0847 8.85052C20.494 8.74447 20.8678 8.52517 21.1661 8.21607C21.4644 7.90697 21.6761 7.51968 21.7784 7.09561L22.0217 6.08728H23.1858L23.4291 7.09561C23.5315 7.51968 23.7431 7.90697 24.0414 8.21607C24.3398 8.52517 24.7135 8.74447 25.1228 8.85052Z" fill="white"/>
</svg>
