<svg width="25" height="24" viewBox="0 0 25 24" fill="none" xmlns="http://www.w3.org/2000/svg">
<path d="M21.0129 0H3.55837C2.69039 0 1.85796 0.361265 1.2442 1.00432C0.630449 1.64738 0.285645 2.51955 0.285645 3.42896V14.8588C0.285645 15.7683 0.630449 16.6404 1.2442 17.2835C1.85796 17.9265 2.69039 18.2878 3.55837 18.2878H4.64928V22.8598C4.64977 23.073 4.70719 23.2819 4.81505 23.4627C4.92291 23.6436 5.07691 23.7892 5.25963 23.8831C5.44236 23.9771 5.64652 24.0156 5.84904 23.9943C6.05156 23.973 6.24436 23.8928 6.40564 23.7627L13.1256 18.2878H21.0129C21.8809 18.2878 22.7133 17.9265 23.3271 17.2835C23.9408 16.6404 24.2856 15.7683 24.2856 14.8588V3.42896C24.2856 2.51955 23.9408 1.64738 23.3271 1.00432C22.7133 0.361265 21.8809 0 21.0129 0ZM22.1038 14.8588C22.1038 15.162 21.9889 15.4527 21.7843 15.6671C21.5797 15.8814 21.3022 16.0018 21.0129 16.0018H12.7547C12.5137 16.0026 12.2797 16.087 12.0893 16.2419L6.8311 20.5738V17.1448C6.8311 16.8417 6.71616 16.551 6.51158 16.3366C6.30699 16.1222 6.02952 16.0018 5.74019 16.0018H3.55837C3.26904 16.0018 2.99157 15.8814 2.78698 15.6671C2.5824 15.4527 2.46746 15.162 2.46746 14.8588V3.42896C2.46746 3.12582 2.5824 2.8351 2.78698 2.62075C2.99157 2.4064 3.26904 2.28598 3.55837 2.28598H21.0129C21.3022 2.28598 21.5797 2.4064 21.7843 2.62075C21.9889 2.8351 22.1038 3.12582 22.1038 3.42896V14.8588Z" fill="black"/>
<path d="M6.83114 8.00082H13.3766C13.6659 8.00082 13.9434 7.8804 14.148 7.66605C14.3526 7.45169 14.4675 7.16097 14.4675 6.85783C14.4675 6.55469 14.3526 6.26397 14.148 6.04962C13.9434 5.83527 13.6659 5.71484 13.3766 5.71484H6.83114C6.54182 5.71484 6.26434 5.83527 6.05975 6.04962C5.85517 6.26397 5.74023 6.55469 5.74023 6.85783C5.74023 7.16097 5.85517 7.45169 6.05975 7.66605C6.26434 7.8804 6.54182 8.00082 6.83114 8.00082ZM17.7402 10.2868H6.83114C6.54182 10.2868 6.26434 10.4072 6.05975 10.6216C5.85517 10.8359 5.74023 11.1266 5.74023 11.4298C5.74023 11.7329 5.85517 12.0236 6.05975 12.238C6.26434 12.4523 6.54182 12.5728 6.83114 12.5728H17.7402C18.0296 12.5728 18.307 12.4523 18.5116 12.238C18.7162 12.0236 18.8311 11.7329 18.8311 11.4298C18.8311 11.1266 18.7162 10.8359 18.5116 10.6216C18.307 10.4072 18.0296 10.2868 17.7402 10.2868Z" fill="black"/>
</svg>
