<svg width="13" height="15" viewBox="0 0 13 15" fill="none" xmlns="http://www.w3.org/2000/svg">
<path d="M11.9898 0.650763C11.9228 0.576495 11.8408 0.517267 11.7492 0.476977C11.6576 0.436688 11.5586 0.416251 11.4585 0.417013H1.54186C1.44182 0.416251 1.34276 0.436688 1.25119 0.476977C1.15962 0.517267 1.07763 0.576495 1.01061 0.650763C0.943762 0.725138 0.893423 0.812823 0.862902 0.90805C0.83238 1.00328 0.822368 1.10389 0.833523 1.20326L2.10852 12.6924C2.1663 13.2146 2.41545 13.6968 2.80787 14.0461C3.2003 14.3953 3.70819 14.5869 4.23352 14.5837H8.78102C9.30635 14.5869 9.81425 14.3953 10.2067 14.0461C10.5991 13.6968 10.8482 13.2146 10.906 12.6924L12.1669 1.20326C12.178 1.10389 12.168 1.00328 12.1375 0.90805C12.107 0.812823 12.0566 0.725138 11.9898 0.650763ZM9.47519 12.5366C9.45593 12.7106 9.37288 12.8714 9.24207 12.9878C9.11126 13.1042 8.94197 13.1681 8.76686 13.167H4.22644C4.05133 13.1681 3.88203 13.1042 3.75122 12.9878C3.62041 12.8714 3.53737 12.7106 3.51811 12.5366L2.80269 6.08368H10.1977L9.47519 12.5366ZM10.3535 4.66701H2.64686L2.33519 1.83368H10.6652L10.3535 4.66701Z" fill="black"/>
</svg>
