<svg width="23" height="26" viewBox="0 0 23 26" fill="none" xmlns="http://www.w3.org/2000/svg">
<path d="M8.82552 21.4518C9.4308 21.3263 13.1191 21.3263 13.7244 21.4518C14.2418 21.569 14.8014 21.8428 14.8014 22.4406C14.7713 23.0097 14.4307 23.5143 13.9602 23.8347C13.3501 24.301 12.6341 24.5963 11.8856 24.7028C11.4717 24.7554 11.065 24.7566 10.6654 24.7028C9.91575 24.5963 9.19976 24.301 8.59086 23.8335C8.11915 23.5143 7.7786 23.0097 7.74852 22.4406C7.74852 21.8428 8.30808 21.569 8.82552 21.4518ZM11.3464 1C13.865 1 16.4378 2.17172 17.9661 4.11583C18.9576 5.36766 19.4125 6.61829 19.4125 8.56239V9.06815C19.4125 10.5591 19.8144 11.4379 20.6989 12.4506C21.3691 13.1967 21.5833 14.1544 21.5833 15.1934C21.5833 16.2312 21.2356 17.2164 20.5388 18.0163C19.6267 18.9752 18.3403 19.5873 17.0274 19.6938C15.1249 19.8528 13.2212 19.9867 11.2923 19.9867C9.36209 19.9867 7.45959 19.9066 5.55709 19.6938C4.24303 19.5873 2.95665 18.9752 2.04571 18.0163C1.34897 17.2164 1 16.2312 1 15.1934C1 14.1544 1.2154 13.1967 1.88446 12.4506C2.7966 11.4379 3.17205 10.5591 3.17205 9.06815V8.56239C3.17205 6.56568 3.67986 5.26005 4.72558 3.98191C6.28031 2.11792 8.77245 1 11.2381 1H11.3464Z" stroke="#424242" stroke-width="2"/>
</svg>
