<svg width="97" height="20" viewBox="0 0 97 20" fill="none" xmlns="http://www.w3.org/2000/svg">
<path d="M14.2012 20H0.201172V18H14.2012V20ZM7.2012 16L1.20118 10L2.61118 8.59L6.2012 12.17V0H8.20121V12.17L11.7912 8.59L13.2012 10L7.2012 16Z" fill="black"/>
<path d="M84.5653 16.3636H95.4745V3.63636H84.5653V16.3636ZM96.3836 0.909091H93.2017L92.2927 0H87.7472L86.8381 0.909091H83.6562V2.72727H96.3836V0.909091Z" fill="black"/>
<path d="M50.3147 0V4.77273C40.7692 4.77273 38.3828 9.66477 38.3828 16.7045C39.6237 11.9795 43.1556 9.54545 47.9283 9.54545H50.3147V14.3182L57.4738 6.77727L50.3147 0Z" fill="black"/>
</svg>
