<svg width="30" height="35" viewBox="0 0 30 35" fill="none" xmlns="http://www.w3.org/2000/svg">
<path d="M26.25 35H3.75C1.67893 35 0 33.4331 0 31.5002V3.50138C0 1.56847 1.67893 0.00153556 3.75 0.00153556H16.875C16.8919 -0.000511852 16.9088 -0.000511852 16.9256 0.00153556H16.9369C16.9545 0.00669783 16.9729 0.0102152 16.9913 0.0120352C17.1566 0.0219222 17.3199 0.0519157 17.4769 0.101281H17.505H17.5331H17.5556C17.5903 0.12389 17.6227 0.149054 17.6531 0.176528C17.8573 0.261259 18.0435 0.379834 18.2025 0.526512L29.4525 11.026C29.6096 11.1744 29.7368 11.3481 29.8275 11.5388C29.8444 11.5773 29.8575 11.614 29.8706 11.6543L29.8894 11.7033C29.9417 11.8492 29.9726 12.0011 29.9812 12.1547C29.9829 12.1722 29.9872 12.1893 29.9944 12.2055V12.216C29.9974 12.2275 29.9993 12.2392 30 12.251V31.5002C30 32.4283 29.6049 33.3185 28.9016 33.9749C28.1983 34.6313 27.2445 35 26.25 35ZM19.545 21.0006V29.7502H21.3075V26.1804H24.045V24.714H21.3075V22.4723H24.375V21.0006H19.545ZM12.6075 21.0006V29.7502H14.8688C15.8173 29.7938 16.7359 29.4333 17.3663 28.7703C18.0129 28.0001 18.3369 27.0365 18.2775 26.0596V24.6422C18.321 23.6756 17.988 22.7269 17.34 21.9718C16.7299 21.3237 15.8392 20.9668 14.9156 21.0006H12.6075ZM5.625 21.0006V29.7502H7.3875V26.6721H8.56125C9.34504 26.7125 10.1106 26.4418 10.6687 25.9267C11.2014 25.3709 11.4776 24.6415 11.4375 23.8967C11.4724 23.1341 11.1963 22.3876 10.665 21.8073C10.1395 21.2635 9.38079 20.9675 8.59688 21.0006H5.625ZM16.875 3.50138V12.251H26.25L16.875 3.50138ZM14.8988 28.2838H14.37V22.4723H15.0112C15.4667 22.4473 15.9045 22.6396 16.1737 22.9833C16.4486 23.514 16.5664 24.1036 16.515 24.6912V26.2119C16.5562 26.7713 16.4261 27.3303 16.14 27.8236C15.8327 28.1583 15.3684 28.3305 14.8988 28.2838ZM8.59688 25.2004H7.38563V22.4723H8.61375C8.92035 22.4755 9.20368 22.6254 9.36375 22.8695C9.56666 23.1821 9.66463 23.544 9.645 23.909C9.66851 24.2494 9.57169 24.5874 9.36937 24.8715C9.18289 25.0898 8.89588 25.2122 8.59688 25.2004Z" fill="#FF0000"/>
</svg>
