<svg width="29" height="25" viewBox="0 0 29 25" fill="none" xmlns="http://www.w3.org/2000/svg">
<g clip-path="url(#clip0_10299_23115)">
<path d="M6.18549 3.56439L3.14263 6.60725V12.243V17.8572L2.19978 18.3072C1.66406 18.543 1.08549 18.993 0.892634 19.293C0.421205 19.9787 0.421205 21.093 0.892634 21.7787C1.55692 22.8072 3.59263 23.3644 5.11406 22.9358C5.62835 22.8072 5.73549 22.8715 6.05692 23.5358C6.54978 24.5858 7.12835 24.9287 8.34978 24.9287C9.24978 24.9287 9.50692 24.8215 10.1283 24.2001C10.6426 23.6858 10.8569 23.2787 10.8569 22.8072C10.8569 22.443 10.9426 22.143 11.0712 22.143C11.1783 22.143 11.8426 22.5715 12.5069 23.0858C14.5426 24.6501 15.6783 25.0144 18.5712 25.0144C20.6498 25.0144 21.2283 24.9287 22.3212 24.5001C24.5926 23.6215 26.7998 20.9001 27.2283 18.4572C27.3998 17.493 26.7998 16.7215 25.5783 16.293L24.7641 16.0358L26.0712 14.1287C26.7783 13.1001 27.3569 12.0072 27.3569 11.7501C27.3569 11.1287 26.6283 10.5715 26.0498 10.7215C25.8141 10.7858 24.8926 11.8787 23.9926 13.1644L22.3426 15.5001H21.3141H20.2855V9.0501C20.2855 -0.014183 20.6712 0.500103 13.8141 0.500103H9.24978L6.18549 3.56439ZM18.5069 2.64296C18.6998 3.02868 18.7855 4.78582 18.7855 9.22153V15.2858H18.0355C17.6283 15.2858 17.2855 15.1787 17.2855 15.0715C17.2855 14.943 15.2498 14.8572 11.6069 14.8572C7.96406 14.8572 5.92835 14.943 5.92835 15.0715C5.92835 15.2001 7.96406 15.3072 11.5641 15.3287C17.8426 15.3501 17.1141 15.6072 9.95692 15.843C5.58549 15.993 4.42835 16.3572 8.32835 16.3572C10.4712 16.3572 10.6855 16.3787 10.2998 16.6787C10.0212 16.893 9.31406 16.9787 7.92121 17.0001C6.74263 17.0001 5.92835 17.0858 5.92835 17.2144C5.92835 17.343 6.63549 17.4287 7.64263 17.4287C9.01406 17.4287 9.35692 17.493 9.35692 17.7501C9.35692 18.0072 9.01406 18.0715 7.64263 18.0715C6.44263 18.0715 5.92835 18.1572 5.92835 18.3287C5.92835 18.5215 5.86406 18.5215 5.67121 18.3287C5.52121 18.1787 5.24263 18.0715 5.02835 18.0715C4.66406 18.0715 4.64263 17.7287 4.64263 12.6072V7.14296H6.14263C8.86406 7.14296 9.57121 6.43582 9.57121 3.77868V2.0001L13.8998 2.04296L18.2283 2.10725L18.5069 2.64296ZM8.04978 5.55725C7.66406 5.96439 7.34263 6.07153 6.48549 6.07153H5.41406L6.89263 4.57153L8.39263 3.0501L8.45692 4.05725C8.52121 4.8501 8.43549 5.1501 8.04978 5.55725ZM26.3498 12.2644C23.6498 16.3572 21.8926 18.7144 21.5283 18.7144C21.2498 18.7144 21.1641 18.6287 21.2712 18.4358C21.5283 18.0287 25.0212 13.1215 25.7069 12.2215C26.3926 11.3215 26.9498 11.343 26.3498 12.2644ZM20.9283 17.2572C20.9283 17.3858 20.6926 17.8144 20.3712 18.2215C19.8355 18.9287 19.8355 18.9287 17.9712 18.9287C16.0426 18.9287 12.1426 18.4358 11.5641 18.1144C10.7926 17.6644 14.5641 17.0644 18.4212 17.0215C20.1783 17.0001 20.9283 17.0644 20.9283 17.2572ZM25.1498 17.943C25.2569 18.0501 23.7998 18.5001 23.3283 18.5001C23.1355 18.5001 23.1569 18.3715 23.3926 17.9858C23.6926 17.5358 23.8212 17.493 24.3998 17.6644C24.7641 17.7501 25.1069 17.8787 25.1498 17.943ZM9.57121 18.8215C9.57121 19.1001 9.48549 19.1215 9.12121 18.9072C8.67121 18.6715 7.40692 18.7144 6.76406 19.0144C6.52835 19.1215 6.35692 19.0572 6.29263 18.843C6.18549 18.543 6.39978 18.5001 7.85692 18.5001C9.24978 18.5001 9.57121 18.5644 9.57121 18.8215ZM5.26406 19.7001C5.84263 20.4287 5.82121 20.7715 5.17835 21.393C4.57835 22.0144 3.65692 22.0787 2.60692 21.5858C1.38549 21.0072 1.36406 20.0858 2.56406 19.4858C3.65692 18.9501 4.74978 19.0358 5.26406 19.7001ZM8.77835 20.2358C9.48549 20.7715 9.87121 22.1001 9.57121 22.8715C9.29263 23.6215 8.45692 24.0072 7.77121 23.6858C6.46406 23.1072 6.74263 19.8501 8.09263 19.7858C8.17835 19.7858 8.47835 19.9787 8.77835 20.2358ZM24.5926 20.6215C23.8212 21.693 22.4283 22.743 21.3141 23.1287C19.6212 23.6858 16.4498 23.4715 14.9283 22.7001C13.6426 22.0572 12.9783 21.5215 12.2926 20.5572L11.8641 19.9358L12.4855 20.0644C12.8283 20.1501 14.2855 20.3001 15.7426 20.4287C18.3783 20.6644 22.6641 20.4715 24.2498 20.0215C24.6141 19.9358 24.9355 19.8715 24.9783 19.9144C25.0212 19.9572 24.8498 20.2572 24.5926 20.6215Z" fill="black"/>
<path d="M15.3568 3.82153C14.8854 4.31439 14.7354 4.57153 14.9497 4.57153C15.2711 4.57153 16.4282 3.52153 16.4282 3.22153C16.4282 2.9001 16.0425 3.11439 15.3568 3.82153Z" fill="black"/>
<path d="M11.2856 5.23582C11.2856 5.49296 11.6071 6.00725 12.0142 6.41439C12.6142 7.01439 12.8928 7.14296 13.6856 7.14296C14.7785 7.14296 15.8928 6.32867 16.1285 5.36439L16.2571 4.78582H13.7714C11.3928 4.78582 11.2856 4.80725 11.2856 5.23582Z" fill="black"/>
<path d="M6.07837 8.34295C5.67123 8.77152 6.67837 8.85724 11.7355 8.85724C16.1069 8.85724 17.3069 8.79295 17.2427 8.57867C17.1569 8.38581 15.8284 8.3001 11.6927 8.25724C8.67123 8.23581 6.16409 8.27867 6.07837 8.34295Z" fill="black"/>
<path d="M6.20688 9.43582C5.26402 9.82154 6.50688 9.92868 11.6283 9.92868C16.0855 9.92868 17.3069 9.86439 17.2426 9.65011C17.1569 9.45725 15.8497 9.39297 11.7997 9.35011C8.86402 9.32868 6.33545 9.37154 6.20688 9.43582Z" fill="black"/>
<path d="M5.92822 10.7858C5.92822 10.9144 7.96394 11.0001 11.6068 11.0001C15.2497 11.0001 17.2854 10.9144 17.2854 10.7858C17.2854 10.6572 15.2497 10.5715 11.6068 10.5715C7.96394 10.5715 5.92822 10.6572 5.92822 10.7858Z" fill="black"/>
<path d="M5.92822 11.8572C5.92822 11.9858 7.96394 12.0715 11.6068 12.0715C15.2497 12.0715 17.2854 11.9858 17.2854 11.8572C17.2854 11.7287 15.2497 11.643 11.6068 11.643C7.96394 11.643 5.92822 11.7287 5.92822 11.8572Z" fill="black"/>
<path d="M5.92822 12.9287C5.92822 13.0572 7.96394 13.143 11.6068 13.143C15.2497 13.143 17.2854 13.0572 17.2854 12.9287C17.2854 12.8001 15.2497 12.7144 11.6068 12.7144C7.96394 12.7144 5.92822 12.8001 5.92822 12.9287Z" fill="black"/>
<path d="M5.92822 14.0001C5.92822 14.1287 7.96394 14.2144 11.6068 14.2144C15.2497 14.2144 17.2854 14.1287 17.2854 14.0001C17.2854 13.8715 15.2497 13.7858 11.6068 13.7858C7.96394 13.7858 5.92822 13.8715 5.92822 14.0001Z" fill="black"/>
</g>
<defs>
<clipPath id="clip0_10299_23115">
<rect width="28.5714" height="25" fill="white"/>
</clipPath>
</defs>
</svg>
