<svg width="21" height="25" viewBox="0 0 21 25" fill="none" xmlns="http://www.w3.org/2000/svg">
<path d="M15.6233 2.3435C15.6233 1.04969 14.5737 0 13.2798 0C11.986 0 10.9363 1.04969 10.9363 2.3435C10.9363 3.63731 11.986 4.687 13.2798 4.687C14.5737 4.687 15.6233 3.63731 15.6233 2.3435ZM6.13705 8.56843C6.62039 8.08508 7.2795 7.81167 7.96791 7.81167C8.06067 7.81167 8.15343 7.81656 8.24132 7.82632L6.71804 12.401C6.26399 13.7681 6.80104 15.2718 8.02649 16.0383L12.235 18.6699L10.9949 23.0054C10.7557 23.8354 11.239 24.6995 12.069 24.9388C12.899 25.178 13.7632 24.6947 14.0024 23.8647L15.4036 18.9628C15.6917 17.9571 15.2767 16.883 14.393 16.3313L11.6199 14.5981L13.1285 10.5751L13.3775 11.1756C14.1098 12.9234 15.8138 14.061 17.7081 14.061H18.748C19.6122 14.061 20.3104 13.3628 20.3104 12.4987C20.3104 11.6345 19.6122 10.9363 18.748 10.9363H17.7081C17.0783 10.9363 16.507 10.5555 16.2678 9.97453L15.9602 9.24219C15.2474 7.5285 13.8071 6.22005 12.03 5.67323L9.6523 4.94088C9.11036 4.77489 8.54402 4.687 7.97279 4.687C6.45928 4.687 5.00435 5.28753 3.93513 6.36163L2.80244 7.48944C2.19215 8.09973 2.19215 9.09084 2.80244 9.70112C3.41273 10.3114 4.40383 10.3114 5.01412 9.70112L6.14193 8.57331L6.13705 8.56843ZM4.45265 17.1857H1.56233C0.698168 17.1857 0 17.8839 0 18.748C0 19.6122 0.698168 20.3104 1.56233 20.3104H4.96041C5.88805 20.3104 6.7278 19.7635 7.10374 18.9189L7.66521 17.6544L7.20139 17.3614C6.36931 16.8436 5.72179 16.0765 5.351 15.1693L4.45265 17.1857Z" fill="black"/>
</svg>
