<svg width="24" height="24" viewBox="0 0 24 24" fill="none" xmlns="http://www.w3.org/2000/svg">
<path d="M23.252 10.305L21.173 9.612L22.152 7.654C22.2512 7.44906 22.2844 7.21836 22.247 6.99375C22.2096 6.76914 22.1033 6.56168 21.943 6.4L19.6 4.057C19.4375 3.8943 19.228 3.78663 19.0011 3.74914C18.7742 3.71165 18.5412 3.74623 18.335 3.848L16.377 4.827L15.684 2.748C15.6108 2.5313 15.4719 2.34279 15.2866 2.20873C15.1012 2.07466 14.8787 2.0017 14.65 2H11.35C11.1194 1.99941 10.8944 2.0713 10.7069 2.20553C10.5194 2.33976 10.3788 2.52952 10.305 2.748L9.612 4.827L7.654 3.848C7.44906 3.74876 7.21836 3.71557 6.99375 3.753C6.76914 3.79044 6.56168 3.89666 6.4 4.057L4.057 6.4C3.8943 6.56254 3.78663 6.772 3.74914 6.9989C3.71165 7.22581 3.74623 7.45876 3.848 7.665L4.827 9.623L2.748 10.316C2.5313 10.3892 2.34279 10.5281 2.20873 10.7134C2.07466 10.8988 2.0017 11.1213 2 11.35V14.65C1.99941 14.8806 2.0713 15.1056 2.20553 15.2931C2.33976 15.4806 2.52952 15.6212 2.748 15.695L4.827 16.388L3.848 18.346C3.74876 18.5509 3.71557 18.7816 3.753 19.0062C3.79044 19.2309 3.89666 19.4383 4.057 19.6L6.4 21.943C6.56254 22.1057 6.772 22.2134 6.9989 22.2509C7.22581 22.2883 7.45876 22.2538 7.665 22.152L9.623 21.173L10.316 23.252C10.3898 23.4705 10.5304 23.6602 10.7179 23.7945C10.9054 23.9287 11.1304 24.0006 11.361 24H14.661C14.8916 24.0006 15.1166 23.9287 15.3041 23.7945C15.4916 23.6602 15.6322 23.4705 15.706 23.252L16.399 21.173L18.357 22.152C18.5606 22.2487 18.7891 22.2806 19.0114 22.2432C19.2337 22.2058 19.4392 22.101 19.6 21.943L21.943 19.6C22.1057 19.4375 22.2134 19.228 22.2509 19.0011C22.2883 18.7742 22.2538 18.5412 22.152 18.335L21.173 16.377L23.252 15.684C23.4687 15.6108 23.6572 15.4719 23.7913 15.2866C23.9253 15.1012 23.9983 14.8787 24 14.65V11.35C24.0006 11.1194 23.9287 10.8944 23.7945 10.7069C23.6602 10.5194 23.4705 10.3788 23.252 10.305ZM21.8 13.858L20.48 14.298C20.1765 14.3965 19.898 14.5598 19.6639 14.7766C19.4297 14.9934 19.2456 15.2586 19.1242 15.5537C19.0028 15.8489 18.9471 16.1668 18.9608 16.4857C18.9746 16.8045 19.0576 17.1165 19.204 17.4L19.831 18.654L18.621 19.864L17.4 19.204C17.1179 19.0635 16.8089 18.9852 16.4939 18.9744C16.179 18.9637 15.8654 19.0207 15.5743 19.1417C15.2833 19.2627 15.0217 19.4448 14.8072 19.6757C14.5927 19.9066 14.4303 20.1809 14.331 20.48L13.891 21.8H12.142L11.702 20.48C11.6035 20.1765 11.4402 19.898 11.2234 19.6639C11.0066 19.4297 10.7414 19.2456 10.4463 19.1242C10.1511 19.0028 9.83316 18.9471 9.51435 18.9608C9.19554 18.9746 8.88354 19.0576 8.6 19.204L7.346 19.831L6.136 18.621L6.796 17.4C6.94241 17.1165 7.02537 16.8045 7.03915 16.4857C7.05293 16.1668 6.99719 15.8489 6.87579 15.5537C6.7544 15.2586 6.57026 14.9934 6.33614 14.7766C6.10203 14.5598 5.82354 14.3965 5.52 14.298L4.2 13.858V12.142L5.52 11.702C5.82354 11.6035 6.10203 11.4402 6.33614 11.2234C6.57026 11.0066 6.7544 10.7414 6.87579 10.4463C6.99719 10.1511 7.05293 9.83316 7.03915 9.51435C7.02537 9.19554 6.94241 8.88354 6.796 8.6L6.169 7.379L7.379 6.169L8.6 6.796C8.88354 6.94241 9.19554 7.02537 9.51435 7.03915C9.83316 7.05293 10.1511 6.99719 10.4463 6.87579C10.7414 6.7544 11.0066 6.57026 11.2234 6.33614C11.4402 6.10203 11.6035 5.82354 11.702 5.52L12.142 4.2H13.858L14.298 5.52C14.3965 5.82354 14.5598 6.10203 14.7766 6.33614C14.9934 6.57026 15.2586 6.7544 15.5537 6.87579C15.8489 6.99719 16.1668 7.05293 16.4857 7.03915C16.8045 7.02537 17.1165 6.94241 17.4 6.796L18.654 6.169L19.864 7.379L19.204 8.6C19.0635 8.88209 18.9852 9.19108 18.9744 9.50606C18.9637 9.82103 19.0207 10.1346 19.1417 10.4257C19.2627 10.7167 19.4448 10.9783 19.6757 11.1928C19.9066 11.4073 20.1809 11.5697 20.48 11.669L21.8 12.109V13.858ZM13 8.6C12.1298 8.6 11.2791 8.85806 10.5555 9.34154C9.83192 9.82501 9.26796 10.5122 8.93493 11.3162C8.60191 12.1202 8.51477 13.0049 8.68455 13.8584C8.85432 14.7119 9.27338 15.4959 9.88873 16.1113C10.5041 16.7266 11.2881 17.1457 12.1416 17.3155C12.9951 17.4852 13.8798 17.3981 14.6838 17.0651C15.4878 16.732 16.175 16.1681 16.6585 15.4445C17.1419 14.7209 17.4 13.8702 17.4 13C17.4 11.833 16.9364 10.7139 16.1113 9.88873C15.2861 9.06357 14.167 8.6 13 8.6ZM13 15.2C12.5649 15.2 12.1395 15.071 11.7777 14.8292C11.416 14.5875 11.134 14.2439 10.9675 13.8419C10.801 13.4399 10.7574 12.9976 10.8423 12.5708C10.9272 12.144 11.1367 11.752 11.4444 11.4444C11.752 11.1367 12.144 10.9272 12.5708 10.8423C12.9976 10.7574 13.4399 10.801 13.8419 10.9675C14.2439 11.134 14.5875 11.416 14.8292 11.7777C15.071 12.1395 15.2 12.5649 15.2 13C15.2 13.5835 14.9682 14.1431 14.5556 14.5556C14.1431 14.9682 13.5835 15.2 13 15.2Z" fill="black"/>
</svg>
