<svg width="21" height="23" viewBox="0 0 21 23" fill="none" xmlns="http://www.w3.org/2000/svg">
<path d="M17.0373 23C16.0908 23 15.2863 22.6646 14.6237 21.9937C13.9612 21.3229 13.6299 20.5083 13.6299 19.55C13.6299 19.4158 13.6393 19.2767 13.6583 19.1325C13.6772 18.9892 13.7056 18.86 13.7435 18.745L5.73605 14.03C5.41424 14.3175 5.05457 14.5425 4.65703 14.705C4.2595 14.8683 3.84304 14.95 3.40765 14.95C2.46115 14.95 1.65662 14.6146 0.994071 13.9437C0.33152 13.2729 0.000244141 12.4583 0.000244141 11.5C0.000244141 10.5417 0.33152 9.72708 0.994071 9.05625C1.65662 8.38542 2.46115 8.05 3.40765 8.05C3.84304 8.05 4.2595 8.13127 4.65703 8.2938C5.05457 8.4571 5.41424 8.6825 5.73605 8.97L13.7435 4.255C13.7056 4.14 13.6772 4.01082 13.6583 3.86745C13.6393 3.72332 13.6299 3.58417 13.6299 3.45C13.6299 2.49167 13.9612 1.67708 14.6237 1.00625C15.2863 0.335417 16.0908 0 17.0373 0C17.9838 0 18.7883 0.335417 19.4509 1.00625C20.1134 1.67708 20.4447 2.49167 20.4447 3.45C20.4447 4.40833 20.1134 5.22292 19.4509 5.89375C18.7883 6.56458 17.9838 6.9 17.0373 6.9C16.6019 6.9 16.1854 6.81835 15.7879 6.65505C15.3904 6.49252 15.0307 6.2675 14.7089 5.98L6.70148 10.695C6.73934 10.81 6.76774 10.9392 6.78667 11.0826C6.8056 11.2267 6.81506 11.3658 6.81506 11.5C6.81506 11.6342 6.8056 11.7729 6.78667 11.9163C6.76774 12.0604 6.73934 12.19 6.70148 12.305L14.7089 17.02C15.0307 16.7325 15.3904 16.5071 15.7879 16.3438C16.1854 16.1813 16.6019 16.1 17.0373 16.1C17.9838 16.1 18.7883 16.4354 19.4509 17.1062C20.1134 17.7771 20.4447 18.5917 20.4447 19.55C20.4447 20.5083 20.1134 21.3229 19.4509 21.9937C18.7883 22.6646 17.9838 23 17.0373 23Z" fill="#8C68F8"/>
</svg>
