<svg width="42" height="42" viewBox="0 0 42 42" fill="none" xmlns="http://www.w3.org/2000/svg">
<path d="M15.2526 4.47308C13.8423 7.61614 13.4042 11.1275 13.9972 14.534C14.5902 17.9406 16.1859 21.0787 18.5693 23.5257C20.9527 25.9726 24.0093 27.6109 27.3273 28.2197C30.6454 28.8285 34.0655 28.3787 37.1269 26.9308C35.3059 35.3496 27.9907 41.643 19.2428 41.643C9.12455 41.643 0.922607 33.2223 0.922607 22.8342C0.922607 13.853 7.05253 6.34267 15.2526 4.47308ZM30.5353 4.57276L32.0669 4.96587V6.84674L30.5353 7.23985C29.8912 7.40524 29.3029 7.74722 28.8334 8.22924C28.3639 8.71127 28.0308 9.31521 27.8697 9.97652L27.4868 11.5489H25.6548L25.2719 9.97652C25.1108 9.31521 24.7778 8.71127 24.3082 8.22924C23.8387 7.74722 23.2505 7.40524 22.6064 7.23985L21.0748 6.84674V4.96587L22.6064 4.57276C23.2502 4.40707 23.838 4.06496 24.3072 3.58295C24.7763 3.10095 25.1092 2.49717 25.2701 1.83609L25.6548 0.263672H27.4868L27.8697 1.83609C28.0308 2.4974 28.3639 3.10134 28.8334 3.58337C29.3029 4.06539 29.8912 4.40737 30.5353 4.57276ZM39.6954 13.9772L41.227 14.3703V16.2511L39.6954 16.6442C39.0513 16.8096 38.463 17.1516 37.9935 17.6336C37.524 18.1157 37.1909 18.7196 37.0298 19.3809L36.6469 20.9533H34.8149L34.432 19.3809C34.2709 18.7196 33.9378 18.1157 33.4683 17.6336C32.9988 17.1516 32.4106 16.8096 31.7664 16.6442L30.2349 16.2511V14.3703L31.7664 13.9772C32.4106 13.8118 32.9988 13.4698 33.4683 12.9878C33.9378 12.5057 34.2709 11.9018 34.432 11.2405L34.8149 9.66806H36.6469L37.0298 11.2405C37.1909 11.9018 37.524 12.5057 37.9935 12.9878C38.463 13.4698 39.0513 13.8118 39.6954 13.9772Z" fill="white"/>
</svg>
