<svg width="28" height="28" viewBox="0 0 28 28" fill="none" xmlns="http://www.w3.org/2000/svg">
<path d="M14.9454 0.613712L18.0863 8.11632C18.2044 8.39868 18.3927 8.64265 18.6316 8.82276C18.8705 9.00288 19.1512 9.11254 19.4443 9.1403L27.0957 9.85879C27.9614 9.99076 28.3068 11.1027 27.6791 11.743L21.9155 16.814C21.4488 17.2245 21.2364 17.8697 21.3648 18.4929L23.0402 26.7067C23.1872 27.6085 22.2841 28.2976 21.5094 27.8699L14.8311 23.7741C14.5792 23.6192 14.2924 23.5376 14.0004 23.5376C13.7083 23.5376 13.4215 23.6192 13.1697 23.7741L6.4913 27.8675C5.71893 28.2927 4.81355 27.606 4.96055 26.7042L6.63598 18.4905C6.76198 17.8673 6.55197 17.2221 6.08528 16.8115L0.319307 11.7454C-0.30606 11.1076 0.0392918 9.9932 0.902671 9.86123L8.55408 9.14274C8.84723 9.11498 9.1279 9.00533 9.36679 8.82521C9.60567 8.64509 9.79401 8.40112 9.91215 8.11877L13.053 0.616155C13.4427 -0.204977 14.5581 -0.204977 14.9454 0.613712Z" fill="#FDD835"/>
</svg>
