<svg width="52" height="49" viewBox="0 0 52 49" fill="none" xmlns="http://www.w3.org/2000/svg">
<path d="M13.8589 34.1119C11.5969 34.1119 9.75721 33.3434 8.37765 31.8178C6.9981 30.2922 6.09274 28.0282 5.56553 24.7343C4.78922 19.8799 5.55953 15.7884 7.7344 13.214C9.01491 11.6978 10.6956 10.8211 12.5943 10.68C14.22 10.5578 16.65 11.1776 18.9969 14.8186C20.4665 17.0986 21.5839 20.1273 22.0631 23.1277C22.6424 26.7499 22.2112 29.4165 20.7446 31.2779C19.5801 32.7565 17.7894 33.6726 15.4215 34.0056C14.9041 34.0771 14.3818 34.1126 13.8589 34.1119Z" fill="white"/>
<path d="M17.7761 46.7853C16.4546 46.7853 15.1151 46.3874 13.9086 45.6227C12.1676 44.5136 10.9626 42.8032 10.5552 40.8634C10.2701 39.4845 10.4412 38.3887 11.0775 37.5111C12.1109 36.0862 13.9656 35.7654 15.9284 35.4249C16.1355 35.3892 16.3456 35.3534 16.5586 35.3149C17.0108 35.234 17.473 35.1268 17.9212 35.0224C19.5999 34.633 21.3366 34.2294 22.7701 35.187C23.7295 35.8266 24.2707 36.9139 24.4328 38.5091C24.6169 40.3498 24.1967 42.1868 23.2493 43.6823C22.2299 45.2917 20.7013 46.3555 18.9476 46.679C18.5617 46.7498 18.1694 46.7854 17.7761 46.7853Z" fill="white"/>
<path d="M38.2994 25.0839C37.777 25.0822 37.2554 25.0445 36.7388 24.971C34.3719 24.6418 32.5812 23.7248 31.4167 22.2433C29.9501 20.3819 29.5159 17.7163 30.0982 14.0932C30.5773 11.0899 31.6918 8.06403 33.1544 5.79252C35.4893 2.16469 37.9223 1.53544 39.5569 1.64643C41.4497 1.77623 43.1274 2.64063 44.4099 4.14838C46.5998 6.72276 47.3761 10.8265 46.5968 15.7025C46.0696 18.9946 45.1762 21.2473 43.7846 22.786C42.3931 24.3248 40.5614 25.0839 38.2994 25.0839Z" fill="white"/>
<path d="M34.3835 37.7545C33.9913 37.7545 33.6 37.7189 33.215 37.6482C31.4583 37.3247 29.9297 36.2609 28.9133 34.6515C27.9659 33.156 27.5458 31.319 27.7298 29.4783C27.8899 27.8793 28.4301 26.7958 29.3925 26.1552C30.8261 25.1987 32.5628 25.6012 34.2414 25.9916C34.6896 26.095 35.1518 26.2023 35.604 26.2841L36.2332 26.3941C38.197 26.7337 40.0517 27.0526 41.0852 28.4794C41.7214 29.357 41.8925 30.4546 41.6074 31.8317C41.2004 33.7719 39.9953 35.4826 38.254 36.592C37.0405 37.3576 35.701 37.7545 34.3835 37.7545Z" fill="white"/>
</svg>
