<svg width="31" height="28" viewBox="0 0 31 28" fill="none" xmlns="http://www.w3.org/2000/svg">
<g clip-path="url(#clip0_94_1372)">
<path d="M7.97216 19.709C6.62528 19.709 5.52978 19.2633 4.7083 18.3784C3.88683 17.4935 3.34772 16.1804 3.03378 14.2699C2.57152 11.4544 3.03021 9.08131 4.32527 7.58817C5.08777 6.70876 6.08855 6.20032 7.21919 6.11849C8.18721 6.04757 9.63418 6.40708 11.0317 8.51886C11.9068 9.84125 12.5722 11.5979 12.8575 13.3382C13.2024 15.439 12.9457 16.9856 12.0724 18.0652C11.379 18.9228 10.3127 19.4542 8.90265 19.6473C8.59456 19.6888 8.28356 19.7094 7.97216 19.709Z" fill="#FF7B44"/>
<path d="M10.3055 27.0582C9.51855 27.0582 8.7209 26.8275 8.00248 26.384C6.9658 25.7406 6.24822 24.7486 6.00569 23.6235C5.83591 22.8238 5.93778 22.1882 6.31665 21.6792C6.93201 20.8527 8.03644 20.6667 9.20521 20.4692C9.32852 20.4485 9.45362 20.4278 9.5805 20.4054C9.84976 20.3585 10.125 20.2963 10.3918 20.2357C11.3914 20.0099 12.4256 19.7759 13.2792 20.3312C13.8505 20.7022 14.1728 21.3328 14.2693 22.2581C14.3789 23.3257 14.1287 24.3911 13.5646 25.2585C12.9575 26.1919 12.0473 26.8089 11.003 26.9966C10.7732 27.0377 10.5396 27.0583 10.3055 27.0582Z" fill="#FF7B44"/>
<path d="M22.5279 14.4716C22.2168 14.4706 21.9062 14.4487 21.5986 14.4061C20.1892 14.2152 19.1229 13.6833 18.4295 12.8241C17.5562 11.7444 17.2976 10.1984 17.6443 8.09697C17.9297 6.35507 18.5933 4.60007 19.4642 3.28259C20.8546 1.17845 22.3033 0.813485 23.2767 0.877858C24.4038 0.953143 25.4028 1.45449 26.1665 2.32899C27.4705 3.82213 27.9327 6.20231 27.4687 9.03039C27.1547 10.9398 26.6228 12.2463 25.7942 13.1388C24.9655 14.0313 23.8748 14.4716 22.5279 14.4716Z" fill="#FF7B44"/>
<path d="M20.1943 21.8212C19.9607 21.8212 19.7277 21.8005 19.4985 21.7596C18.4524 21.5719 17.5422 20.9549 16.937 20.0215C16.3728 19.1541 16.1226 18.0886 16.2322 17.021C16.3276 16.0936 16.6492 15.4651 17.2223 15.0936C18.0759 14.5388 19.1101 14.7723 20.1097 14.9987C20.3765 15.0587 20.6518 15.1209 20.921 15.1684L21.2957 15.2322C22.4651 15.4291 23.5695 15.6141 24.1849 16.4417C24.5637 16.9506 24.6656 17.5873 24.4958 18.386C24.2535 19.5113 23.5359 20.5035 22.499 21.1469C21.7764 21.591 20.9788 21.8212 20.1943 21.8212Z" fill="#FF7B44"/>
</g>
<defs>
<clipPath id="clip0_94_1372">
<rect width="30.5" height="27.9316" fill="white"/>
</clipPath>
</defs>
</svg>
