<svg width="143" height="154" viewBox="0 0 143 154" fill="none" xmlns="http://www.w3.org/2000/svg">
<path d="M26.5141 111.802C19.5307 111.802 13.8507 109.132 9.59148 103.831C5.33226 98.5308 2.53705 90.6648 0.909336 79.2204C-1.48744 62.3545 0.890804 48.1388 7.60549 39.1944C11.5589 33.9265 16.7478 30.8807 22.6101 30.3905C27.6291 29.9657 35.1314 32.1193 42.3773 44.7696C46.9145 52.6911 50.3645 63.2139 51.844 73.6387C53.6323 86.2236 52.3011 95.4883 47.7732 101.956C44.178 107.093 38.6493 110.276 31.3385 111.433C29.7411 111.681 28.1286 111.804 26.5141 111.802Z" fill="white" fill-opacity="0.2"/>
<path d="M34.714 153.648C29.8015 153.648 24.822 152.302 20.3371 149.715C13.8654 145.963 9.38584 140.177 7.87177 133.614C6.81191 128.949 7.44783 125.242 9.81297 122.273C13.6545 117.452 20.5491 116.367 27.8454 115.215C28.6152 115.095 29.3961 114.974 30.1882 114.843C31.8691 114.569 33.5872 114.207 35.2532 113.854C41.4933 112.536 47.9491 111.171 53.2782 114.41C56.8445 116.574 58.8563 120.253 59.4588 125.649C60.143 131.877 58.5811 138.091 55.0595 143.151C51.27 148.595 45.5877 152.194 39.0687 153.289C37.634 153.528 36.1757 153.649 34.714 153.648Z" fill="white" fill-opacity="0.2"/>
<path d="M111.011 80.2299C109.069 80.2243 107.13 80.0966 105.21 79.848C96.4108 78.7343 89.7542 75.6318 85.4255 70.6201C79.9738 64.3229 78.3598 55.305 80.5242 43.0478C82.3055 32.8875 86.4482 22.6509 91.8851 14.9663C100.565 2.69315 109.609 0.564367 115.685 0.939847C122.721 1.37897 128.958 4.30326 133.725 9.40407C141.866 18.1133 144.751 31.9965 141.854 48.4922C139.895 59.6294 136.574 67.2503 131.401 72.4562C126.228 77.662 119.419 80.2299 111.011 80.2299Z" fill="white" fill-opacity="0.2"/>
<path d="M96.4442 123.101C94.9862 123.101 93.5317 122.98 92.1007 122.741C85.5705 121.647 79.8882 118.048 76.1099 112.603C72.5882 107.544 71.0263 101.329 71.7106 95.1021C72.3056 89.6927 74.3137 86.0269 77.8912 83.86C83.2202 80.6238 89.676 81.9858 95.9162 83.3063C97.5822 83.6563 99.3003 84.0191 100.981 84.2959L103.32 84.6682C110.62 85.8169 117.515 86.8957 121.356 91.7228C123.722 94.6916 124.357 98.4051 123.298 103.064C121.785 109.627 117.305 115.415 110.832 119.168C106.321 121.758 101.342 123.101 96.4442 123.101Z" fill="white" fill-opacity="0.2"/>
</svg>
