<svg width="30" height="25" viewBox="0 0 30 25" fill="none" xmlns="http://www.w3.org/2000/svg">
<path d="M9.4344 24.8766C20.7552 24.8766 26.9472 15.4974 26.9472 7.36376C26.9472 7.09736 26.9472 6.83216 26.9292 6.56816C28.1338 5.69685 29.1736 4.61802 30 3.38216C28.8767 3.88016 27.685 4.2066 26.4648 4.35056C27.7498 3.58142 28.7114 2.37154 29.1708 0.94616C27.9626 1.66317 26.6408 2.16844 25.2624 2.44016C24.3344 1.45338 23.107 0.799962 21.7702 0.581016C20.4335 0.36207 19.0618 0.589804 17.8675 1.22898C16.6731 1.86815 15.7228 2.88313 15.1634 4.11685C14.6041 5.35056 14.4669 6.73424 14.7732 8.05376C12.3261 7.93101 9.9322 7.29505 7.74682 6.18717C5.56144 5.07928 3.63345 3.52424 2.088 1.62296C1.30091 2.97795 1.05984 4.582 1.41387 6.10849C1.76791 7.63498 2.69043 8.96915 3.9936 9.83936C3.01404 9.81066 2.05581 9.5464 1.2 9.06896V9.14696C1.20039 10.568 1.69231 11.9452 2.59234 13.0449C3.49236 14.1446 4.74508 14.8992 6.138 15.1806C5.23185 15.4277 4.28109 15.4639 3.3588 15.2862C3.75227 16.5091 4.51804 17.5785 5.54905 18.3448C6.58006 19.1112 7.82478 19.5363 9.1092 19.5606C7.83305 20.5637 6.37164 21.3053 4.80859 21.7431C3.24554 22.1808 1.61152 22.3061 0 22.1118C2.81479 23.918 6.08991 24.8762 9.4344 24.8718" fill="#1DA1F2"/>
</svg>
