<svg width="22" height="22" viewBox="0 0 22 22" fill="none" xmlns="http://www.w3.org/2000/svg">
<path d="M10.5555 6.59593C11.2842 6.59593 11.875 6.00519 11.875 5.27648C11.875 4.54777 11.2842 3.95703 10.5555 3.95703C9.82682 3.95703 9.23608 4.54777 9.23608 5.27648C9.23608 6.00519 9.82682 6.59593 10.5555 6.59593Z" fill="black"/>
<path d="M10.5555 11.8733C11.2842 11.8733 11.875 11.2825 11.875 10.5538C11.875 9.82511 11.2842 9.23438 10.5555 9.23438C9.82682 9.23438 9.23608 9.82511 9.23608 10.5538C9.23608 11.2825 9.82682 11.8733 10.5555 11.8733Z" fill="black"/>
<path d="M10.5555 17.1545C11.2842 17.1545 11.875 16.5638 11.875 15.8351C11.875 15.1064 11.2842 14.5156 10.5555 14.5156C9.82682 14.5156 9.23608 15.1064 9.23608 15.8351C9.23608 16.5638 9.82682 17.1545 10.5555 17.1545Z" fill="black"/>
</svg>
