<svg width="25" height="31" viewBox="0 0 25 31" fill="none" xmlns="http://www.w3.org/2000/svg">
<path d="M12.901 25.7077C13.1926 25.6834 13.442 25.5682 13.6491 25.3621C13.8552 25.155 13.9583 24.9056 13.9583 24.6139C13.9583 24.2737 13.8489 24.0005 13.6301 23.7943C13.4114 23.5873 13.1319 23.4959 12.7916 23.5202C11.7951 23.5931 10.7378 23.3199 9.61971 22.7006C8.50165 22.0803 7.79679 20.9559 7.50513 19.3275C7.45652 19.0601 7.32867 18.8414 7.12159 18.6712C6.91547 18.5011 6.67874 18.416 6.41138 18.416C6.0711 18.416 5.79159 18.5434 5.57284 18.7981C5.35409 19.0538 5.28117 19.3518 5.35409 19.6921C5.76728 21.9039 6.7395 23.4837 8.27075 24.4316C9.802 25.3796 11.3454 25.8049 12.901 25.7077ZM12.4999 30.0827C9.17006 30.0827 6.39339 28.9403 4.16992 26.6556C1.94547 24.3709 0.833252 21.5271 0.833252 18.1243C0.833252 15.6938 1.79964 13.0508 3.73242 10.1954C5.66422 7.339 8.58672 4.24588 12.4999 0.916016C16.4131 4.24588 19.3361 7.339 21.2689 10.1954C23.2007 13.0508 24.1666 15.6938 24.1666 18.1243C24.1666 21.5271 23.0544 24.3709 20.8299 26.6556C18.6064 28.9403 15.8298 30.0827 12.4999 30.0827Z" fill="white"/>
</svg>
