<svg width="32" height="41" viewBox="0 0 32 41" fill="none" xmlns="http://www.w3.org/2000/svg">
<path d="M16.6831 1.21219C16.3514 0.987979 15.9602 0.868164 15.5598 0.868164C15.1594 0.868164 14.7682 0.987979 14.4365 1.21219C13.8347 1.61337 0.0141602 11.2416 0.0141602 25.4433C0.0141602 29.5663 1.652 33.5204 4.56737 36.4357C7.48274 39.3511 11.4368 40.989 15.5598 40.989C19.6828 40.989 23.6368 39.3511 26.5522 36.4357C29.4676 33.5204 31.1054 29.5663 31.1054 25.4433C31.1054 11.0009 17.2648 1.59331 16.6831 1.21219ZM15.5598 36.9772C12.5025 36.9719 9.57185 35.755 7.40998 33.5931C5.24811 31.4313 4.03124 28.5007 4.02594 25.4433C4.02594 15.4139 12.4707 7.85168 15.5598 5.38444C18.6689 7.81156 27.0937 15.4139 27.0937 25.4433C27.0883 28.5007 25.8715 31.4313 23.7096 33.5931C21.5477 35.755 18.6171 36.9719 15.5598 36.9772Z" fill="black"/>
</svg>
