<svg width="31" height="31" viewBox="0 0 31 31" fill="none" xmlns="http://www.w3.org/2000/svg">
<path d="M15.5255 24.0323C15.7785 24.0112 15.9948 23.9113 16.1744 23.7325C16.3531 23.5529 16.4425 23.3366 16.4425 23.0836C16.4425 22.7885 16.3477 22.5515 16.1579 22.3727C15.9682 22.1931 15.7258 22.1139 15.4306 22.135C14.5663 22.1982 13.6492 21.9612 12.6795 21.4241C11.7098 20.8861 11.0984 19.9109 10.8454 18.4984C10.8033 18.2665 10.6924 18.0768 10.5128 17.9292C10.334 17.7817 10.1287 17.7079 9.89676 17.7079C9.60162 17.7079 9.35919 17.8183 9.16946 18.0393C8.97972 18.261 8.91648 18.5195 8.97972 18.8146C9.33811 20.733 10.1814 22.1033 11.5095 22.9255C12.8376 23.7477 14.1763 24.1166 15.5255 24.0323ZM15.1776 27.8269C12.2895 27.8269 9.88116 26.8361 7.95264 24.8544C6.02328 22.8728 5.05859 20.4063 5.05859 17.4549C5.05859 15.3468 5.89679 13.0544 7.57318 10.5777C9.24872 8.10025 11.7835 5.41744 15.1776 2.5293C18.5717 5.41744 21.107 8.10025 22.7834 10.5777C24.4589 13.0544 25.2967 15.3468 25.2967 17.4549C25.2967 20.4063 24.332 22.8728 22.4026 24.8544C20.4741 26.8361 18.0658 27.8269 15.1776 27.8269Z" fill="#61A8F8"/>
</svg>
