<svg width="31" height="45" viewBox="0 0 31 45" fill="none" xmlns="http://www.w3.org/2000/svg">
<path d="M0.0915527 18.3615C0.0915527 17.3225 0.596155 16.0037 1.56654 14.3253C2.53693 12.6469 3.50731 11.2482 4.40007 10.1692C4.63296 9.88945 4.94349 9.48981 5.29283 9.05022C5.64217 8.61063 5.87506 8.37086 5.91388 8.3309L7.35005 10.0493C8.43688 11.2881 9.40727 12.6868 10.3 14.3253C11.1928 15.9638 11.6586 17.2825 11.6586 18.3615C11.6586 20 11.1152 21.4387 9.9895 22.5976C8.90267 23.7565 7.54413 24.356 5.91388 24.356C4.32244 24.356 2.92508 23.7565 1.79943 22.5976C0.673784 21.3987 0.0915527 20 0.0915527 18.3615ZM12.202 34.9461C12.202 33.7872 12.5125 32.4684 13.1336 30.9098C13.7546 29.3913 14.5309 27.9526 15.4625 26.6738C17.248 24.2361 18.9171 22.198 20.5473 20.5595C20.7026 20.4396 21.0519 20.1199 21.5565 19.6004L22.5269 20.5595C24.0407 22.0381 25.7486 24.0762 27.6506 26.6338C28.6598 27.9926 29.4361 29.4312 30.0571 30.9498C30.6782 32.4684 30.9887 33.7872 30.9887 34.9461C30.9887 37.7035 30.0959 39.9814 28.2716 41.8596C26.4473 43.7379 24.196 44.657 21.5565 44.657C18.9171 44.657 16.7046 43.6979 14.8803 41.8197C13.0559 39.9414 12.202 37.6236 12.202 34.9461ZM18.1019 7.37179C18.1019 5.65339 19.3829 3.37552 21.9835 0.578125L22.9539 1.69708C23.6914 2.57626 24.3512 3.53537 24.9335 4.65433C25.5157 5.73332 25.8262 6.65246 25.8262 7.37179C25.8262 8.49075 25.4381 9.36993 24.7006 10.1292C23.9631 10.8485 23.0703 11.2482 21.9835 11.2482C20.8578 11.2482 19.9263 10.8885 19.1888 10.1292C18.4901 9.36993 18.1019 8.45078 18.1019 7.37179Z" fill="white"/>
</svg>
