<svg width="21" height="29" viewBox="0 0 21 29" fill="none" xmlns="http://www.w3.org/2000/svg">
<path d="M0.84082 11.4604C0.84082 10.7941 1.16235 9.94845 1.78067 8.87214C2.399 7.79583 3.01732 6.8989 3.58618 6.20699C3.73458 6.0276 3.93244 5.77134 4.15504 5.48945C4.37763 5.20755 4.52603 5.0538 4.55076 5.02817L5.46588 6.13011C6.15841 6.92453 6.77673 7.82145 7.34559 8.87214C7.91445 9.92282 8.21124 10.7685 8.21124 11.4604C8.21124 12.5111 7.86498 13.4336 7.14773 14.1768C6.4552 14.92 5.58955 15.3044 4.55076 15.3044C3.53671 15.3044 2.64633 14.92 1.92907 14.1768C1.21181 13.408 0.84082 12.5111 0.84082 11.4604ZM8.5575 22.0954C8.5575 21.3522 8.75537 20.5065 9.15109 19.5071C9.54682 18.5333 10.0415 17.6108 10.6351 16.7907C11.7728 15.2275 12.8363 13.9205 13.8751 12.8699C13.974 12.793 14.1966 12.588 14.5181 12.2548L15.1365 12.8699C16.1011 13.818 17.1893 15.125 18.4012 16.7651C19.0443 17.6364 19.5389 18.5589 19.9347 19.5327C20.3304 20.5065 20.5283 21.3522 20.5283 22.0954C20.5283 23.8636 19.9594 25.3243 18.7969 26.5288C17.6345 27.7332 16.2 28.3226 14.5181 28.3226C12.8363 28.3226 11.4265 27.7076 10.2641 26.5031C9.10163 25.2987 8.5575 23.8124 8.5575 22.0954ZM12.3169 4.41314C12.3169 3.3112 13.1331 1.85049 14.7902 0.0566406L15.4085 0.774182C15.8785 1.33796 16.2989 1.953 16.6699 2.67054C17.0409 3.36245 17.2388 3.95186 17.2388 4.41314C17.2388 5.13068 16.9914 5.69446 16.5215 6.18136C16.0516 6.64264 15.4827 6.8989 14.7902 6.8989C14.073 6.8989 13.4794 6.66826 13.0094 6.18136C12.5642 5.69446 12.3169 5.10505 12.3169 4.41314Z" fill="white"/>
</svg>
