<svg width="25" height="23" viewBox="0 0 25 23" fill="none" xmlns="http://www.w3.org/2000/svg">
<path d="M12.1059 0C13.3902 0 14.6219 0.516859 15.53 1.43687C16.4381 2.35689 16.9483 3.6047 16.9483 4.9058C16.9483 5.80111 16.7183 6.63509 16.2945 7.3587H19.3694C20.5195 7.3587 21.488 8.18042 21.7301 9.27196C24.1634 19.0958 24.2118 19.3534 24.2118 19.6232C24.2118 20.2737 23.9567 20.8976 23.5027 21.3577C23.0486 21.8177 22.4328 22.0761 21.7906 22.0761H2.42118C1.77904 22.0761 1.16321 21.8177 0.709147 21.3577C0.255088 20.8976 0 20.2737 0 19.6232C0 19.3534 0.0484239 19.0958 2.48171 9.27196C2.72383 8.18042 3.6923 7.3587 4.84236 7.3587H7.91726C7.48451 6.61596 7.25859 5.76826 7.26354 4.9058C7.26354 3.6047 7.77372 2.35689 8.68184 1.43687C9.58996 0.516859 10.8216 0 12.1059 0ZM12.1059 2.4529C11.4638 2.4529 10.8479 2.71133 10.3939 3.17134C9.93981 3.63134 9.68472 4.25525 9.68472 4.9058C9.68472 5.55635 9.93981 6.18025 10.3939 6.64026C10.8479 7.10027 11.4638 7.3587 12.1059 7.3587C12.748 7.3587 13.3639 7.10027 13.8179 6.64026C14.272 6.18025 14.5271 5.55635 14.5271 4.9058C14.5271 4.25525 14.272 3.63134 13.8179 3.17134C13.3639 2.71133 12.748 2.4529 12.1059 2.4529ZM4.84236 9.8116V19.6232H7.26354V16.5571L8.47413 17.7835V19.6232H10.8953V17.1703L8.47413 14.7174L10.8953 12.2645V9.8116H8.47413V11.6513L7.26354 12.8777V9.8116H4.84236ZM15.7377 9.8116C14.3939 9.8116 13.3165 10.9031 13.3165 12.2645V17.1703C13.3165 18.5317 14.3939 19.6232 15.7377 19.6232H19.3694V13.4909H16.9483V17.1703H15.7377V12.2645H19.3694V9.8116H15.7377Z" fill="#82A5A9"/>
</svg>
