<svg width="25" height="25" viewBox="0 0 25 25" fill="none" xmlns="http://www.w3.org/2000/svg">
<g clip-path="url(#clip0_3092_24827)">
<path d="M6.25 10.625C7.98177 8.54167 10.0651 7.5 12.5 7.5C14.9349 7.5 17.0182 8.54167 18.75 10.625" stroke="black" stroke-width="2" stroke-linecap="round"/>
<path d="M12.5 16.8438C12.9144 16.8437 13.3118 16.6791 13.6049 16.3861C13.8979 16.0931 14.0625 15.6957 14.0625 15.2812C14.0625 14.8668 13.8979 14.4694 13.6049 14.1764C13.3118 13.8834 12.9144 13.7188 12.5 13.7188C12.0856 13.7188 11.6882 13.8834 11.3951 14.1764C11.1021 14.4694 10.9375 14.8668 10.9375 15.2812C10.9375 15.6957 11.1021 16.0931 11.3951 16.3861C11.6882 16.6791 12.0856 16.8437 12.5 16.8438Z" fill="black"/>
<path d="M9.89453 11.6406L12.5029 15.2865" stroke="black" stroke-width="2" stroke-linecap="round"/>
<path d="M21.7708 2.5H4.0625C3.6481 2.5 3.25067 2.66462 2.95765 2.95765C2.66462 3.25067 2.5 3.6481 2.5 4.0625V21.7708C2.5 22.1852 2.66462 22.5827 2.95765 22.8757C3.25067 23.1687 3.6481 23.3333 4.0625 23.3333H21.7708C22.1852 23.3333 22.5827 23.1687 22.8757 22.8757C23.1687 22.5827 23.3333 22.1852 23.3333 21.7708V4.0625C23.3333 3.6481 23.1687 3.25067 22.8757 2.95765C22.5827 2.66462 22.1852 2.5 21.7708 2.5V2.5Z" stroke="black" stroke-width="2" stroke-linejoin="round"/>
</g>
<defs>
<clipPath id="clip0_3092_24827">
<rect width="25" height="25" fill="white"/>
</clipPath>
</defs>
</svg>
