<svg width="25" height="23" viewBox="0 0 25 23" fill="none" xmlns="http://www.w3.org/2000/svg">
<path d="M12.4389 0.0566406C13.7232 0.0566406 14.9549 0.5735 15.863 1.49352C16.7711 2.41353 17.2813 3.66134 17.2813 4.96244C17.2813 5.85775 17.0513 6.69173 16.6276 7.41534H19.7025C20.8525 7.41534 21.821 8.23706 22.0631 9.3286C24.4964 19.1525 24.5448 19.41 24.5448 19.6798C24.5448 20.3304 24.2897 20.9543 23.8357 21.4143C23.3816 21.8743 22.7658 22.1327 22.1236 22.1327H2.75419C2.11205 22.1327 1.49621 21.8743 1.04216 21.4143C0.588096 20.9543 0.333008 20.3304 0.333008 19.6798C0.333008 19.41 0.381432 19.1525 2.81472 9.3286C3.05684 8.23706 4.02531 7.41534 5.17537 7.41534H8.25027C7.81752 6.6726 7.5916 5.8249 7.59655 4.96244C7.59655 3.66134 8.10673 2.41353 9.01484 1.49352C9.92296 0.5735 11.1546 0.0566406 12.4389 0.0566406ZM12.4389 2.50954C11.7968 2.50954 11.1809 2.76797 10.7269 3.22798C10.2728 3.68798 10.0177 4.31189 10.0177 4.96244C10.0177 5.61299 10.2728 6.23689 10.7269 6.6969C11.1809 7.15691 11.7968 7.41534 12.4389 7.41534C13.081 7.41534 13.6969 7.15691 14.1509 6.6969C14.605 6.23689 14.8601 5.61299 14.8601 4.96244C14.8601 4.31189 14.605 3.68798 14.1509 3.22798C13.6969 2.76797 13.081 2.50954 12.4389 2.50954ZM5.17537 9.86824V19.6798H7.59655V16.6137L8.80714 17.8402V19.6798H11.2283V17.2269L8.80714 14.774L11.2283 12.3211V9.86824H8.80714V11.7079L7.59655 12.9344V9.86824H5.17537ZM16.0707 9.86824C14.7269 9.86824 13.6495 10.9598 13.6495 12.3211V17.2269C13.6495 18.5883 14.7269 19.6798 16.0707 19.6798H19.7025V13.5476H17.2813V17.2269H16.0707V12.3211H19.7025V9.86824H16.0707Z" fill="white"/>
</svg>
