<svg width="286" height="239" viewBox="0 0 286 239" fill="none" xmlns="http://www.w3.org/2000/svg">
<rect opacity="0.74" width="285.18" height="239" rx="20" fill="#F3F3F3"/>
<g clip-path="url(#clip0_1382_24077)">
<path d="M152.322 107.347C152.322 109.899 151.308 112.346 149.504 114.15C147.7 115.954 145.252 116.968 142.701 116.968C140.149 116.968 137.702 115.954 135.898 114.15C134.094 112.346 133.08 109.899 133.08 107.347C133.08 104.796 134.094 102.349 135.898 100.544C137.702 98.7402 140.149 97.7266 142.701 97.7266C145.252 97.7266 147.7 98.7402 149.504 100.544C151.308 102.349 152.322 104.796 152.322 107.347Z" fill="black"/>
<path d="M119.611 90.0286C117.569 90.0286 115.612 90.8395 114.168 92.2829C112.725 93.7263 111.914 95.684 111.914 97.7253V120.815C111.914 122.856 112.725 124.814 114.168 126.257C115.612 127.701 117.569 128.512 119.611 128.512H165.79C167.832 128.512 169.789 127.701 171.233 126.257C172.676 124.814 173.487 122.856 173.487 120.815V97.7253C173.487 95.684 172.676 93.7263 171.233 92.2829C169.789 90.8395 167.832 90.0286 165.79 90.0286H161.28C159.239 90.0282 157.282 89.217 155.839 87.7735L152.652 84.5871C151.209 83.1436 149.252 82.3325 147.211 82.332H138.19C136.149 82.3325 134.192 83.1436 132.749 84.5871L129.562 87.7735C128.119 89.217 126.162 90.0282 124.121 90.0286H119.611ZM121.535 97.7253C121.025 97.7253 120.535 97.5225 120.174 97.1617C119.813 96.8008 119.611 96.3114 119.611 95.8011C119.611 95.2908 119.813 94.8014 120.174 94.4405C120.535 94.0797 121.025 93.8769 121.535 93.8769C122.045 93.8769 122.535 94.0797 122.895 94.4405C123.256 94.8014 123.459 95.2908 123.459 95.8011C123.459 96.3114 123.256 96.8008 122.895 97.1617C122.535 97.5225 122.045 97.7253 121.535 97.7253ZM156.17 107.346C156.17 110.918 154.75 114.344 152.225 116.87C149.699 119.396 146.273 120.815 142.7 120.815C139.128 120.815 135.702 119.396 133.176 116.87C130.65 114.344 129.231 110.918 129.231 107.346C129.231 103.774 130.65 100.348 133.176 97.8219C135.702 95.296 139.128 93.8769 142.7 93.8769C146.273 93.8769 149.699 95.296 152.225 97.8219C154.75 100.348 156.17 103.774 156.17 107.346Z" fill="black"/>
</g>
<path d="M161.055 55.9023H178.936C185.84 55.9023 191.436 61.4988 191.436 68.4023V86.2837" stroke="black" stroke-width="3.75" stroke-linecap="round"/>
<path opacity="0.9" d="M93.1895 86.2852V68.4038C93.1895 61.5002 98.7859 55.9038 105.689 55.9038H123.571" stroke="black" stroke-width="3.75" stroke-linecap="round"/>
<path d="M161.055 154.137H178.936C185.84 154.137 191.436 148.54 191.436 141.637V123.755" stroke="black" stroke-width="3.75" stroke-linecap="round"/>
<path opacity="0.9" d="M93.1895 123.754V141.635C93.1895 148.539 98.7859 154.135 105.689 154.135H123.571" stroke="black" stroke-width="3.75" stroke-linecap="round"/>
<path d="M91.3784 195.269C92.2794 195.269 92.9907 194.961 93.5124 194.344C94.0498 193.728 94.3186 192.89 94.3186 191.831V185.405H96.2866V191.902C96.2866 193.546 95.8361 194.826 94.9351 195.743C94.034 196.66 92.8485 197.119 91.3784 197.119C89.9082 197.119 88.7227 196.66 87.8216 195.743C86.9206 194.826 86.4701 193.546 86.4701 191.902V185.405H88.4144V191.831C88.4144 192.906 88.6832 193.744 89.2206 194.344C89.7423 194.961 90.4615 195.269 91.3784 195.269ZM108.143 192.542C108.143 193.87 107.732 194.969 106.91 195.838C106.088 196.708 105.108 197.142 103.97 197.142C102.848 197.142 101.844 196.652 100.959 195.672V200.225H99.1094V188.179H100.959V189.721C101.702 188.598 102.658 188.037 103.828 188.037C105.045 188.037 106.065 188.456 106.887 189.294C107.724 190.132 108.143 191.214 108.143 192.542ZM103.543 195.482C104.302 195.482 104.942 195.214 105.464 194.676C106.001 194.123 106.27 193.427 106.27 192.59C106.27 191.752 106.001 191.056 105.464 190.503C104.942 189.95 104.31 189.673 103.567 189.673C102.824 189.673 102.2 189.958 101.694 190.527C101.188 191.08 100.935 191.768 100.935 192.59C100.935 193.427 101.188 194.123 101.694 194.676C102.2 195.214 102.816 195.482 103.543 195.482ZM112.099 197H110.25V184.694H112.099V197ZM118.864 195.482C119.67 195.482 120.334 195.214 120.856 194.676C121.393 194.139 121.662 193.443 121.662 192.59C121.662 191.736 121.393 191.041 120.856 190.503C120.334 189.966 119.67 189.697 118.864 189.697C118.058 189.697 117.394 189.966 116.872 190.503C116.351 191.041 116.09 191.736 116.09 192.59C116.09 193.443 116.351 194.131 116.872 194.653C117.394 195.206 118.058 195.482 118.864 195.482ZM118.864 197.142C117.536 197.142 116.43 196.708 115.545 195.838C114.659 194.953 114.217 193.87 114.217 192.59C114.217 191.309 114.659 190.234 115.545 189.365C116.43 188.48 117.536 188.037 118.864 188.037C120.192 188.037 121.299 188.48 122.184 189.365C123.069 190.234 123.512 191.309 123.512 192.59C123.512 193.823 123.069 194.898 122.184 195.814C121.299 196.7 120.192 197.142 118.864 197.142ZM132.75 197H131.067V195.814C130.324 196.7 129.344 197.142 128.127 197.142C127.194 197.142 126.427 196.881 125.827 196.36C125.242 195.822 124.949 195.127 124.949 194.273C124.949 193.42 125.265 192.771 125.898 192.329C126.53 191.886 127.4 191.665 128.506 191.665H130.925V191.333C130.925 190.163 130.269 189.578 128.957 189.578C128.135 189.578 127.281 189.879 126.396 190.479L125.566 189.318C126.657 188.464 127.874 188.037 129.217 188.037C130.308 188.037 131.17 188.314 131.802 188.867C132.434 189.404 132.75 190.219 132.75 191.309V197ZM130.901 192.969H128.814C127.471 192.969 126.799 193.388 126.799 194.226C126.799 194.653 126.965 194.985 127.297 195.222C127.629 195.443 128.095 195.554 128.696 195.554C129.312 195.554 129.834 195.388 130.261 195.056C130.687 194.708 130.901 194.257 130.901 193.704V192.969ZM134.792 192.542C134.792 191.214 135.211 190.132 136.049 189.294C136.887 188.456 137.914 188.037 139.131 188.037C140.301 188.037 141.242 188.535 141.953 189.531V184.694H143.826V197H141.953V195.672C141.289 196.652 140.293 197.142 138.965 197.142C137.811 197.142 136.824 196.715 136.002 195.862C135.195 194.992 134.792 193.886 134.792 192.542ZM139.369 195.482C140.111 195.482 140.736 195.214 141.242 194.676C141.748 194.139 142 193.451 142 192.613C142 191.791 141.74 191.096 141.218 190.527C140.712 189.958 140.088 189.673 139.345 189.673C138.602 189.673 137.962 189.958 137.424 190.527C136.903 191.08 136.642 191.776 136.642 192.613C136.642 193.451 136.91 194.139 137.448 194.676C137.985 195.214 138.626 195.482 139.369 195.482ZM160.096 192.542C160.096 193.87 159.685 194.969 158.863 195.838C158.041 196.708 157.06 197.142 155.922 197.142C154.8 197.142 153.796 196.652 152.911 195.672V200.225H151.062V188.179H152.911V189.721C153.654 188.598 154.61 188.037 155.78 188.037C156.997 188.037 158.017 188.456 158.839 189.294C159.677 190.132 160.096 191.214 160.096 192.542ZM155.496 195.482C156.254 195.482 156.894 195.214 157.416 194.676C157.954 194.123 158.222 193.427 158.222 192.59C158.222 191.752 157.954 191.056 157.416 190.503C156.894 189.95 156.262 189.673 155.519 189.673C154.776 189.673 154.152 189.958 153.646 190.527C153.14 191.08 152.887 191.768 152.887 192.59C152.887 193.427 153.14 194.123 153.646 194.676C154.152 195.214 154.768 195.482 155.496 195.482ZM164.052 197H162.202V184.694H164.052V189.768C164.32 189.231 164.723 188.812 165.261 188.511C165.798 188.195 166.375 188.037 166.992 188.037C168.019 188.037 168.833 188.345 169.434 188.962C170.035 189.578 170.335 190.456 170.335 191.594V197H168.462V192.163C168.462 190.535 167.79 189.721 166.446 189.721C165.767 189.721 165.198 189.942 164.739 190.385C164.281 190.811 164.052 191.42 164.052 192.21V197ZM176.971 195.482C177.777 195.482 178.441 195.214 178.962 194.676C179.5 194.139 179.769 193.443 179.769 192.59C179.769 191.736 179.5 191.041 178.962 190.503C178.441 189.966 177.777 189.697 176.971 189.697C176.164 189.697 175.501 189.966 174.979 190.503C174.457 191.041 174.196 191.736 174.196 192.59C174.196 193.443 174.457 194.131 174.979 194.653C175.501 195.206 176.164 195.482 176.971 195.482ZM176.971 197.142C175.643 197.142 174.536 196.708 173.651 195.838C172.766 194.953 172.323 193.87 172.323 192.59C172.323 191.309 172.766 190.234 173.651 189.365C174.536 188.48 175.643 188.037 176.971 188.037C178.298 188.037 179.405 188.48 180.29 189.365C181.175 190.234 181.618 191.309 181.618 192.59C181.618 193.823 181.175 194.898 180.29 195.814C179.405 196.7 178.298 197.142 176.971 197.142ZM185.996 189.673V194.155C185.996 194.581 186.107 194.921 186.328 195.174C186.565 195.411 186.881 195.53 187.276 195.53C187.64 195.53 188.019 195.332 188.415 194.937L189.173 196.265C188.509 196.85 187.79 197.142 187.016 197.142C186.209 197.142 185.53 196.866 184.976 196.312C184.423 195.743 184.147 195.008 184.147 194.107V189.673H183.032V188.179H184.147V185.405H185.996V188.179H188.32V189.673H185.996ZM194.715 195.482C195.521 195.482 196.185 195.214 196.707 194.676C197.244 194.139 197.513 193.443 197.513 192.59C197.513 191.736 197.244 191.041 196.707 190.503C196.185 189.966 195.521 189.697 194.715 189.697C193.909 189.697 193.245 189.966 192.723 190.503C192.201 191.041 191.941 191.736 191.941 192.59C191.941 193.443 192.201 194.131 192.723 194.653C193.245 195.206 193.909 195.482 194.715 195.482ZM194.715 197.142C193.387 197.142 192.28 196.708 191.395 195.838C190.51 194.953 190.067 193.87 190.067 192.59C190.067 191.309 190.51 190.234 191.395 189.365C192.28 188.48 193.387 188.037 194.715 188.037C196.043 188.037 197.149 188.48 198.034 189.365C198.92 190.234 199.362 191.309 199.362 192.59C199.362 193.823 198.92 194.898 198.034 195.814C197.149 196.7 196.043 197.142 194.715 197.142Z" fill="black"/>
<defs>
<clipPath id="clip0_1382_24077">
<rect width="61.5729" height="61.5729" fill="white" transform="translate(111.914 74.6367)"/>
</clipPath>
</defs>
</svg>
