<svg width="22" height="22" viewBox="0 0 22 22" fill="none" xmlns="http://www.w3.org/2000/svg">
<path d="M4.57143 3.76836C4.36792 3.76836 4.17327 3.85327 4.03015 4.00355C3.8871 4.15374 3.80714 4.35695 3.80714 4.56836C3.80714 4.77977 3.8871 4.98298 4.03015 5.13317C4.17327 5.28345 4.36792 5.36836 4.57143 5.36836H17.4286C17.6321 5.36836 17.8267 5.28345 17.9699 5.13317C18.1129 4.98298 18.1929 4.77977 18.1929 4.56836C18.1929 4.35695 18.1129 4.15374 17.9699 4.00355C17.8267 3.85327 17.6321 3.76836 17.4286 3.76836H4.57143ZM6 12.8684C6.58239 12.8684 7.1404 12.6254 7.55144 12.1938C7.96239 11.7623 8.19286 11.1776 8.19286 10.5684C8.19286 9.95913 7.96239 9.37439 7.55144 8.94289C7.1404 8.5113 6.58239 8.26836 6 8.26836C5.41761 8.26836 4.8596 8.5113 4.44856 8.94289C4.03761 9.37439 3.80714 9.95913 3.80714 10.5684C3.80714 11.1776 4.03761 11.7623 4.44856 12.1938C4.8596 12.6254 5.41761 12.8684 6 12.8684ZM6 11.2684C5.82463 11.2684 5.65592 11.1952 5.53113 11.0642C5.40627 10.9331 5.33571 10.7548 5.33571 10.5684C5.33571 10.3819 5.40627 10.2036 5.53113 10.0725C5.65592 9.94148 5.82463 9.86836 6 9.86836C6.17537 9.86836 6.34408 9.94149 6.46887 10.0725C6.59374 10.2036 6.66429 10.3819 6.66429 10.5684C6.66429 10.7548 6.59374 10.9331 6.46887 11.0642C6.34408 11.1952 6.17537 11.2684 6 11.2684ZM7.55144 18.1938C7.96239 17.7623 8.19286 17.1776 8.19286 16.5684C8.19286 15.9591 7.96239 15.3744 7.55144 14.9429C7.1404 14.5113 6.58239 14.2684 6 14.2684C5.41761 14.2684 4.8596 14.5113 4.44856 14.9429C4.03761 15.3744 3.80714 15.9591 3.80714 16.5684C3.80714 17.1776 4.03761 17.7623 4.44856 18.1938C4.8596 18.6254 5.41761 18.8684 6 18.8684C6.58239 18.8684 7.1404 18.6254 7.55144 18.1938ZM6.46887 16.0725C6.59374 16.2036 6.66429 16.3819 6.66429 16.5684C6.66429 16.7548 6.59374 16.9331 6.46887 17.0642C6.34408 17.1952 6.17537 17.2684 6 17.2684C5.82463 17.2684 5.65592 17.1952 5.53113 17.0642C5.40627 16.9331 5.33571 16.7548 5.33571 16.5684C5.33571 16.3819 5.40627 16.2036 5.53113 16.0725C5.65592 15.9415 5.82463 15.8684 6 15.8684C6.17537 15.8684 6.34408 15.9415 6.46887 16.0725ZM9.74443 10.0035C9.60139 10.1537 9.52143 10.357 9.52143 10.5684C9.52143 10.7798 9.60139 10.983 9.74443 11.1332C9.88755 11.2835 10.0822 11.3684 10.2857 11.3684H17.4286C17.6321 11.3684 17.8267 11.2835 17.9699 11.1332C18.1129 10.983 18.1929 10.7798 18.1929 10.5684C18.1929 10.357 18.1129 10.1537 17.9699 10.0035C17.8267 9.85327 17.6321 9.76836 17.4286 9.76836H10.2857C10.0822 9.76836 9.88755 9.85327 9.74443 10.0035ZM10.2857 15.7684C10.0822 15.7684 9.88755 15.8533 9.74443 16.0035C9.60139 16.1537 9.52143 16.357 9.52143 16.5684C9.52143 16.7798 9.60139 16.983 9.74443 17.1332C9.88755 17.2835 10.0822 17.3684 10.2857 17.3684H17.4286C17.6321 17.3684 17.8267 17.2835 17.9699 17.1332C18.1129 16.983 18.1929 16.7798 18.1929 16.5684C18.1929 16.357 18.1129 16.1537 17.9699 16.0035C17.8267 15.8533 17.6321 15.7684 17.4286 15.7684H10.2857ZM5.28571 0.768359C4.135 0.768359 3.03194 1.24836 2.21905 2.1019C1.40623 2.95535 0.95 4.11239 0.95 5.31836V17.3184C0.95 18.5243 1.40623 19.6814 2.21905 20.5348C3.03194 21.3884 4.135 21.8684 5.28571 21.8684H16.7143C17.865 21.8684 18.9681 21.3884 19.781 20.5348C20.5938 19.6814 21.05 18.5243 21.05 17.3184V5.31836C21.05 4.11239 20.5938 2.95535 19.781 2.1019C18.9681 1.24836 17.865 0.768359 16.7143 0.768359H5.28571ZM2.47857 5.31836C2.47857 4.5352 2.77489 3.78459 3.30162 3.23152C3.82827 2.67854 4.54202 2.36836 5.28571 2.36836H16.7143C17.458 2.36836 18.1717 2.67854 18.6984 3.23152C19.2251 3.78459 19.5214 4.5352 19.5214 5.31836V17.3184C19.5214 18.1015 19.2251 18.8521 18.6984 19.4052C18.1717 19.9582 17.458 20.2684 16.7143 20.2684H5.28571C4.54202 20.2684 3.82827 19.9582 3.30162 19.4052C2.77489 18.8521 2.47857 18.1015 2.47857 17.3184V5.31836Z" fill="black" stroke="black" stroke-width="0.1"/>
</svg>
