<svg width="22" height="22" viewBox="0 0 22 22" fill="none" xmlns="http://www.w3.org/2000/svg">
<path d="M7.61887 2.238C6.86905 3.90906 6.6361 5.77591 6.95138 7.58706C7.26666 9.39821 8.11504 11.0667 9.38223 12.3676C10.6494 13.6686 12.2745 14.5396 14.0386 14.8633C15.8028 15.187 17.6211 14.9478 19.2488 14.178C18.2806 18.654 14.3913 22 9.7403 22C4.36073 22 0 17.523 0 12C0 7.225 3.25911 3.232 7.61887 2.238ZM15.7442 2.291L16.5585 2.5V3.5L15.7442 3.709C15.4018 3.79693 15.089 3.97875 14.8394 4.23503C14.5898 4.4913 14.4127 4.8124 14.327 5.164L14.1234 6H13.1494L12.9458 5.164C12.8602 4.8124 12.6831 4.4913 12.4335 4.23503C12.1839 3.97875 11.8711 3.79693 11.5286 3.709L10.7143 3.5V2.5L11.5286 2.291C11.8709 2.20291 12.1835 2.02102 12.4329 1.76475C12.6823 1.50849 12.8593 1.18748 12.9449 0.836L13.1494 0H14.1234L14.327 0.836C14.4127 1.1876 14.5898 1.5087 14.8394 1.76497C15.089 2.02125 15.4018 2.20307 15.7442 2.291ZM20.6144 7.291L21.4287 7.5V8.5L20.6144 8.709C20.2719 8.79693 19.9592 8.97875 19.7095 9.23503C19.4599 9.4913 19.2828 9.8124 19.1972 10.164L18.9936 11H18.0196L17.816 10.164C17.7303 9.8124 17.5532 9.4913 17.3036 9.23503C17.054 8.97875 16.7412 8.79693 16.3988 8.709L15.5845 8.5V7.5L16.3988 7.291C16.7412 7.20307 17.054 7.02125 17.3036 6.76497C17.5532 6.5087 17.7303 6.1876 17.816 5.836L18.0196 5H18.9936L19.1972 5.836C19.2828 6.1876 19.4599 6.5087 19.7095 6.76497C19.9592 7.02125 20.2719 7.20307 20.6144 7.291Z" fill="#6D49E0"/>
</svg>
