<svg width="24" height="23" viewBox="0 0 24 23" fill="none" xmlns="http://www.w3.org/2000/svg">
<g clip-path="url(#clip0_9951_7099)">
<rect x="1.09998" y="1.97656" width="20.9" height="19.8" fill="#4B99FB"/>
<path d="M9.24002 8.94368H13.86M11.55 8.94368V15.5437M16.17 15.5437V11.877M16.17 11.877V8.94368H17.71C18.1185 8.94368 18.5102 9.09821 18.799 9.37326C19.0878 9.64831 19.25 10.0214 19.25 10.4104C19.25 10.7993 19.0878 11.1724 18.799 11.4474C18.5102 11.7225 18.1185 11.877 17.71 11.877H16.17ZM6.93002 10.4104V13.3437C6.93002 13.7327 6.76777 14.1057 6.47896 14.3808C6.19016 14.6558 5.79845 14.8104 5.39002 14.8104C4.98159 14.8104 4.58988 14.6558 4.30107 14.3808C4.01227 14.1057 3.85002 13.7327 3.85002 13.3437V10.4104C3.85002 10.0214 4.01227 9.64831 4.30107 9.37326C4.58988 9.09821 4.98159 8.94368 5.39002 8.94368C5.79845 8.94368 6.19016 9.09821 6.47896 9.37326C6.76777 9.64831 6.93002 10.0214 6.93002 10.4104V10.4104ZM2.31002 1.61035H20.79C21.1985 1.61035 21.5902 1.76487 21.879 2.03993C22.1678 2.31498 22.33 2.68803 22.33 3.07702V20.677C22.33 21.066 22.1678 21.4391 21.879 21.7141C21.5902 21.9892 21.1985 22.1437 20.79 22.1437H2.31002C1.90159 22.1437 1.50988 21.9892 1.22108 21.7141C0.932269 21.4391 0.77002 21.066 0.77002 20.677V3.07702C0.77002 2.68803 0.932269 2.31498 1.22108 2.03993C1.50988 1.76487 1.90159 1.61035 2.31002 1.61035V1.61035Z" stroke="white"/>
</g>
<defs>
<clipPath id="clip0_9951_7099">
<rect width="23.1" height="22" fill="white" transform="translate(0 0.876953)"/>
</clipPath>
</defs>
</svg>
