<svg width="22" height="22" viewBox="0 0 22 22" fill="none" xmlns="http://www.w3.org/2000/svg">
<path d="M8.24837 9.35251H10.9978C11.2895 9.35251 11.5692 9.23664 11.7755 9.03039C11.9817 8.82415 12.0976 8.54441 12.0976 8.25273C12.0976 7.96105 11.9817 7.68132 11.7755 7.47507C11.5692 7.26882 11.2895 7.15295 10.9978 7.15295H9.89804V6.60306C9.89804 6.31138 9.78217 6.03165 9.57592 5.8254C9.36967 5.61915 9.08994 5.50328 8.79826 5.50328C8.50658 5.50328 8.22685 5.61915 8.0206 5.8254C7.81435 6.03165 7.69848 6.31138 7.69848 6.60306V7.20794C7.03028 7.34362 6.43633 7.72275 6.03193 8.27172C5.62754 8.82069 5.44155 9.50034 5.51007 10.1787C5.5786 10.8571 5.89674 11.4858 6.40275 11.9428C6.90876 12.3999 7.56653 12.6525 8.24837 12.6519H9.34815C9.49399 12.6519 9.63386 12.7098 9.73698 12.8129C9.84011 12.916 9.89804 13.0559 9.89804 13.2017C9.89804 13.3476 9.84011 13.4875 9.73698 13.5906C9.63386 13.6937 9.49399 13.7516 9.34815 13.7516H6.5987C6.30702 13.7516 6.02728 13.8675 5.82103 14.0738C5.61479 14.28 5.49892 14.5597 5.49892 14.8514C5.49892 15.1431 5.61479 15.4228 5.82103 15.6291C6.02728 15.8353 6.30702 15.9512 6.5987 15.9512H7.69848V16.5011C7.69848 16.7928 7.81435 17.0725 8.0206 17.2788C8.22685 17.485 8.50658 17.6009 8.79826 17.6009C9.08994 17.6009 9.36967 17.485 9.57592 17.2788C9.78217 17.0725 9.89804 16.7928 9.89804 16.5011V15.8962C10.5662 15.7605 11.1602 15.3814 11.5646 14.8324C11.969 14.2835 12.155 13.6038 12.0864 12.9254C12.0179 12.247 11.6998 11.6183 11.1938 11.1613C10.6878 10.7043 10.03 10.4516 9.34815 10.4523H8.24837C8.10253 10.4523 7.96266 10.3944 7.85954 10.2912C7.75641 10.1881 7.69848 10.0482 7.69848 9.9024C7.69848 9.75656 7.75641 9.6167 7.85954 9.51357C7.96266 9.41045 8.10253 9.35251 8.24837 9.35251ZM20.8959 11.0022H17.5965V1.10415C17.5973 0.91036 17.5468 0.719805 17.4503 0.551783C17.3537 0.383761 17.2145 0.244238 17.0466 0.147343C16.8794 0.0508169 16.6898 0 16.4967 0C16.3037 0 16.114 0.0508169 15.9468 0.147343L12.6475 2.03897L9.34815 0.147343C9.18096 0.0508169 8.99131 0 8.79826 0C8.60521 0 8.41556 0.0508169 8.24837 0.147343L4.94903 2.03897L1.64968 0.147343C1.48249 0.0508169 1.29284 0 1.09979 0C0.906738 0 0.717087 0.0508169 0.549899 0.147343C0.382068 0.244238 0.24282 0.383761 0.146256 0.551783C0.0496912 0.719805 -0.000760702 0.91036 8.66945e-06 1.10415V18.7007C8.66945e-06 19.5757 0.347617 20.4149 0.966364 21.0336C1.58511 21.6524 2.42431 22 3.29935 22H18.6963C19.5713 22 20.4105 21.6524 21.0293 21.0336C21.648 20.4149 21.9956 19.5757 21.9956 18.7007V12.102C21.9956 11.8103 21.8798 11.5306 21.6735 11.3243C21.4673 11.1181 21.1875 11.0022 20.8959 11.0022ZM3.29935 19.8004C3.00767 19.8004 2.72794 19.6846 2.52169 19.4783C2.31544 19.2721 2.19957 18.9923 2.19957 18.7007V3.00677L4.39913 4.26052C4.56887 4.34918 4.75753 4.39548 4.94903 4.39548C5.14052 4.39548 5.32918 4.34918 5.49892 4.26052L8.79826 2.3689L12.0976 4.26052C12.2673 4.34918 12.456 4.39548 12.6475 4.39548C12.839 4.39548 13.0276 4.34918 13.1974 4.26052L15.3969 3.00677V18.7007C15.3999 19.0758 15.4669 19.4478 15.5949 19.8004H3.29935ZM19.7961 18.7007C19.7961 18.9923 19.6802 19.2721 19.474 19.4783C19.2677 19.6846 18.988 19.8004 18.6963 19.8004C18.4046 19.8004 18.1249 19.6846 17.9186 19.4783C17.7124 19.2721 17.5965 18.9923 17.5965 18.7007V13.2017H19.7961V18.7007Z" fill="black"/>
</svg>
