<svg width="16" height="16" viewBox="0 0 16 16" fill="none" xmlns="http://www.w3.org/2000/svg">
<path d="M7.65733 0C3.42625 0 0 3.42764 0 7.65099C0 11.8743 3.42625 15.302 7.65733 15.302C11.8961 15.302 15.33 11.8743 15.33 7.65099C15.33 3.42764 11.8961 0 7.65733 0ZM7.665 13.7718C4.27707 13.7718 1.533 11.0327 1.533 7.65099C1.533 4.26925 4.27707 1.5302 7.665 1.5302C11.0529 1.5302 13.797 4.26925 13.797 7.65099C13.797 11.0327 11.0529 13.7718 7.665 13.7718ZM7.49637 3.8255H7.45038C7.14378 3.8255 6.8985 4.07033 6.8985 4.37637V7.98764C6.8985 8.25542 7.03647 8.5079 7.27408 8.64562L10.4551 10.5507C10.7157 10.7037 11.0529 10.6272 11.2062 10.3671C11.2447 10.3051 11.2703 10.2361 11.2815 10.1641C11.2927 10.092 11.2893 10.0185 11.2714 9.9478C11.2535 9.87712 11.2216 9.81076 11.1774 9.75266C11.1333 9.69457 11.0779 9.64593 11.0146 9.60965L8.04825 7.84992V4.37637C8.04825 4.07033 7.80297 3.8255 7.49637 3.8255Z" fill="#9C5EF4"/>
</svg>
