<svg width="17" height="15" viewBox="0 0 17 15" fill="none" xmlns="http://www.w3.org/2000/svg">
<path d="M11.5189 7.5L12.8773 8.78661L15.5923 6.21339C16.3125 5.53081 16.7171 4.60503 16.7171 3.63972C16.7171 2.67441 16.3125 1.74863 15.5923 1.06605C15.2357 0.72807 14.8124 0.45997 14.3465 0.277057C13.8805 0.0941443 13.3812 0 12.8769 0C11.8584 0 10.8816 0.383469 10.1614 1.06605L7.44637 3.63927L8.80387 4.92678L11.5189 2.35266C11.879 2.01131 12.3675 1.81954 12.8769 1.81954C13.3862 1.81954 13.8747 2.01131 14.2348 2.35266C14.595 2.69401 14.7973 3.15698 14.7973 3.63972C14.7973 4.12246 14.595 4.58543 14.2348 4.92678L11.5189 7.5ZM8.80387 10.0741L10.1614 11.3607L7.44637 13.9339C6.72618 14.6165 5.7494 15 4.73089 15C3.71239 15 2.7356 14.6165 2.01541 13.9339C1.29522 13.2514 0.890625 12.3256 0.890625 11.3603C0.890625 10.395 1.29522 9.46919 2.01541 8.78661L4.73041 6.21339L6.08887 7.5L3.37291 10.0741C3.01288 10.4155 2.81067 10.8784 2.81076 11.3611C2.81085 11.8437 3.01324 12.3066 3.37339 12.6478C3.73355 12.989 4.22198 13.1807 4.73123 13.1806C5.24048 13.1805 5.72884 12.9887 6.08887 12.6473L8.80387 10.0732V10.0741Z" fill="#9A5EF5"/>
<path d="M11.519 6.21433C11.6991 6.04359 11.8003 5.81203 11.8003 5.57057C11.8003 5.32911 11.6991 5.09754 11.519 4.92681C11.3388 4.75607 11.0945 4.66016 10.8397 4.66016C10.585 4.66016 10.3407 4.75607 10.1605 4.92681L6.08801 8.78754C5.99632 8.87148 5.92318 8.97188 5.87286 9.0829C5.82255 9.19391 5.79607 9.31331 5.79496 9.43412C5.79385 9.55494 5.81814 9.67476 5.86641 9.78658C5.91468 9.8984 5.98597 10 6.07611 10.0854C6.16625 10.1709 6.27344 10.2384 6.39143 10.2842C6.50941 10.3299 6.63583 10.353 6.76331 10.3519C6.89078 10.3509 7.01676 10.3258 7.13389 10.2781C7.25101 10.2304 7.35695 10.1611 7.44551 10.0742L11.518 6.21433H11.519Z" fill="#9A5EF5"/>
</svg>
