<svg width="27" height="27" viewBox="0 0 27 27" fill="none" xmlns="http://www.w3.org/2000/svg">
<path d="M13.5525 2.33398C12.0934 2.33398 10.6485 2.62138 9.30048 3.17977C7.95242 3.73815 6.72754 4.55659 5.69578 5.58835C3.61204 7.67209 2.44141 10.4982 2.44141 13.4451C2.44141 16.3919 3.61204 19.2181 5.69578 21.3018C6.72754 22.3336 7.95242 23.152 9.30048 23.7104C10.6485 24.2688 12.0934 24.5562 13.5525 24.5562C16.4994 24.5562 19.3255 23.3856 21.4093 21.3018C23.493 19.2181 24.6636 16.3919 24.6636 13.4451C24.6636 11.986 24.3762 10.5411 23.8178 9.19305C23.2595 7.84499 22.441 6.62011 21.4093 5.58835C20.3775 4.55659 19.1526 3.73815 17.8046 3.17977C16.4565 2.62138 15.0117 2.33398 13.5525 2.33398ZM8.07474 20.4229C8.55252 19.4229 11.4636 18.4451 13.5525 18.4451C15.6414 18.4451 18.5525 19.4229 19.0303 20.4229C17.4741 21.6629 15.5424 22.3368 13.5525 22.334C11.4859 22.334 9.58585 21.6229 8.07474 20.4229ZM20.6192 18.8117C19.0303 16.8784 15.1747 16.2229 13.5525 16.2229C11.9303 16.2229 8.07474 16.8784 6.48585 18.8117C5.30383 17.2724 4.66326 15.3859 4.66363 13.4451C4.66363 8.54509 8.65252 4.5562 13.5525 4.5562C18.4525 4.5562 22.4414 8.54509 22.4414 13.4451C22.4414 15.4673 21.7525 17.334 20.6192 18.8117ZM13.5525 6.77843C11.397 6.77843 9.66363 8.51176 9.66363 10.6673C9.66363 12.8229 11.397 14.5562 13.5525 14.5562C15.7081 14.5562 17.4414 12.8229 17.4414 10.6673C17.4414 8.51176 15.7081 6.77843 13.5525 6.77843ZM13.5525 12.334C13.1105 12.334 12.6866 12.1584 12.374 11.8458C12.0614 11.5333 11.8859 11.1093 11.8859 10.6673C11.8859 10.2253 12.0614 9.80136 12.374 9.4888C12.6866 9.17624 13.1105 9.00065 13.5525 9.00065C13.9945 9.00065 14.4185 9.17624 14.731 9.4888C15.0436 9.80136 15.2192 10.2253 15.2192 10.6673C15.2192 11.1093 15.0436 11.5333 14.731 11.8458C14.4185 12.1584 13.9945 12.334 13.5525 12.334Z" fill="white"/>
</svg>
