<svg width="39" height="38" viewBox="0 0 39 38" fill="none" xmlns="http://www.w3.org/2000/svg">
<path d="M19.2746 0.630859C21.2986 0.630859 23.2397 1.49343 24.6709 3.02882C26.1021 4.5642 26.9061 6.64663 26.9061 8.81799C26.9061 10.3121 26.5436 11.704 25.8758 12.9116H30.7219C32.5343 12.9116 34.0606 14.2829 34.4422 16.1045C38.2771 32.4993 38.3534 32.9291 38.3534 33.3794C38.3534 34.4651 37.9514 35.5063 37.2358 36.274C36.5202 37.0417 35.5496 37.473 34.5376 37.473H4.01156C2.99956 37.473 2.029 37.0417 1.31341 36.274C0.597817 35.5063 0.195801 34.4651 0.195801 33.3794C0.195801 32.9291 0.272116 32.4993 4.10695 16.1045C4.48853 14.2829 6.01483 12.9116 7.82731 12.9116H12.6733C11.9913 11.672 11.6353 10.2573 11.6431 8.81799C11.6431 6.64663 12.4471 4.5642 13.8783 3.02882C15.3095 1.49343 17.2506 0.630859 19.2746 0.630859ZM19.2746 4.72443C18.2626 4.72443 17.292 5.15571 16.5764 5.9234C15.8608 6.6911 15.4588 7.73231 15.4588 8.81799C15.4588 9.90368 15.8608 10.9449 16.5764 11.7126C17.292 12.4803 18.2626 12.9116 19.2746 12.9116C20.2866 12.9116 21.2571 12.4803 21.9727 11.7126C22.6883 10.9449 23.0903 9.90368 23.0903 8.81799C23.0903 7.73231 22.6883 6.6911 21.9727 5.9234C21.2571 5.15571 20.2866 4.72443 19.2746 4.72443ZM7.82731 17.0051V33.3794H11.6431V28.2624L13.551 30.3092V33.3794H17.3667V29.2858L13.551 25.1923L17.3667 21.0987V17.0051H13.551V20.0753L11.6431 22.1221V17.0051H7.82731ZM24.9982 17.0051C22.8805 17.0051 21.1825 18.8268 21.1825 21.0987V29.2858C21.1825 31.5578 22.8805 33.3794 24.9982 33.3794H30.7219V23.1455H26.9061V29.2858H24.9982V21.0987H30.7219V17.0051H24.9982Z" fill="white"/>
</svg>
