<svg width="9" height="8" viewBox="0 0 9 8" fill="none" xmlns="http://www.w3.org/2000/svg">
<path d="M7 2.25L1.45312 7.8125C1.32812 7.9375 1.17958 8 1.0075 8C0.835833 8 0.6875 7.9375 0.5625 7.8125C0.4375 7.6875 0.375 7.53896 0.375 7.36687C0.375 7.19521 0.4375 7.04688 0.5625 6.92188L6.125 1.375H1.375C1.19792 1.375 1.04938 1.31521 0.929375 1.19562C0.809792 1.07562 0.75 0.927083 0.75 0.75C0.75 0.572917 0.809792 0.424375 0.929375 0.304375C1.04938 0.184792 1.19792 0.125 1.375 0.125H7.625C7.80208 0.125 7.95042 0.184792 8.07 0.304375C8.19 0.424375 8.25 0.572917 8.25 0.75V7C8.25 7.17708 8.19 7.32542 8.07 7.445C7.95042 7.565 7.80208 7.625 7.625 7.625C7.44792 7.625 7.29958 7.565 7.18 7.445C7.06 7.32542 7 7.17708 7 7V2.25Z" fill="#ACACAC"/>
</svg>
