<svg width="65" height="65" viewBox="0 0 65 65" fill="none" xmlns="http://www.w3.org/2000/svg">
<circle cx="32.25" cy="32.25" r="32.25" fill="#D5E8FF"/>
<circle cx="32.2527" cy="32.2532" r="20.5227" fill="#3D95FF"/>
<path d="M30.349 23.2669C30.5024 22.888 30.7653 22.5635 31.1043 22.335C31.4432 22.1065 31.8427 21.9844 32.2515 21.9844C32.6603 21.9844 33.0597 22.1065 33.3987 22.335C33.7376 22.5635 34.0006 22.888 34.1539 23.2669C35.6713 23.6842 37.0098 24.5881 37.9637 25.8398C38.9177 27.0914 39.4344 28.6216 39.4344 30.1954V35.0151L41.3143 37.835C41.4174 37.9895 41.4766 38.1691 41.4857 38.3547C41.4947 38.5402 41.4531 38.7248 41.3655 38.8886C41.2779 39.0524 41.1474 39.1893 40.988 39.2848C40.8287 39.3802 40.6464 39.4306 40.4606 39.4306H35.8071C35.6835 40.2855 35.2561 41.0672 34.6031 41.6326C33.9501 42.198 33.1153 42.5092 32.2515 42.5092C31.3877 42.5092 30.5529 42.198 29.8999 41.6326C29.2469 41.0672 28.8195 40.2855 28.6959 39.4306H24.0424C23.8566 39.4306 23.6743 39.3802 23.515 39.2848C23.3556 39.1893 23.2251 39.0524 23.1375 38.8886C23.0498 38.7248 23.0083 38.5402 23.0173 38.3547C23.0263 38.1691 23.0856 37.9895 23.1887 37.835L25.0685 35.0151V30.1954C25.0685 26.8871 27.3055 24.1001 30.349 23.2669ZM30.8005 39.4306C30.9065 39.7309 31.103 39.9909 31.363 40.1749C31.6229 40.3588 31.9336 40.4576 32.252 40.4576C32.5705 40.4576 32.8811 40.3588 33.141 40.1749C33.401 39.9909 33.5975 39.7309 33.7035 39.4306H30.7995H30.8005ZM32.2515 25.0647C30.8907 25.0647 29.5857 25.6053 28.6236 26.5675C27.6614 27.5296 27.1208 28.8346 27.1208 30.1954V35.3261C27.1209 35.5288 27.0609 35.7269 26.9484 35.8956L25.9603 37.3783H38.5417L37.5535 35.8956C37.4414 35.7268 37.3818 35.5287 37.3822 35.3261V30.1954C37.3822 28.8346 36.8416 27.5296 35.8794 26.5675C34.9172 25.6053 33.6122 25.0647 32.2515 25.0647Z" fill="white"/>
</svg>
