<svg width="65" height="65" viewBox="0 0 65 65" fill="none" xmlns="http://www.w3.org/2000/svg">
<circle cx="32.25" cy="32.25" r="32.25" fill="#72B8B7" fill-opacity="0.18"/>
<path d="M32.2532 15.1465C28.8706 15.1465 25.5641 16.1495 22.7516 18.0287C19.9392 19.908 17.7471 22.579 16.4527 25.704C15.1583 28.829 14.8196 32.2677 15.4795 35.5852C16.1394 38.9028 17.7682 41.9501 20.16 44.3419C22.5518 46.7337 25.5992 48.3625 28.9167 49.0224C32.2342 49.6823 35.6729 49.3436 38.7979 48.0492C41.9229 46.7548 44.5939 44.5627 46.4732 41.7503C48.3524 38.9378 49.3554 35.6313 49.3554 32.2488C49.3554 30.0028 48.9131 27.7789 48.0536 25.704C47.1941 23.6291 45.9344 21.7437 44.3463 20.1556C42.7582 18.5675 40.8728 17.3078 38.7979 16.4483C36.723 15.5888 34.4991 15.1465 32.2532 15.1465ZM33.9634 39.0897C33.9634 39.5432 33.7832 39.9782 33.4625 40.299C33.1417 40.6197 32.7067 40.7999 32.2532 40.7999C31.7996 40.7999 31.3646 40.6197 31.0438 40.299C30.7231 39.9782 30.5429 39.5432 30.5429 39.0897V30.5385C30.5429 30.0849 30.7231 29.6499 31.0438 29.3292C31.3646 29.0085 31.7996 28.8283 32.2532 28.8283C32.7067 28.8283 33.1417 29.0085 33.4625 29.3292C33.7832 29.6499 33.9634 30.0849 33.9634 30.5385V39.0897ZM32.2532 27.1181C31.9149 27.1181 31.5842 27.0178 31.303 26.8298C31.0218 26.6419 30.8026 26.3748 30.6731 26.0623C30.5437 25.7498 30.5098 25.4059 30.5758 25.0742C30.6418 24.7424 30.8047 24.4377 31.0438 24.1985C31.283 23.9594 31.5878 23.7965 31.9195 23.7305C32.2513 23.6645 32.5951 23.6984 32.9076 23.8278C33.2201 23.9572 33.4872 24.1764 33.6752 24.4577C33.8631 24.7389 33.9634 25.0696 33.9634 25.4078C33.9634 25.8614 33.7832 26.2964 33.4625 26.6172C33.1417 26.9379 32.7067 27.1181 32.2532 27.1181Z" fill="#72B8B7"/>
</svg>
