<svg width="66" height="65" viewBox="0 0 66 65" fill="none" xmlns="http://www.w3.org/2000/svg">
<ellipse cx="32.7297" cy="32.25" rx="32.7297" ry="32.25" fill="#F3EDFF"/>
<g clip-path="url(#clip0_1195_11768)">
<path d="M23.8937 30.3528C27.8075 30.3528 30.9752 27.2545 30.9752 23.4264C30.9752 19.5983 27.8075 16.5 23.8937 16.5C19.9799 16.5 16.8121 19.5983 16.8121 23.4264C16.8121 27.2545 19.9799 30.3528 23.8937 30.3528ZM28.7496 32.3318H28.2248C26.9096 32.9502 25.4491 33.3213 23.8937 33.3213C22.3383 33.3213 20.884 32.9502 19.5626 32.3318H19.0378C15.0165 32.3318 11.7539 35.5229 11.7539 39.4561V41.2372C11.7539 42.876 13.1133 44.2057 14.7888 44.2057H32.9985C34.674 44.2057 36.0334 42.876 36.0334 41.2372V39.4561C36.0334 35.5229 32.7709 32.3318 28.7496 32.3318ZM42.1033 30.3528C45.4544 30.3528 48.1732 27.6936 48.1732 24.4159C48.1732 21.1382 45.4544 18.479 42.1033 18.479C38.7522 18.479 36.0334 21.1382 36.0334 24.4159C36.0334 27.6936 38.7522 30.3528 42.1033 30.3528ZM45.1382 32.3318H44.898C44.0191 32.6287 43.0897 32.8266 42.1033 32.8266C41.1169 32.8266 40.1875 32.6287 39.3086 32.3318H39.0684C37.7785 32.3318 36.5898 32.6967 35.5466 33.2842C37.0893 34.9107 38.0567 37.069 38.0567 39.4561V41.8309C38.0567 41.967 38.0251 42.0968 38.0188 42.2267H49.1848C50.8604 42.2267 52.2198 40.8971 52.2198 39.2582C52.2198 35.4301 49.052 32.3318 45.1382 32.3318Z" fill="#814BFF"/>
</g>
<defs>
<clipPath id="clip0_1195_11768">
<rect width="40.4659" height="31.6636" fill="white" transform="translate(11.9062 16.418)"/>
</clipPath>
</defs>
</svg>
