<svg width="66" height="65" viewBox="0 0 66 65" fill="none" xmlns="http://www.w3.org/2000/svg">
<ellipse cx="32.7297" cy="32.25" rx="32.7297" ry="32.25" fill="#F3EDFF"/>
<path fill-rule="evenodd" clip-rule="evenodd" d="M32 50C41.941 50 50 41.941 50 32C50 22.059 41.941 14 32 14C22.059 14 14 22.059 14 32C14 41.941 22.059 50 32 50ZM32 52C43.046 52 52 43.046 52 32C52 20.954 43.046 12 32 12C20.954 12 12 20.954 12 32C12 43.046 20.954 52 32 52Z" fill="#814BFF"/>
<path d="M20 43.6298C20 42.5968 20.772 41.7238 21.8 41.6098C29.515 40.7558 34.52 40.8328 42.218 41.6288C42.6024 41.6691 42.9667 41.8206 43.2665 42.0646C43.5663 42.3086 43.7885 42.6347 43.906 43.0029C44.0235 43.3711 44.0312 43.7656 43.9282 44.1382C43.8252 44.5107 43.616 44.8452 43.326 45.1008C34.241 53.0198 29.049 52.9108 20.64 45.1088C20.23 44.7288 20 44.1878 20 43.6298Z" fill="#814BFF"/>
<path fill-rule="evenodd" clip-rule="evenodd" d="M42.115 42.6228C34.478 41.8328 29.545 41.7588 21.909 42.6038C21.6576 42.6331 21.4259 42.754 21.2582 42.9435C21.0905 43.133 20.9986 43.3777 21 43.6308C21 43.9168 21.119 44.1878 21.32 44.3758C25.488 48.2418 28.646 49.9888 31.733 49.9998C34.831 50.0108 38.159 48.2778 42.669 44.3478C42.8123 44.2203 42.9154 44.0538 42.9659 43.8688C43.0164 43.6837 43.012 43.488 42.9533 43.3054C42.8946 43.1228 42.7842 42.9612 42.6354 42.8401C42.4865 42.7191 42.3058 42.643 42.115 42.6228ZM21.69 40.6158C29.486 39.7528 34.564 39.8308 42.322 40.6338C42.9003 40.6941 43.4485 40.9218 43.8994 41.2889C44.3503 41.656 44.6844 42.1466 44.8607 42.7007C45.0371 43.2547 45.0481 43.8482 44.8924 44.4084C44.7367 44.9686 44.421 45.4712 43.984 45.8548C39.409 49.8428 35.599 52.0148 31.727 51.9998C27.844 51.9858 24.202 49.7768 19.961 45.8418C19.6574 45.5589 19.4153 45.2165 19.2499 44.8359C19.0846 44.4553 18.9995 44.0447 19 43.6298C18.9985 42.8842 19.2722 42.1643 19.7686 41.608C20.2649 41.0516 20.9491 40.699 21.69 40.6158Z" fill="#814BFF"/>
<path d="M40 28C40 30.1217 39.1571 32.1566 37.6569 33.6569C36.1566 35.1571 34.1217 36 32 36C29.8783 36 27.8434 35.1571 26.3431 33.6569C24.8429 32.1566 24 30.1217 24 28C24 25.8783 24.8429 23.8434 26.3431 22.3431C27.8434 20.8429 29.8783 20 32 20C34.1217 20 36.1566 20.8429 37.6569 22.3431C39.1571 23.8434 40 25.8783 40 28Z" fill="#814BFF"/>
<path fill-rule="evenodd" clip-rule="evenodd" d="M32 34C33.5913 34 35.1174 33.3679 36.2426 32.2426C37.3679 31.1174 38 29.5913 38 28C38 26.4087 37.3679 24.8826 36.2426 23.7574C35.1174 22.6321 33.5913 22 32 22C30.4087 22 28.8826 22.6321 27.7574 23.7574C26.6321 24.8826 26 26.4087 26 28C26 29.5913 26.6321 31.1174 27.7574 32.2426C28.8826 33.3679 30.4087 34 32 34ZM32 36C34.1217 36 36.1566 35.1571 37.6569 33.6569C39.1571 32.1566 40 30.1217 40 28C40 25.8783 39.1571 23.8434 37.6569 22.3431C36.1566 20.8429 34.1217 20 32 20C29.8783 20 27.8434 20.8429 26.3431 22.3431C24.8429 23.8434 24 25.8783 24 28C24 30.1217 24.8429 32.1566 26.3431 33.6569C27.8434 35.1571 29.8783 36 32 36Z" fill="#814BFF"/>
</svg>
